ply
format ascii 1.0
element vertex 26
comment vertices
property float x
property float y
property float z
end_header
0.185226202011108398 3.01484012603759766 0.302654504776000977
0.245493680238723755 2.23740482330322266 0.189407408237457275
3.16436433792114258 0.0881398022174835205 0.420800864696502686
2.95088624954223633 -0.986184537410736084 0.518870234489440918
-0.415397703647613525 3.25799822807312012 1.20681416988372803
2.79526829719543457 1.56094932556152344 0.489580601453781128
2.8016812801361084 1.55385744571685791 0.482998043298721313
0.112411923706531525 2.93197274208068848 0.322826385498046875
3.26554679870605469 -0.0344350039958953857 0.460498303174972534
-2.45031428337097168 -2.29400277137756348 0.330709755420684814
0.321264594793319702 2.30246615409851074 0.218621909618377686
-0.692514479160308838 3.23198413848876953 1.36141550540924072
2.58118700981140137 -1.32756233215332031 0.671982347965240479
-2.23498797416687012 -1.73941981792449951 0.276586413383483887
3.20094013214111328 -0.00974886119365692139 0.44800761342048645
2.57618188858032227 -1.2565302848815918 0.660113275051116943
2.62164497375488281 1.57790446281433105 0.511385262012481689
0.152878925204277039 2.9675898551940918 0.270674735307693481
0.0074416622519493103 2.97199606895446777 0.318302392959594727
3.09216070175170898 0.258979648351669312 0.388698875904083252
0.219724148511886597 3.00033807754516602 0.306315958499908447
3.14864301681518555 0.25539398193359375 0.398762255907058716
3.17062616348266602 0.122611373662948608 0.406326323747634888
0.445920318365097046 2.47821187973022461 0.280906140804290771
-0.642758190631866455 3.25218987464904785 1.24307167530059814
3.15377187728881836 0.174541935324668884 0.438897967338562012
