ply
format ascii 1.0
element vertex 175
comment vertices
property float x
property float y
property float z
end_header
1.79461610317230225 0.827762305736541748 0.656070530414581299
-1.46788632869720459 -2.85981583595275879 1.85320651531219482
-2.16569709777832031 1.86163914203643799 2.40554952621459961
1.13660311698913574 -2.57318663597106934 1.04899919033050537
-1.59060442447662354 -0.66185075044631958 0.596856415271759033
0.72858738899230957 2.17457747459411621 1.7532724142074585
-1.59591865539550781 -0.840990662574768066 2.28316187858581543
3.02532744407653809 0.996981620788574219 0.918761849403381348
0.548016846179962158 -0.6681022047996521 0.651941597461700439
1.11131906509399414 2.15639758110046387 1.2220613956451416
-1.83291435241699219 1.10094761848449707 1.3160545825958252
-0.753924429416656494 -2.12277603149414062 1.80622100830078125
-0.797362327575683594 1.94947969913482666 1.4281308650970459
2.42029190063476562 2.20375561714172363 0.748847424983978271
0.890592038631439209 0.561103105545043945 1.28314554691314697
0.55941462516784668 1.03418612480163574 0.82031714916229248
1.73257279396057129 2.08913779258728027 1.06654751300811768
0.702236711978912354 -0.400673210620880127 0.477465629577636719
-0.945707023143768311 1.08245766162872314 0.290921241044998169
-1.89747285842895508 -0.53467172384262085 1.32177519798278809
-2.03110027313232422 2.09352231025695801 1.42697536945343018
0.0144808031618595123 -3.19665932655334473 0.900299429893493652
-0.861343920230865479 -3.08855676651000977 1.53751862049102783
-1.04690062999725342 2.01160144805908203 2.52280187606811523
-0.295849233865737915 0.193002969026565552 0.873236656188964844
-1.46713805198669434 -1.90124142169952393 1.92299318313598633
-0.673604130744934082 1.62405061721801758 0.485413312911987305
-1.60121297836303711 -1.12797701358795166 1.4404909610748291
3.47336411476135254 1.79223346710205078 0.966895461082458496
0.653923213481903076 0.126701265573501587 0.592894613742828369
2.25638771057128906 0.795037329196929932 0.948934972286224365
-0.941048800945281982 -0.999957501888275146 0.791683793067932129
0.0275961235165596008 2.11457061767578125 1.67118847370147705
-0.83040386438369751 -2.07046198844909668 0.640126407146453857
1.69111418724060059 2.00041842460632324 1.06337833404541016
0.62471461296081543 -1.83870899677276611 0.901665568351745605
0.0662454888224601746 1.85258829593658447 0.294436633586883545
0.665305852890014648 0.141460299491882324 0.445437312126159668
-1.02347683906555176 1.67682135105133057 1.72314679622650146
-0.253165632486343384 2.00678157806396484 2.143280029296875
0.633916139602661133 0.157375827431678772 0.425848543643951416
-1.69416594505310059 -0.861456513404846191 2.09821987152099609
1.36168956756591797 2.106658935546875 1.12841558456420898
-1.51814365386962891 0.0252944231033325195 0.707066118717193604
3.38527655601501465 1.68351781368255615 1.08277046680450439
1.5336761474609375 2.0848228931427002 1.04406774044036865
-0.521581351757049561 -3.26451301574707031 0.91744840145111084
1.29246652126312256 1.52870118618011475 0.709454238414764404
2.87552690505981445 0.923795938491821289 0.875536978244781494
-0.900211691856384277 -0.737631499767303467 0.525248467922210693
0.338049113750457764 1.82841992378234863 1.65212953090667725
0.578149139881134033 -0.103117130696773529 0.41890755295753479
2.93669295310974121 2.55490756034851074 0.557970523834228516
-1.9662940502166748 1.73787212371826172 1.90464568138122559
-1.52557837963104248 0.187309026718139648 1.35206568241119385
-0.314483344554901123 0.854910671710968018 0.570115983486175537
3.23071193695068359 1.71100592613220215 1.05957770347595215
-1.17330336570739746 1.95973062515258789 2.10342025756835938
1.10053634643554688 -2.68858885765075684 0.961772322654724121
-0.87281268835067749 -3.0571904182434082 0.613996624946594238
-1.6713947057723999 1.84175562858581543 0.677951216697692871
0.180766835808753967 -3.16253829002380371 0.77967303991317749
-0.531359374523162842 1.37760424613952637 1.1663978099822998
1.17921686172485352 2.16711640357971191 1.01324188709259033
-1.43247485160827637 1.99597132205963135 2.26461482048034668
-1.42777657508850098 -2.34125590324401855 0.52497410774230957
-1.03335225582122803 1.98543691635131836 1.79055273532867432
-1.5167311429977417 -2.64016532897949219 1.9413071870803833
0.536639988422393799 0.236019521951675415 1.43609786033630371
-0.88976365327835083 -0.710695564746856689 0.47752082347869873
1.16014492511749268 -2.51157951354980469 0.963322937488555908
-0.907560646533966064 1.21249020099639893 0.334598422050476074
-0.032953556627035141 1.93719017505645752 1.49158668518066406
2.66762447357177734 0.75953221321105957 0.638382971286773682
0.693278372287750244 -0.895659148693084717 0.767332971096038818
-0.979872524738311768 -3.04860711097717285 1.62442469596862793
0.817925453186035156 0.264300763607025146 0.355251163244247437
2.13098740577697754 2.15745210647583008 0.86994701623916626
0.74089127779006958 2.22573184967041016 1.50160539150238037
0.568610548973083496 0.172177895903587341 0.51139676570892334
-1.34228384494781494 -1.05382859706878662 0.908760309219360352
0.801755249500274658 2.38681173324584961 1.38433349132537842
-1.69508719444274902 -0.685125470161437988 2.20414161682128906
0.115020066499710083 2.05856013298034668 1.47800981998443604
2.03145217895507812 2.12579679489135742 0.876063287258148193
2.53984618186950684 0.847214460372924805 1.08067917823791504
-1.74197077751159668 -0.817767798900604248 1.94955599308013916
1.43756210803985596 0.871159672737121582 0.242997348308563232
0.573359429836273193 -0.157558634877204895 0.377107501029968262
0.686272621154785156 -2.58615970611572266 1.05291736125946045
-1.56762135028839111 -0.228029027581214905 0.905331611633300781
0.666835308074951172 0.128000825643539429 0.475856542587280273
0.189106732606887817 2.0597529411315918 2.39514613151550293
-0.322556883096694946 2.0080268383026123 1.39088964462280273
2.06997251510620117 0.667546391487121582 0.936451911926269531
-1.16970062255859375 1.24691247940063477 0.317088156938552856
-1.86308431625366211 1.2530207633972168 1.40475130081176758
0.971110343933105469 -0.404962688684463501 1.21021044254302979
-0.46837770938873291 -3.19747638702392578 1.11501550674438477
-1.20970237255096436 -1.25483477115631104 0.722781181335449219
-0.73668748140335083 1.898781418800354 1.44996607303619385
-1.51796269416809082 1.85566830635070801 2.25792169570922852
-1.90401554107666016 -0.535226643085479736 1.10867941379547119
0.627856433391571045 2.29091548919677734 0.435796439647674561
-1.02644574642181396 -0.367350995540618896 0.635036766529083252
3.06869125366210938 2.42017745971679688 0.687495648860931396
0.986294031143188477 0.672567546367645264 1.05436527729034424
0.0212130732834339142 1.79535412788391113 0.266625523567199707
1.88471710681915283 1.69316351413726807 0.591213643550872803
-1.73225736618041992 -0.994727134704589844 2.13389801979064941
0.666422128677368164 0.133713573217391968 0.452442407608032227
-0.725490331649780273 -3.05297231674194336 0.594437599182128906
0.346321225166320801 -2.50909686088562012 1.00592529773712158
-1.50473546981811523 -2.60652661323547363 1.79079937934875488
-0.564660906791687012 2.01684451103210449 2.21326494216918945
1.04685449600219727 0.533260822296142578 0.324705302715301514
1.09740364551544189 -2.8597724437713623 0.798906028270721436
0.540397703647613525 -0.846908688545227051 0.695907652378082275
-1.57301938533782959 1.9351661205291748 1.30665981769561768
-1.03325009346008301 1.07724130153656006 0.341863274574279785
0.793347537517547607 0.138314709067344666 0.892581939697265625
0.707247376441955566 0.173371806740760803 0.476017385721206665
2.49616408348083496 2.02403044700622559 1.03304624557495117
3.41456508636474609 1.51863539218902588 0.975675106048583984
-1.77358758449554443 1.9077146053314209 0.753349959850311279
2.99326872825622559 2.42679977416992188 0.720151007175445557
2.11156892776489258 0.723747491836547852 0.98818051815032959
-0.938543558120727539 0.593178331851959229 0.355758637189865112
0.184787705540657043 -0.24561445415019989 0.689218819141387939
-0.571262896060943604 2.03702497482299805 2.47200655937194824
3.00289273262023926 2.43304228782653809 0.808421969413757324
-0.631879746913909912 1.63372421264648438 0.456195473670959473
-1.60664701461791992 -0.191785693168640137 0.726846575736999512
-0.753615200519561768 -2.04852008819580078 1.71996176242828369
1.46376979351043701 2.0846703052520752 1.00867366790771484
1.46485424041748047 2.13514018058776855 0.903804302215576172
0.304487943649291992 2.08796310424804688 1.86762166023254395
-0.828939676284790039 -2.84041023254394531 0.714558660984039307
2.10340571403503418 2.13550853729248047 0.913646101951599121
1.51419627666473389 1.05624270439147949 0.596647918224334717
0.797188699245452881 1.88335418701171875 0.52850717306137085
-1.75001728534698486 -1.04295825958251953 2.03927755355834961
1.18353843688964844 -2.25510668754577637 1.01216781139373779
1.92898797988891602 0.624924600124359131 1.10886919498443604
1.5315093994140625 2.08969283103942871 1.00649189949035645
-1.7462773323059082 -0.327169507741928101 1.41560578346252441
0.695379495620727539 0.226044416427612305 0.420913606882095337
-1.358711838722229 -0.71696937084197998 0.822068989276885986
-0.446245938539505005 -3.24735212326049805 0.938290059566497803
-0.817274928092956543 -2.10453557968139648 0.464659810066223145
-0.879350125789642334 1.22477626800537109 0.339658677577972412
-1.53337216377258301 1.8518294095993042 1.90267443656921387
-1.4717332124710083 -1.88181662559509277 2.08515310287475586
2.56434512138366699 1.0601804256439209 0.655294299125671387
0.666406631469726562 0.157667815685272217 0.374627679586410522
0.954549610614776611 -3.11991572380065918 0.84536290168762207
0.861846923828125 0.447819352149963379 1.0963742733001709
1.01172542572021484 -1.68736612796783447 0.992131054401397705
-0.610671103000640869 -3.0280754566192627 1.13474023342132568
-1.47730731964111328 -2.59060931205749512 1.71035647392272949
0.204931482672691345 -1.88880026340484619 0.76544034481048584
-0.881887972354888916 -0.563802838325500488 0.538764536380767822
1.1481550931930542 -2.66570949554443359 0.838788986206054688
-0.920513570308685303 2.03165411949157715 1.58299434185028076
3.43457555770874023 1.85480451583862305 1.09968268871307373
0.311582207679748535 -3.15062785148620605 0.754190683364868164
-0.970377624034881592 1.85764992237091064 1.74952423572540283
0.107916861772537231 1.9118722677230835 1.4338066577911377
3.05635619163513184 0.999119937419891357 0.792585134506225586
3.48002266883850098 1.64085280895233154 0.90475165843963623
0.324009954929351807 -3.1743931770324707 0.758862555027008057
0.576210200786590576 -0.312583178281784058 0.521321713924407959
1.84088563919067383 1.89710569381713867 0.736566424369812012
-1.29257082939147949 0.291578531265258789 0.824350595474243164
2.59313035011291504 0.857776880264282227 1.0641486644744873
