ply
format ascii 1.0
element vertex 54
comment vertices
property float x
property float y
property float z
end_header
1.19836580753326416 -0.607193708419799805 0.43540617823600769
1.47357439994812012 -0.792853057384490967 1.74699115753173828
-1.39745354652404785 -0.39886242151260376 0.43502536416053772
-2.03026413917541504 0.569882214069366455 2.18179631233215332
1.83144223690032959 0.15875108540058136 2.03915977478027344
-1.47637152671813965 -0.674581289291381836 2.16310262680053711
1.53450393676757812 0.109966978430747986 0.701410949230194092
-1.82625305652618408 -0.019403163343667984 1.07880675792694092
1.68406927585601807 0.389153867959976196 0.884602665901184082
-1.24821305274963379 -0.649522960186004639 0.62422335147857666
1.35308325290679932 -0.839915335178375244 1.824043869972229
1.71208012104034424 0.480676949024200439 1.05853927135467529
1.49392497539520264 -0.813166558742523193 1.75346171855926514
-0.721235036849975586 -0.351266324520111084 0.611753582954406738
1.56346654891967773 0.504367589950561523 0.671324491500854492
-0.403146088123321533 -0.41004478931427002 1.02074956893920898
-1.15345573425292969 -0.454291820526123047 0.254012882709503174
-1.82269549369812012 0.171348199248313904 1.1085360050201416
1.89398527145385742 0.17579786479473114 1.7654421329498291
-1.89889979362487793 0.173207998275756836 2.06954860687255859
-1.32242536544799805 -0.736742854118347168 1.90161502361297607
0.65554344654083252 -0.442490369081497192 0.532358527183532715
-2.00307226181030273 0.331773936748504639 2.11028027534484863
1.29778790473937988 -0.834741830825805664 1.67489433288574219
1.33279025554656982 -0.838672637939453125 1.83985209465026855
1.59662461280822754 0.458688020706176758 0.621419906616210938
2.03463459014892578 0.148903459310531616 1.87605977058410645
-1.45703279972076416 -0.785076737403869629 2.0022737979888916
2.01043272018432617 0.0417321473360061646 1.89912605285644531
1.77534401416778564 0.280253171920776367 1.84654057025909424
1.59378719329833984 0.456161916255950928 0.669191300868988037
-1.34273028373718262 -0.446635156869888306 0.510892987251281738
1.82601165771484375 0.477270841598510742 1.18430113792419434
1.36659407615661621 -0.671491861343383789 0.533444523811340332
1.31774318218231201 -0.881946265697479248 1.77392733097076416
-2.0788722038269043 0.461642235517501831 1.91352963447570801
1.60059034824371338 0.476856201887130737 0.733641982078552246
-1.56863021850585938 -0.895155787467956543 1.7421717643737793
1.54816770553588867 0.22458590567111969 0.757027804851531982
-0.719089627265930176 -0.414206802845001221 0.97840350866317749
1.52923929691314697 -0.855156421661376953 1.93709230422973633
1.76614296436309814 0.553696632385253906 0.493523895740509033
1.7806708812713623 0.411174595355987549 1.05692434310913086
-1.47031116485595703 -0.735211014747619629 2.13247060775756836
1.99935817718505859 0.0853853225708007812 2.01445531845092773
1.35513007640838623 -0.802363455295562744 1.77229666709899902
1.64454269409179688 -0.0744750499725341797 0.848723411560058594
-1.94394457340240479 0.247059404850006104 1.21896624565124512
0.374021202325820923 -0.349922388792037964 0.656026959419250488
1.75466394424438477 0.505503416061401367 0.93243253231048584
-2.00228476524353027 0.482569992542266846 2.18636250495910645
1.69397151470184326 0.475937336683273315 0.800051987171173096
-1.36931502819061279 -0.766662895679473877 2.05577230453491211
1.18913912773132324 -0.357671141624450684 0.282784342765808105
