ply
format ascii 1.0
element vertex 88
comment vertices
property float x
property float y
property float z
end_header
-1.56083405017852783 -2.95171928405761719 1.0224454402923584
3.39201045036315918 1.03701984882354736 0.704062700271606445
0.185226202011108398 3.01484012603759766 0.302654504776000977
-2.19783258438110352 2.06276059150695801 0.433751165866851807
2.94077849388122559 0.45993649959564209 0.356444567441940308
0.245493680238723755 2.23740482330322266 0.189407408237457275
1.87225151062011719 -1.16805469989776611 0.496284961700439453
-0.398130863904953003 -2.94574522972106934 0.428771913051605225
3.16436433792114258 0.0881398022174835205 0.420800864696502686
2.95088624954223633 -0.986184537410736084 0.518870234489440918
2.79526829719543457 1.56094932556152344 0.489580601453781128
-2.30875730514526367 1.50916564464569092 0.580702126026153564
0.0806226208806037903 -2.19933414459228516 0.993062019348144531
-1.7334212064743042 2.50312614440917969 0.641031503677368164
1.6822969913482666 2.24033617973327637 1.04410803318023682
2.8016812801361084 1.55385744571685791 0.482998043298721313
-2.23502635955810547 2.05677294731140137 0.740277290344238281
0.112411923706531525 2.93197274208068848 0.322826385498046875
0.330796957015991211 3.08450603485107422 0.682544231414794922
2.38574004173278809 -1.2857201099395752 0.558459699153900146
3.26554679870605469 -0.0344350039958953857 0.460498303174972534
-0.0627515390515327454 -2.84000182151794434 0.424723833799362183
-2.30278992652893066 1.61360704898834229 0.362057119607925415
3.18108510971069336 1.37962579727172852 1.05948138236999512
3.18562698364257812 -0.184572339057922363 1.05860686302185059
-1.32708740234375 -2.89055109024047852 1.08036708831787109
3.23483061790466309 0.493110001087188721 0.393977552652359009
2.66488170623779297 1.64107382297515869 0.587930798530578613
-1.93613290786743164 -2.80643749237060547 0.872129440307617188
0.321264594793319702 2.30246615409851074 0.218621909618377686
-0.314039915800094604 -2.6958167552947998 0.33518633246421814
2.00201511383056641 -1.35557675361633301 0.519467055797576904
-0.836475610733032227 3.20604538917541504 1.23203051090240479
2.58118700981140137 -1.32756233215332031 0.671982347965240479
-2.40251255035400391 1.71462047100067139 0.458875358104705811
2.6520535945892334 1.68819582462310791 0.629781186580657959
-2.01723122596740723 2.29066061973571777 0.398886352777481079
1.86360776424407959 -1.31920051574707031 0.512332499027252197
0.0583351776003837585 -2.15604376792907715 0.84967571496963501
0.889187395572662354 2.1959378719329834 0.2854137122631073
3.20094013214111328 -0.00974886119365692139 0.44800761342048645
0.23908117413520813 2.95307421684265137 0.352849423885345459
3.59041309356689453 1.18647885322570801 0.69966280460357666
3.17738986015319824 0.404874265193939209 0.53432077169418335
2.57618188858032227 -1.2565302848815918 0.660113275051116943
2.62164497375488281 1.57790446281433105 0.511385262012481689
2.25571680068969727 1.79124331474304199 0.511822700500488281
2.24058437347412109 -1.45387160778045654 0.701608598232269287
0.152878925204277039 2.9675898551940918 0.270674735307693481
1.49814426898956299 2.29713320732116699 1.09263479709625244
2.1678309440612793 -1.34465038776397705 0.414482355117797852
0.795059025287628174 2.38616561889648438 0.256480634212493896
-0.23659244179725647 -2.88362288475036621 0.337490499019622803
0.00486449524760246277 -2.10794854164123535 0.683056116104125977
0.0074416622519493103 2.97199606895446777 0.318302392959594727
-2.03322148323059082 -2.82310819625854492 0.951404809951782227
3.40679073333740234 0.960023939609527588 0.946779549121856689
3.10984349250793457 -0.153986930847167969 1.21466243267059326
3.18432116508483887 0.162671282887458801 0.461411118507385254
-2.18802571296691895 2.06408166885375977 0.496989190578460693
-2.26134610176086426 -2.59531688690185547 0.686576962471008301
-0.573114454746246338 -2.98210763931274414 0.364179491996765137
-2.29572844505310059 1.70772647857666016 0.422875970602035522
3.09216070175170898 0.258979648351669312 0.388698875904083252
2.5371086597442627 -1.34452080726623535 0.478332668542861938
2.98048257827758789 -0.886578500270843506 0.587443768978118896
0.0124706737697124481 -2.4245753288269043 0.358507603406906128
-1.63147068023681641 -2.87441468238830566 0.959110021591186523
-1.71230566501617432 -2.98989081382751465 1.01341366767883301
0.219724148511886597 3.00033807754516602 0.306315958499908447
-0.280484676361083984 -2.89670705795288086 0.426546782255172729
-2.32569098472595215 1.72749733924865723 0.747801780700683594
3.14864301681518555 0.25539398193359375 0.398762255907058716
-1.9474564790725708 2.34431910514831543 0.489837169647216797
0.163642734289169312 -2.74030923843383789 0.783127009868621826
2.97289514541625977 1.39228558540344238 0.412030339241027832
2.65688562393188477 1.66645228862762451 0.607761144638061523
2.94673728942871094 -1.33119285106658936 0.793407320976257324
-1.71272408962249756 2.52378129959106445 0.438536703586578369
3.17062616348266602 0.122611373662948608 0.406326323747634888
0.445920318365097046 2.47821187973022461 0.280906140804290771
1.90983700752258301 -1.15037262439727783 0.432839721441268921
0.120816327631473541 -2.51971173286437988 0.902514398097991943
-0.642758190631866455 3.25218987464904785 1.24307167530059814
1.96655726432800293 -1.29960429668426514 0.532311916351318359
2.29599523544311523 1.77252483367919922 0.537510454654693604
-2.31270074844360352 1.63560688495635986 0.408509254455566406
3.15377187728881836 0.174541935324668884 0.438897967338562012
