ply
format ascii 1.0
element vertex 64
comment vertices
property float x
property float y
property float z
end_header
0.251993447542190552 2.02238869667053223 1.89554095268249512
-0.245962411165237427 1.68910479545593262 0.42315298318862915
0.140917003154754639 1.6707155704498291 0.914875924587249756
1.20106899738311768 1.79506325721740723 0.433304101228713989
-0.784914970397949219 -0.652147114276885986 0.847529411315917969
-0.711009860038757324 0.591751933097839355 0.865887701511383057
0.417392462491989136 -1.84372711181640625 0.439477056264877319
0.371726959943771362 -1.81647658348083496 0.805740475654602051
-0.726225793361663818 0.585869789123535156 2.093475341796875
0.0929476618766784668 -1.5726773738861084 0.888729333877563477
-0.603370428085327148 -1.24914085865020752 0.410302549600601196
0.203996747732162476 -2.00765013694763184 1.89928746223449707
-0.910733044147491455 -1.33682513236999512 1.89604973793029785
-0.930809259414672852 1.45932018756866455 1.90020966529846191
-0.615759372711181641 1.33069634437561035 0.423032522201538086
0 0 0
0 0 0
0 0 0
0 0 0
0 0 0
0 0 0
0 0 0
0 0 0
0 0 0
0 0 0
0 0 0
0 0 0
0 0 0
0 0 0
0 0 0
0 0 0
0 0 0
0 0 0
0 0 0
0 0 0
0 0 0
0 0 0
0 0 0
0 0 0
0 0 0
0 0 0
0 0 0
0 0 0
0 0 0
0 0 0
0 0 0
0 0 0
0 0 0
0 0 0
0 0 0
0 0 0
0 0 0
0 0 0
0 0 0
0 0 0
0 0 0
0 0 0
0 0 0
0 0 0
0 0 0
0 0 0
0 0 0
0 0 0
0 0 0
