ply
format ascii 1.0
element vertex 38
comment vertices
property float x
property float y
property float z
end_header
-0.865674138069152832 1.14070606231689453 0.356580138206481934
0.596484124660491943 -0.691193282604217529 0.650519967079162598
-0.502195477485656738 1.71683430671691895 0.584814250469207764
0.655275702476501465 -0.691086113452911377 0.855016410350799561
0.131234034895896912 -3.20402383804321289 0.856296420097351074
-1.79168844223022461 -1.04262614250183105 1.35877490043640137
0.430499732494354248 -1.0041356086730957 0.833330333232879639
0.283774435520172119 -3.07226967811584473 0.706306755542755127
-1.00111043453216553 0.971100330352783203 0.393182605504989624
-0.0206532105803489685 -3.1968846321105957 0.728104233741760254
-0.677315235137939453 1.6077038049697876 0.48841935396194458
-1.37318527698516846 0.866688430309295654 0.715348780155181885
0.159141838550567627 -3.1692507266998291 0.744623243808746338
-1.02380907535552979 -0.945556938648223877 0.675358414649963379
-0.847816526889801025 1.2966771125793457 0.453886687755584717
-1.51453733444213867 -0.330756485462188721 0.939058542251586914
-0.995229065418243408 0.755146324634552002 0.332641065120697021
-1.75375795364379883 -1.1569666862487793 1.47613322734832764
0.470554769039154053 -0.727896690368652344 0.726839900016784668
-0.660243391990661621 1.57924103736877441 0.444254577159881592
-1.04142308235168457 0.458318024873733521 0.477069050073623657
-1.67177605628967285 1.17505097389221191 1.50635647773742676
-1.10501182079315186 0.711569666862487793 0.46008765697479248
-0.99773097038269043 -0.883768081665039062 0.763635933399200439
-1.30048370361328125 0.306620895862579346 0.704527854919433594
-0.865122199058532715 1.16151988506317139 0.346573710441589355
0.0535482577979564667 -3.15976548194885254 0.743332743644714355
-0.115304812788963318 1.627480149269104 0.415252566337585449
-1.799460768699646 -1.08325588703155518 1.47932934761047363
0.199360251426696777 -3.17160463333129883 0.765561103820800781
-0.998153328895568848 1.48048257827758789 0.774793148040771484
-1.09760522842407227 1.3004375696182251 0.426661908626556396
-0.872134804725646973 -1.22122573852539062 0.645775258541107178
-1.27851688861846924 -0.246272623538970947 0.81027144193649292
0.489219367504119873 -0.730375766754150391 0.686659812927246094
0.0182461664080619812 -3.16906905174255371 0.846696853637695312
-1.82837772369384766 -0.941186785697937012 1.44058322906494141
0.0864886865019798279 -3.14922118186950684 0.814328014850616455
