ply
format ascii 1.0
element vertex 256
comment vertices
property float x
property float y
property float z
end_header
-0.865674138069152832 1.14070606231689453 0.356580138206481934
0.997032642364501953 -3.12174820899963379 1.08890080451965332
3.28413629531860352 0.938439667224884033 0.795962929725646973
-1.68719065189361572 -1.37991714477539062 1.51221787929534912
1.07104957103729248 -0.371607363224029541 2.44355988502502441
0.596484124660491943 -0.691193282604217529 0.650519967079162598
1.31340909004211426 2.41208624839782715 0.958299458026885986
-0.218329787254333496 -3.14108753204345703 0.746435642242431641
1.0207817554473877 0.21024852991104126 1.12209105491638184
0.811898589134216309 2.19354653358459473 1.40086150169372559
-1.47190761566162109 -0.360181540250778198 0.626119673252105713
-1.70853531360626221 -0.011271188035607338 1.55520761013031006
0.887562096118927002 -1.26367545127868652 1.60388767719268799
1.13300943374633789 -2.4813380241394043 0.869251787662506104
3.06470584869384766 2.2680366039276123 0.750984013080596924
-0.594965636730194092 1.66529905796051025 1.67506039142608643
-0.926841020584106445 -1.42311680316925049 0.868964552879333496
0.467636942863464355 1.65878415107727051 0.693070650100708008
-0.337944209575653076 0.41312098503112793 1.26669347286224365
-1.44549667835235596 2.00141572952270508 1.22617077827453613
1.87595844268798828 2.02118730545043945 0.948867440223693848
-0.502195477485656738 1.71683430671691895 0.584814250469207764
-0.593153595924377441 0.282592236995697021 0.382705152034759521
2.18471741676330566 0.975429058074951172 1.23649108409881592
0.655275702476501465 -0.691086113452911377 0.855016410350799561
0.131234034895896912 -3.20402383804321289 0.856296420097351074
-1.87447595596313477 -0.178747043013572693 1.08331489562988281
0.841823101043701172 -0.0790211856365203857 1.40817654132843018
-0.872420608997344971 -2.30520844459533691 1.32673203945159912
-0.852468311786651611 1.38131141662597656 0.5619049072265625
0.671582698822021484 0.18837718665599823 0.28795391321182251
0.655765175819396973 -1.79679262638092041 0.801840424537658691
-1.64988577365875244 0.99430006742477417 1.12328958511352539
-1.01959455013275146 -0.556540250778198242 0.751277327537536621
1.03488326072692871 2.13074517250061035 1.07889795303344727
-0.848744392395019531 -1.26985669136047363 0.722185373306274414
-0.369177043437957764 1.79781901836395264 0.361452281475067139
0.601140797138214111 -1.95632004737854004 1.70477473735809326
0.98490595817565918 -1.93457555770874023 0.883947253227233887
-1.44479024410247803 0.141486674547195435 0.570244550704956055
1.06402885913848877 -0.505501270294189453 1.919777512550354
1.08937132358551025 -1.2029721736907959 2.46742415428161621
-1.79168844223022461 -1.04262614250183105 1.35877490043640137
0.512715816497802734 -3.19334053993225098 0.776216089725494385
1.14812815189361572 -2.39510416984558105 1.11264574527740479
2.97618508338928223 0.971731245517730713 0.729459643363952637
1.42641735076904297 1.7195734977722168 1.00032007694244385
-0.812705755233764648 2.00130176544189453 1.13684356212615967
0.543508291244506836 2.16790938377380371 1.01619720458984375
1.10737001895904541 0.772437691688537598 1.25145542621612549
-0.581482172012329102 1.36552119255065918 1.06202340126037598
2.15353751182556152 1.95912885665893555 0.983483195304870605
-0.784919381141662598 1.07222652435302734 0.274851381778717041
-0.130807280540466309 1.86552441120147705 1.46612608432769775
0.572385907173156738 0.254469752311706543 0.523501694202423096
0.430499732494354248 -1.0041356086730957 0.833330333232879639
-1.49195575714111328 -0.143185287714004517 0.915160715579986572
-1.80268752574920654 0.828116238117218018 1.74089145660400391
0.283774435520172119 -3.07226967811584473 0.706306755542755127
0.9429665207862854 -0.896305382251739502 0.986058652400970459
-0.897066175937652588 0.237979888916015625 0.549769997596740723
1.47707486152648926 1.06621837615966797 0.763181447982788086
-1.01379477977752686 -1.23105251789093018 0.761440753936767578
-0.183309480547904968 1.7391892671585083 0.33878597617149353
0.410042405128479004 0.369420856237411499 0.546045005321502686
-1.09128248691558838 -1.80591583251953125 1.26323699951171875
-0.750947296619415283 -1.54237449169158936 0.570158243179321289
0.78502267599105835 -0.969623565673828125 1.93287050724029541
-1.03754675388336182 1.23221075534820557 0.570639610290527344
0.413182258605957031 -0.206494823098182678 0.507032215595245361
0.963820159435272217 -0.171385020017623901 0.949392139911651611
1.70153772830963135 2.01388406753540039 1.04958677291870117
0.900108516216278076 0.700827479362487793 0.357437193393707275
-1.92316174507141113 -0.521777808666229248 1.32409250736236572
0.241201341152191162 2.09736394882202148 1.30153453350067139
2.84888219833374023 0.792084932327270508 0.86301720142364502
-1.00111043453216553 0.971100330352783203 0.393182605504989624
1.12437450885772705 -0.077796541154384613 2.56220030784606934
1.00803995132446289 -1.39651715755462646 0.673154175281524658
1.03997504711151123 -0.0615203827619552612 1.81620931625366211
-0.0206532105803489685 -3.1968846321105957 0.728104233741760254
2.83031868934631348 1.51954269409179688 0.815237343311309814
-0.677315235137939453 1.6077038049697876 0.48841935396194458
-1.37318527698516846 0.866688430309295654 0.715348780155181885
-0.31578826904296875 -1.90858340263366699 0.845458745956420898
-1.365683913230896 -0.990911483764648438 0.582483053207397461
0.658030867576599121 -1.12288105487823486 1.10598492622375488
0.853905797004699707 -3.14571261405944824 0.723350763320922852
-0.0266522839665412903 1.95580697059631348 0.257312685251235962
0.159141838550567627 -3.1692507266998291 0.744623243808746338
1.41849279403686523 2.04151344299316406 1.02241849899291992
-1.02380907535552979 -0.945556938648223877 0.675358414649963379
-0.847816526889801025 1.2966771125793457 0.453886687755584717
0.568449139595031738 -1.29911267757415771 0.936729192733764648
-1.03107786178588867 1.41219925880432129 0.502288937568664551
1.07306349277496338 -1.71702587604522705 1.33395874500274658
-1.51453733444213867 -0.330756485462188721 0.939058542251586914
-0.995229065418243408 0.755146324634552002 0.332641065120697021
-0.613327860832214355 2.07217693328857422 1.28528678417205811
1.07024133205413818 -0.697739839553833008 2.40829896926879883
0.586411714553833008 -1.54803383350372314 1.86506819725036621
0.313288241624832153 -0.965955793857574463 0.511900067329406738
1.31992256641387939 0.981986641883850098 0.802583158016204834
1.12075614929199219 -2.35308384895324707 0.883630335330963135
-1.04344582557678223 1.39235997200012207 0.831747055053710938
0.698378503322601318 -0.167322933673858643 2.17865777015686035
1.04051840305328369 -2.82431340217590332 0.953704535961151123
-1.61149179935455322 0.476417511701583862 1.18397068977355957
0.485333681106567383 -3.22868609428405762 0.826172173023223877
-0.977226018905639648 -2.00318217277526855 1.29579126834869385
-0.518389582633972168 0.240327194333076477 0.740567266941070557
1.07066047191619873 -0.666745185852050781 1.40885686874389648
-1.49260532855987549 0.0399367064237594604 0.748900294303894043
1.12013721466064453 2.09005880355834961 1.1296226978302002
0.893110752105712891 -2.24394559860229492 0.924670755863189697
-1.75375795364379883 -1.1569666862487793 1.47613322734832764
-1.69634008407592773 -0.0680734291672706604 1.26187765598297119
0.932613074779510498 1.80223929882049561 1.04204833507537842
0.997721850872039795 -1.30078089237213135 0.739757776260375977
-1.21133983135223389 0.594306349754333496 0.648298084735870361
1.10580277442932129 -2.66303539276123047 0.906767308712005615
0.482635617256164551 -0.170235723257064819 0.46845698356628418
0.470554769039154053 -0.727896690368652344 0.726839900016784668
0.570458590984344482 -0.163251936435699463 0.530677437782287598
0.901103615760803223 -0.989840447902679443 1.60323095321655273
-0.427771329879760742 1.82826483249664307 0.396439284086227417
0.499343514442443848 2.11375808715820312 1.13656330108642578
-1.10974788665771484 -1.86062300205230713 1.23201310634613037
-0.839130043983459473 -1.38059723377227783 0.626091301441192627
1.39809024333953857 1.0180814266204834 0.551614582538604736
1.18302643299102783 2.07808923721313477 1.1137082576751709
0.56143796443939209 -0.251208961009979248 1.49210500717163086
1.1469348669052124 -1.50224542617797852 1.98759818077087402
1.04046499729156494 0.189683258533477783 1.53649771213531494
2.6530301570892334 0.95891571044921875 0.865468442440032959
0.345333576202392578 -0.780874669551849365 0.727555155754089355
-0.902673900127410889 1.38366270065307617 0.570487737655639648
1.07633137702941895 -0.298580259084701538 2.52698016166687012
-0.660243391990661621 1.57924103736877441 0.444254577159881592
0.857831001281738281 0.283236324787139893 0.672852933406829834
1.91291964054107666 1.43764829635620117 1.05949497222900391
2.33300137519836426 2.36234521865844727 0.91643601655960083
-1.04142308235168457 0.458318024873733521 0.477069050073623657
1.13585782051086426 1.09761393070220947 0.580973148345947266
1.49958741664886475 1.03809225559234619 0.842748284339904785
1.84820950031280518 2.39690232276916504 0.812736868858337402
0.852513551712036133 -0.879736542701721191 1.70476269721984863
-1.67177605628967285 1.17505097389221191 1.50635647773742676
0.526437282562255859 -0.00787401571869850159 0.743471503257751465
0.712561428546905518 -0.930251896381378174 1.99888265132904053
2.0260317325592041 1.98472476005554199 0.967973530292510986
-1.76700365543365479 0.415757060050964355 1.6417388916015625
1.69199073314666748 1.97111129760742188 1.1915290355682373
1.01276230812072754 -1.29860663414001465 1.9162982702255249
0.929018378257751465 2.1341559886932373 0.957985997200012207
0.416402041912078857 0.12296651303768158 0.399116784334182739
0.611834347248077393 -0.107802890241146088 1.36417484283447266
-1.12698888778686523 1.24057900905609131 0.486430466175079346
-1.10501182079315186 0.711569666862487793 0.46008765697479248
0.52628558874130249 -2.03442049026489258 1.24876272678375244
3.17732048034667969 0.916133761405944824 0.820701062679290771
-1.18764948844909668 -0.832709848880767822 0.674094080924987793
-0.530398130416870117 -0.770148634910583496 0.718320727348327637
0.00959972292184829712 -2.66266012191772461 0.918727636337280273
-0.546819031238555908 0.340044319629669189 0.612971127033233643
1.10328114032745361 -2.25578713417053223 1.07919907569885254
-0.282991081476211548 1.69625711441040039 0.361188501119613647
0.619826078414916992 0.349844515323638916 0.457140892744064331
-0.769526481628417969 1.98296201229095459 1.07427358627319336
-0.99773097038269043 -0.883768081665039062 0.763635933399200439
-0.927139878273010254 0.0320512689650058746 0.505617916584014893
0.971696615219116211 -1.88985669612884521 0.629021525382995605
0.275975137948989868 2.06126236915588379 1.32779741287231445
-1.05042815208435059 2.01205563545227051 1.22758758068084717
1.09889495372772217 -2.61638998985290527 1.05483639240264893
0.574531614780426025 -1.13313436508178711 0.956479310989379883
-0.883467555046081543 1.18765974044799805 0.440918028354644775
1.49289655685424805 1.01128077507019043 0.864721000194549561
-0.24639892578125 1.86505556106567383 1.5441591739654541
1.06175088882446289 0.438878923654556274 1.48991096019744873
-1.04105472564697266 1.34307312965393066 0.794520199298858643
-1.30048370361328125 0.306620895862579346 0.704527854919433594
0.648154556751251221 0.763443946838378906 0.25470888614654541
0.497098326683044434 -0.386735916137695312 0.667378723621368408
-0.725032269954681396 -1.66557753086090088 0.741888463497161865
-0.325497567653656006 0.526899039745330811 0.381325393915176392
-0.238226532936096191 2.0669548511505127 1.4274362325668335
0.835729122161865234 -1.31027841567993164 1.06297957897186279
0.696796000003814697 -2.92368841171264648 0.79828035831451416
0.375906944274902344 1.17202234268188477 0.739217698574066162
1.62976753711700439 1.99243044853210449 0.960061609745025635
-1.84312868118286133 -0.183140605688095093 1.08427441120147705
-0.528834521770477295 0.337084203958511353 1.26969254016876221
-0.865122199058532715 1.16151988506317139 0.346573710441589355
-1.50039052963256836 0.611143231391906738 0.823617279529571533
0.505196213722229004 -3.1854250431060791 0.764492690563201904
-0.832284986972808838 1.72062122821807861 1.76613759994506836
1.05362570285797119 -0.154484137892723083 2.44695091247558594
0.785778164863586426 -1.32328605651855469 1.59635162353515625
0.0535482577979564667 -3.15976548194885254 0.743332743644714355
-1.13847756385803223 -1.81967711448669434 1.09168612957000732
0.608674168586730957 -1.43925046920776367 0.854508817195892334
0.83409196138381958 -0.445310443639755249 0.990116119384765625
-0.298360437154769897 1.75245630741119385 0.37302061915397644
-0.926699161529541016 -0.135553434491157532 0.65236741304397583
1.02915823459625244 -1.65589118003845215 1.73986363410949707
-0.769861459732055664 -1.44185101985931396 0.63788759708404541
-0.763498067855834961 1.4077610969543457 0.494067847728729248
-1.0005037784576416 1.27334356307983398 0.406972825527191162
-0.115304812788963318 1.627480149269104 0.415252566337585449
3.06369256973266602 1.8185042142868042 1.03739118576049805
-0.897118568420410156 0.240566045045852661 0.419581353664398193
0.858676671981811523 -1.12805140018463135 1.87215054035186768
1.02565813064575195 -0.318413376808166504 1.40236306190490723
-1.799460768699646 -1.08325588703155518 1.47932934761047363
0.199360251426696777 -3.17160463333129883 0.765561103820800781
0.563514947891235352 2.17937016487121582 1.14770734310150146
-1.4530874490737915 0.0274384170770645142 0.751323223114013672
1.07970130443572998 0.124055325984954834 2.29229211807250977
2.43783044815063477 1.61152637004852295 0.896006464958190918
1.0186384916305542 -0.257888257503509521 1.94960474967956543
-0.507095277309417725 1.79672694206237793 0.449444890022277832
0.725005090236663818 -0.769064426422119141 0.997216224670410156
-0.826476395130157471 -1.96153342723846436 1.20775532722473145
-0.401158660650253296 -1.52056276798248291 0.659982502460479736
-0.871215522289276123 -1.89413011074066162 1.05543076992034912
-0.998153328895568848 1.48048257827758789 0.774793148040771484
-1.09760522842407227 1.3004375696182251 0.426661908626556396
1.37258744239807129 2.04103899002075195 1.08038663864135742
2.65568184852600098 1.97654247283935547 1.10360932350158691
-0.872134804725646973 -1.22122573852539062 0.645775258541107178
-1.27851688861846924 -0.246272623538970947 0.81027144193649292
2.81147432327270508 0.938605427742004395 0.864836513996124268
-1.0933835506439209 1.18791437149047852 1.02221882343292236
0.96577751636505127 -3.13373112678527832 0.866290450096130371
0.909148335456848145 -1.46878063678741455 1.06238079071044922
0.530015826225280762 -0.533217668533325195 0.735447406768798828
0.794716835021972656 2.21478796005249023 1.14997649192810059
1.29458034038543701 1.95259356498718262 1.12629055976867676
0.489219367504119873 -0.730375766754150391 0.686659812927246094
-0.141076982021331787 0.495097607374191284 0.384809106588363647
0.0182461664080619812 -3.16906905174255371 0.846696853637695312
0.52572941780090332 -1.06519758701324463 0.989841699600219727
-0.915315449237823486 -0.307238250970840454 0.706817328929901123
0.597762763500213623 0.298084259033203125 0.471799522638320923
-0.843200027942657471 1.41254854202270508 0.478234231472015381
-1.8033212423324585 0.879548490047454834 1.53191661834716797
-1.82837772369384766 -0.941186785697937012 1.44058322906494141
0.0864886865019798279 -3.14922118186950684 0.814328014850616455
-0.310953706502914429 1.72046840190887451 0.369957268238067627
0.455787301063537598 -2.25846004486083984 0.842951655387878418
0.731379926204681396 -3.17352461814880371 0.877829611301422119
0.504906773567199707 -0.458813905715942383 0.694996893405914307
0.900986790657043457 -0.607548177242279053 0.966066896915435791
0.636311769485473633 -1.71222138404846191 1.60953688621520996
-1.38121950626373291 0.678669214248657227 0.770558297634124756
