ply
format ascii 1.0
element vertex 64
comment vertices
property float x
property float y
property float z
end_header
-0.585104584693908691 -0.484291195869445801 0.867801666259765625
0.560509324073791504 -0.558012962341308594 0.851465463638305664
-2.0204615592956543 0.298188894987106323 1.90343189239501953
1.30475068092346191 -1.01999819278717041 1.83455419540405273
1.19178736209869385 -0.648954808712005615 0.422821909189224243
-0.614884495735168457 -0.695053458213806152 2.09228992462158203
-1.86519217491149902 1.22258269786834717 0.416464865207672119
-1.65676021575927734 0.160337150096893311 0.935545444488525391
1.53802001476287842 0.115958154201507568 0.914576888084411621
1.81764101982116699 0.268622100353240967 0.846544265747070312
0.545237302780151367 -0.80188751220703125 2.07010507583618164
1.91989660263061523 0.10262376070022583 1.89394760131835938
1.74102556705474854 0.342069655656814575 0.440881073474884033
-1.51046609878540039 -0.878694653511047363 1.90557849407196045
-1.32406747341156006 -0.568282604217529297 0.452219009399414062
0 0 0
0 0 0
0 0 0
0 0 0
0 0 0
0 0 0
0 0 0
0 0 0
0 0 0
0 0 0
0 0 0
0 0 0
0 0 0
0 0 0
0 0 0
0 0 0
0 0 0
0 0 0
0 0 0
0 0 0
0 0 0
0 0 0
0 0 0
0 0 0
0 0 0
0 0 0
0 0 0
0 0 0
0 0 0
0 0 0
0 0 0
0 0 0
0 0 0
0 0 0
0 0 0
0 0 0
0 0 0
0 0 0
0 0 0
0 0 0
0 0 0
0 0 0
0 0 0
0 0 0
0 0 0
0 0 0
0 0 0
0 0 0
0 0 0
