ply
format ascii 1.0
element vertex 47
comment vertices
property float x
property float y
property float z
end_header
-0.722320377826690674 1.56862294673919678 2.08439540863037109
0.102380566298961639 -1.80425834655761719 2.15156269073486328
0.328309714794158936 -1.63576066493988037 0.641901910305023193
-0.662567496299743652 1.31841707229614258 0.5182037353515625
0.0799726620316505432 1.96332859992980957 2.0983123779296875
0.621175765991210938 -1.81097447872161865 0.818413794040679932
-0.653300166130065918 -1.41968846321105957 0.645365297794342041
0.382238268852233887 -1.73969781398773193 0.427132129669189453
-0.706638574600219727 1.42208743095397949 0.720013201236724854
-0.848108470439910889 1.50340187549591064 2.03168439865112305
-0.409212350845336914 0.449194997549057007 0.81423342227935791
0.491154104471206665 -1.85585355758666992 0.909956455230712891
0.109758220613002777 -1.62982046604156494 0.743761837482452393
-0.0652454718947410583 1.97771430015563965 1.98920416831970215
0.510783970355987549 -1.68834948539733887 0.656721532344818115
0.158269062638282776 -1.68768715858459473 0.922072827816009521
0.498774528503417969 1.96240854263305664 2.18113303184509277
0.1774158775806427 -2.05497002601623535 1.91392385959625244
0.564299404621124268 -1.84745407104492188 0.861562252044677734
0.13485737144947052 1.83391821384429932 0.785796523094177246
-0.065938219428062439 -1.68245577812194824 0.878979265689849854
0.963881552219390869 1.95126581192016602 0.4195689857006073
0.082464560866355896 -1.82574093341827393 1.93673813343048096
0.68368297815322876 -1.78643810749053955 0.836647629737854004
-0.0921832695603370667 1.79703283309936523 0.823060393333435059
-0.821001410484313965 1.34207427501678467 1.98454451560974121
-0.0850629433989524841 1.85886037349700928 0.66418755054473877
-0.206141278147697449 1.68405532836914062 0.676180005073547363
-0.571547210216522217 0.779505133628845215 2.01620936393737793
-0.830623090267181396 1.49991905689239502 1.74294006824493408
0.263751745223999023 -1.86435198783874512 1.99639153480529785
-0.803110420703887939 1.40721285343170166 2.01248455047607422
0.171538814902305603 1.97907233238220215 1.9736562967300415
0.110377006232738495 -1.91650772094726562 2.15433883666992188
-0.0569585040211677551 -1.72084367275238037 0.909932434558868408
0.474473923444747925 2.06095767021179199 1.88849246501922607
0.599309861660003662 -1.80530786514282227 0.486448407173156738
0.287669628858566284 1.9932856559753418 1.95014774799346924
0.266923129558563232 1.97480297088623047 2.03780961036682129
0.428106963634490967 -1.65609073638916016 0.5705413818359375
0.559057116508483887 -1.93122661113739014 0.6618918776512146
-0.0817950144410133362 -1.72137701511383057 0.910026013851165771
0.191071197390556335 1.99335646629333496 2.09866476058959961
0.432226210832595825 -1.65583813190460205 0.483736395835876465
0.209316611289978027 -1.93966889381408691 1.97511386871337891
0.256995171308517456 -1.71987855434417725 0.917999446392059326
-0.0392385944724082947 1.62658488750457764 0.786105811595916748
