ply
format ascii 1.0
element vertex 117
comment vertices
property float x
property float y
property float z
end_header
0.170821994543075562 1.88564872741699219 0.725041091442108154
-0.791228950023651123 -1.34534645080566406 0.868376731872558594
-0.771071553230285645 1.41413319110870361 1.11069643497467041
0.328309714794158936 -1.63576066493988037 0.641901910305023193
-0.386716961860656738 1.41254091262817383 0.913988709449768066
-0.429197847843170166 -0.358242183923721313 1.2768712043762207
-0.662567496299743652 1.31841707229614258 0.5182037353515625
0.0799726620316505432 1.96332859992980957 2.0983123779296875
-0.526089310646057129 -0.926111161708831787 0.364027678966522217
0.205025956034660339 -1.86418592929840088 1.24489545822143555
-0.471381127834320068 0.585102260112762451 1.29782021045684814
0.621175765991210938 -1.81097447872161865 0.818413794040679932
-0.104413695633411407 1.54317152500152588 0.640067458152770996
-0.457392901182174683 0.255956351757049561 1.24846494197845459
0.508514583110809326 1.95819222927093506 0.578007102012634277
0.186223849654197693 1.96908688545227051 0.624700486660003662
-0.555289983749389648 -0.126892387866973877 1.1055595874786377
0.207197695970535278 2.00620865821838379 1.08567249774932861
-0.497945964336395264 -0.339757204055786133 1.49218273162841797
-0.653300166130065918 -1.41968846321105957 0.645365297794342041
0.863676905632019043 2.03778910636901855 2.09534406661987305
0.550499558448791504 2.01116514205932617 0.383943110704421997
-0.642944812774658203 1.81828224658966064 0.883490860462188721
-0.39131319522857666 -0.440272390842437744 1.09751129150390625
-0.89648205041885376 -1.36573421955108643 0.890861868858337402
0.382238268852233887 -1.73969781398773193 0.427132129669189453
-0.706638574600219727 1.42208743095397949 0.720013201236724854
-0.848108470439910889 1.50340187549591064 2.03168439865112305
-0.409212350845336914 0.449194997549057007 0.81423342227935791
0.249296560883522034 -1.56572282314300537 0.656161665916442871
0.491154104471206665 -1.85585355758666992 0.909956455230712891
0.109758220613002777 -1.62982046604156494 0.743761837482452393
0.510783970355987549 -1.68834948539733887 0.656721532344818115
-0.445694446563720703 -0.0893828868865966797 1.21680057048797607
0.158269062638282776 -1.68768715858459473 0.922072827816009521
0.498774528503417969 1.96240854263305664 2.18113303184509277
0.467767566442489624 1.91749143600463867 0.545670390129089355
-0.559022247791290283 -0.303113400936126709 1.22031521797180176
0.564299404621124268 -1.84745407104492188 0.861562252044677734
0.167491346597671509 1.92208313941955566 0.766538083553314209
0.13485737144947052 1.83391821384429932 0.785796523094177246
0.420832991600036621 2.03288960456848145 0.811792612075805664
-0.065938219428062439 -1.68245577812194824 0.878979265689849854
0.654197633266448975 -2.0061497688293457 0.570865273475646973
-0.746011316776275635 1.72468256950378418 0.93370133638381958
-0.424023479223251343 0.534920454025268555 1.36360418796539307
-0.436350703239440918 -0.3729514479637146 1.0291290283203125
0.657333850860595703 -2.15006256103515625 0.583685755729675293
-0.245053201913833618 -1.70818126201629639 0.850865721702575684
-0.433413445949554443 0.117405198514461517 1.30070531368255615
-0.787406623363494873 -1.05084872245788574 1.03004467487335205
-0.515928506851196289 0.511014580726623535 1.41846358776092529
0.604129970073699951 1.9958043098449707 0.696375608444213867
0.629426002502441406 2.00286483764648438 0.68923872709274292
0.155791476368904114 1.80375659465789795 0.68782651424407959
-0.426185786724090576 0.813028693199157715 1.00072872638702393
0.68368297815322876 -1.78643810749053955 0.836647629737854004
-0.0921832695603370667 1.79703283309936523 0.823060393333435059
0.0702114999294281006 1.90311956405639648 0.945233404636383057
-0.533402919769287109 -0.866559743881225586 0.671422600746154785
-0.0850629433989524841 1.85886037349700928 0.66418755054473877
-0.540965855121612549 -0.223512738943099976 1.39996612071990967
-0.475811600685119629 0.259769350290298462 1.02768588066101074
-0.532564103603363037 0.696567177772521973 1.47067844867706299
-0.206141278147697449 1.68405532836914062 0.676180005073547363
0.387980282306671143 1.94516932964324951 0.552882075309753418
-0.700757443904876709 -0.530695080757141113 1.35779809951782227
-0.577382326126098633 0.979835867881774902 1.16166996955871582
-0.558494687080383301 -0.832934737205505371 0.844335854053497314
-0.321803182363510132 -0.00733121298253536224 0.918265700340270996
-0.567949593067169189 1.47788608074188232 0.776490628719329834
-0.803110420703887939 1.40721285343170166 2.01248455047607422
-0.850340962409973145 -1.36643886566162109 0.93634498119354248
0.683819055557250977 -2.00580310821533203 0.961340844631195068
-0.434820711612701416 -0.146680712699890137 1.0914151668548584
0.0251913145184516907 -1.58265125751495361 0.427397221326828003
-0.326661497354507446 1.6205897331237793 0.83214336633682251
0.728070199489593506 -2.06212496757507324 0.639647126197814941
-0.158122986555099487 1.25769007205963135 0.805562376976013184
-0.692267060279846191 -0.356028765439987183 1.07931089401245117
-0.0569585040211677551 -1.72084367275238037 0.909932434558868408
-0.747160911560058594 1.28266453742980957 1.02504622936248779
0.0318416357040405273 -1.64193868637084961 0.62456059455871582
0.345135390758514404 1.83959293365478516 0.476235181093215942
0.719830691814422607 -1.91819906234741211 0.816547930240631104
0.271923601627349854 -1.88940954208374023 1.40820217132568359
-0.670824766159057617 -1.41958177089691162 0.964437901973724365
-0.039274018257856369 1.96259534358978271 2.15519142150878906
0.599309861660003662 -1.80530786514282227 0.486448407173156738
-0.650705277919769287 1.66979455947875977 1.01530873775482178
0.355266690254211426 1.91766810417175293 0.662149131298065186
-0.413196146488189697 -0.40456157922744751 1.31883108615875244
0.428106963634490967 -1.65609073638916016 0.5705413818359375
0.437172055244445801 1.95899391174316406 0.759227156639099121
0.717109918594360352 -1.86042118072509766 0.883814752101898193
0.559057116508483887 -1.93122661113739014 0.6618918776512146
-0.0817950144410133362 -1.72137701511383057 0.910026013851165771
-0.493599414825439453 0.424735307693481445 1.29827821254730225
0.38071596622467041 1.93542420864105225 0.614555478096008301
0.332032769918441772 1.92198312282562256 0.651289224624633789
0.221971184015274048 1.90694546699523926 0.63968360424041748
0.432226210832595825 -1.65583813190460205 0.483736395835876465
-0.588831484317779541 -0.516589462757110596 1.10719823837280273
-0.00919301062822341919 -1.54836130142211914 0.636668741703033447
-0.0588143393397331238 1.85017752647399902 0.828876078128814697
0.300865620374679565 -1.94916439056396484 1.0856165885925293
-0.350646615028381348 0.714888393878936768 1.08499765396118164
-0.310202240943908691 -0.292664945125579834 0.965771973133087158
0.580669522285461426 -1.92233622074127197 1.08664119243621826
-0.529902756214141846 1.56421518325805664 0.760272860527038574
0.313185900449752808 1.89694714546203613 0.751496613025665283
-0.601896166801452637 -1.49114441871643066 0.754815876483917236
0.256995171308517456 -1.71987855434417725 0.917999446392059326
-0.917907416820526123 -1.43050003051757812 0.989550173282623291
-0.809121608734130859 -1.3698652982711792 0.928504526615142822
-0.692221522331237793 1.324188232421875 0.988621652126312256
-0.0392385944724082947 1.62658488750457764 0.786105811595916748
