ply
format ascii 1.0
element vertex 195
comment vertices
property float x
property float y
property float z
end_header
-0.92167431116104126 -0.728625714778900146 0.401931971311569214
1.77794528007507324 3.23119211196899414 1.61779665946960449
2.55756807327270508 -1.19088554382324219 1.53436660766601562
-1.60425186157226562 2.55739545822143555 0.822463393211364746
-3.58125662803649902 -0.0384966097772121429 0.706320226192474365
1.67794907093048096 1.28188872337341309 0.180371075868606567
1.58513903617858887 -2.62204408645629883 0.88603675365447998
-3.55871009826660156 -1.24213635921478271 0.909707844257354736
0.925574004650115967 3.18615555763244629 0.294158041477203369
2.67015314102172852 1.23893594741821289 1.38566505908966064
2.48814296722412109 -0.732379317283630371 0.354678750038146973
0.462067306041717529 3.44650387763977051 1.41006696224212646
-2.15482211112976074 -1.43003344535827637 1.50529038906097412
2.50816154479980469 2.27703142166137695 0.213853999972343445
-0.12447984516620636 1.70059525966644287 0.216696575284004211
0.701521873474121094 -0.994664609432220459 0.276533573865890503
1.4842076301574707 -2.42625308036804199 1.53821945190429688
-3.21307587623596191 1.280312180519104 1.26835989952087402
-1.54304361343383789 -2.12181973457336426 0.4915962815284729
-3.48972892761230469 -0.243883967399597168 1.22964632511138916
2.30319952964782715 -1.72228538990020752 0.656950771808624268
-0.597272753715515137 -1.79117119312286377 1.12272965908050537
2.59305930137634277 0.547289848327636719 1.1851426362991333
0.640916168689727783 -3.17011785507202148 1.38901662826538086
0.121298432350158691 2.47125697135925293 0.965559720993041992
1.60547471046447754 -0.0414357408881187439 0.14990513026714325
1.11567020416259766 2.45696091651916504 0.27590826153755188
-2.20804524421691895 2.22357964515686035 0.775478661060333252
2.71433043479919434 2.22725725173950195 1.41892433166503906
1.34469890594482422 -3.16384410858154297 1.36131787300109863
2.23290300369262695 -1.30482280254364014 0.45000690221786499
-3.17263412475585938 1.13768315315246582 0.594502091407775879
-1.63775694370269775 1.92428648471832275 0.663843750953674316
0.361024409532546997 -2.39002084732055664 0.753879547119140625
-1.76639759540557861 0.151933446526527405 0.262165814638137817
-0.00509443879127502441 2.7723698616027832 0.385843575000762939
2.29869246482849121 1.91016519069671631 0.270008981227874756
-3.56051754951477051 -0.933902502059936523 0.621562719345092773
2.60452747344970703 -0.993710577487945557 1.30434858798980713
1.31189632415771484 3.37638974189758301 1.93524086475372314
1.94708693027496338 -1.50268995761871338 1.48330497741699219
-3.02403402328491211 -1.19959867000579834 1.15088403224945068
1.43610537052154541 -3.12453651428222656 1.2520897388458252
-3.63333606719970703 0.144257918000221252 1.0945514440536499
2.65199995040893555 1.53638756275177002 1.28779387474060059
0.947392582893371582 0.679492950439453125 0.348332136869430542
1.77990150451660156 -2.15599560737609863 0.450413554906845093
0.633744180202484131 3.37234067916870117 0.98909294605255127
-0.620572686195373535 -2.52745199203491211 1.76202392578125
-0.259696096181869507 -0.761558175086975098 0.289425581693649292
-2.98157382011413574 1.49142313003540039 0.76377260684967041
2.33501815795898438 0.460281938314437866 0.505692601203918457
-2.18118906021118164 1.62332916259765625 0.682654201984405518
0.812720596790313721 1.55386269092559814 0.217156410217285156
-0.79837411642074585 0.173234835267066956 0.357607066631317139
-1.82464468479156494 -1.74399411678314209 1.08100509643554688
-1.01865565776824951 -1.74233734607696533 0.501963496208190918
2.19038796424865723 -1.85572922229766846 0.343701630830764771
2.76032233238220215 1.98268246650695801 1.61891865730285645
-0.321978271007537842 -2.66145753860473633 0.303870439529418945
2.50274324417114258 -1.47941827774047852 1.051186203956604
-3.64583635330200195 -0.710490047931671143 0.783767461776733398
-0.265800029039382935 2.49832940101623535 0.416159093379974365
2.34860801696777344 -1.48460543155670166 0.428414881229400635
-2.66486454010009766 -1.46791863441467285 0.47143891453742981
1.38901090621948242 -1.54996263980865479 0.316180616617202759
0.0169238001108169556 2.72144126892089844 0.374440252780914307
1.14084076881408691 2.89746713638305664 0.166468903422355652
2.61003994941711426 0.762671411037445068 1.24282801151275635
-1.43947470188140869 0.84436875581741333 0.388628244400024414
0.387385666370391846 2.19906902313232422 0.856717109680175781
2.31245660781860352 -0.728542625904083252 0.718360364437103271
-2.40176534652709961 -1.52994775772094727 0.989591658115386963
1.50377535820007324 -2.99428319931030273 1.30485105514526367
-1.13762772083282471 -1.44612610340118408 1.37249219417572021
0.139588221907615662 3.50822782516479492 1.18293893337249756
2.31813955307006836 1.16335475444793701 0.416141301393508911
2.31586408615112305 -1.65561199188232422 0.936877727508544922
1.52332532405853271 -2.78141427040100098 1.58966314792633057
1.6713869571685791 3.14333391189575195 1.41847193241119385
-1.38885843753814697 2.69465112686157227 0.559854328632354736
1.0548323392868042 3.25970768928527832 0.914760947227478027
-0.533200740814208984 -2.68748641014099121 1.56244432926177979
1.42875790596008301 -0.680216789245605469 0.228915125131607056
-1.64064562320709229 1.84866893291473389 0.734206080436706543
-0.00599918514490127563 2.7141263484954834 0.506468892097473145
0.994967937469482422 3.35932278633117676 1.17337977886199951
-0.422380506992340088 -1.87491273880004883 0.177124440670013428
-3.45962047576904297 -0.0122028440237045288 0.487166762351989746
-3.53539896011352539 0.540126025676727295 0.626571774482727051
1.58028042316436768 0.674978435039520264 0.198754653334617615
0.950069785118103027 -0.0610484480857849121 0.263121902942657471
2.61130261421203613 2.84131598472595215 1.2122342586517334
1.49125230312347412 -3.05146503448486328 1.39381635189056396
0.254363328218460083 -3.12650418281555176 1.3866497278213501
-0.0719768330454826355 2.50486063957214355 0.607156753540039062
1.53761744499206543 1.93318271636962891 0.165313735604286194
-2.88228392601013184 1.51386487483978271 0.687201857566833496
-0.512754082679748535 -2.58814835548400879 1.57159280776977539
1.83108282089233398 -2.18251419067382812 0.336238235235214233
2.69547796249389648 1.6827470064163208 1.29642045497894287
-0.101296871900558472 -3.05085062980651855 1.2805016040802002
1.59181725978851318 -2.6396946907043457 1.29457879066467285
-2.0336759090423584 2.32316994667053223 0.71832883358001709
2.52146315574645996 1.11559295654296875 1.00032472610473633
-2.33946442604064941 0.465904653072357178 0.342515498399734497
-1.92824470996856689 -1.92306995391845703 0.780573546886444092
1.84790647029876709 3.09739279747009277 1.34740531444549561
-0.460906863212585449 -1.3291923999786377 0.402447313070297241
2.32191777229309082 1.83337366580963135 0.411296665668487549
-1.64661943912506104 1.62411105632781982 0.463267326354980469
-1.20921981334686279 -0.137189805507659912 0.439387917518615723
-2.77014827728271484 1.5165104866027832 0.741207897663116455
2.51331353187561035 0.532300174236297607 0.964336872100830078
2.54066348075866699 -0.140309944748878479 1.12801122665405273
2.4690091609954834 -1.31421947479248047 0.773381888866424561
2.72024631500244141 2.55287957191467285 0.870293378829956055
1.93927490711212158 2.93684816360473633 0.34740525484085083
2.39983844757080078 -1.5561528205871582 0.914234161376953125
0.241842001676559448 3.00362682342529297 0.331551015377044678
1.30740630626678467 -2.37737226486206055 0.980362653732299805
2.3499305248260498 2.03049588203430176 0.218448847532272339
2.71909785270690918 2.3046419620513916 1.52221918106079102
-0.0114578679203987122 -1.16896247863769531 0.317209333181381226
-1.96479690074920654 -1.14086031913757324 0.58215034008026123
2.3400413990020752 -1.2797083854675293 0.313358873128890991
2.60219764709472656 0.177374139428138733 1.24404299259185791
-1.57837820053100586 -1.93776035308837891 0.496151983737945557
-2.21103000640869141 -0.232205808162689209 0.534788370132446289
1.52231359481811523 3.37630152702331543 2.06432533264160156
-3.47001004219055176 -0.641369044780731201 1.10457384586334229
2.58545112609863281 -0.447960227727890015 1.4702688455581665
-0.11084350198507309 -2.84167623519897461 0.345112860202789307
-0.549342870712280273 -2.51627802848815918 1.55990254878997803
-3.54624128341674805 0.533007383346557617 0.606638669967651367
2.30716586112976074 -1.43430805206298828 1.35129761695861816
0.896926283836364746 3.3951878547668457 1.69636189937591553
-3.21328449249267578 -0.583657681941986084 0.616011679172515869
1.14413321018218994 1.19198393821716309 0.244720667600631714
-0.617294073104858398 -0.382337033748626709 0.43083721399307251
-3.44633793830871582 0.921539366245269775 1.17535173892974854
-0.0526685714721679688 2.59997653961181641 0.465980291366577148
1.60584187507629395 -2.58793067932128906 1.03460419178009033
2.13730549812316895 -1.92757797241210938 0.35195884108543396
-3.51853346824645996 0.156249970197677612 1.15814423561096191
2.46944189071655273 -1.17752623558044434 0.620008409023284912
-3.03834748268127441 -1.37362027168273926 1.45729100704193115
1.48345470428466797 -2.16857147216796875 1.5542370080947876
2.56660223007202148 1.13148105144500732 0.686967134475708008
-0.225873798131942749 -2.60796260833740234 1.80863142013549805
2.48379421234130859 -1.29089891910552979 1.24600064754486084
-1.8400954008102417 1.45478534698486328 0.316338598728179932
-1.03182947635650635 -1.80784511566162109 0.379592865705490112
2.41328287124633789 -1.52612900733947754 0.46934962272644043
-1.16567933559417725 -1.808205246925354 0.833644509315490723
-2.45422124862670898 1.71966242790222168 0.858466386795043945
2.64533281326293945 1.23198890686035156 1.27846682071685791
2.66679167747497559 2.91497159004211426 1.41257679462432861
-2.51072359085083008 1.53944921493530273 0.510009825229644775
-0.598482668399810791 1.44889521598815918 0.269195318222045898
-3.40850710868835449 -0.147298485040664673 0.503433406352996826
0.437209427356719971 1.41328179836273193 0.182800382375717163
-0.138898208737373352 -2.85150384902954102 0.348898231983184814
0.490992248058319092 3.33769106864929199 1.09856665134429932
2.56296133995056152 -0.217865005135536194 0.722875535488128662
-3.4084930419921875 -0.197296708822250366 0.50235903263092041
-1.48720228672027588 -1.97782325744628906 0.615230381488800049
-1.99696004390716553 2.67835450172424316 0.502475857734680176
2.71695876121520996 1.63399064540863037 1.51148080825805664
-0.436159402132034302 -2.39961624145507812 0.268364906311035156
2.54674863815307617 1.02976107597351074 1.19027268886566162
1.24414491653442383 -3.14915347099304199 0.835963904857635498
1.61151361465454102 2.38661360740661621 0.306904137134552002
0.0332119017839431763 2.52299284934997559 0.312178760766983032
-1.73454010486602783 -1.58183956146240234 1.35800135135650635
0.823145866394042969 -1.51604580879211426 0.162127673625946045
1.30419826507568359 -3.1347346305847168 1.41858971118927002
1.6637718677520752 3.2423856258392334 1.31751704216003418
-3.52554011344909668 0.515581429004669189 0.574002861976623535
0.42760777473449707 -3.17472362518310547 1.34178519248962402
1.55768871307373047 -2.83740806579589844 1.38168418407440186
0.938455462455749512 3.16057777404785156 0.192596882581710815
2.02238297462463379 0.212852925062179565 0.321462929248809814
0.949693262577056885 1.99450254440307617 0.287794798612594604
1.53051245212554932 -2.60668659210205078 1.57943844795227051
-1.25664567947387695 0.336861997842788696 0.43510553240776062
-1.78700101375579834 2.41606879234313965 0.676811516284942627
2.40879702568054199 1.77029752731323242 0.315035015344619751
2.57954216003417969 0.170799896121025085 1.3661644458770752
0.0340016409754753113 2.07789397239685059 0.676272332668304443
-1.45913481712341309 -0.54886096715927124 0.438278406858444214
-3.51548981666564941 -0.255859613418579102 0.706805944442749023
-3.47496390342712402 -0.0641732066869735718 0.540334522724151611
-2.36441946029663086 -1.43493139743804932 0.452674776315689087
-0.84938502311706543 -2.10604596138000488 0.589298605918884277
