ply
format ascii 1.0
element vertex 102
comment vertices
property float x
property float y
property float z
end_header
3.29324150085449219 1.39024972915649414 0.807069003582000732
-0.945626199245452881 3.19278478622436523 1.2553095817565918
-2.47916197776794434 1.57153260707855225 0.444474875926971436
3.09977030754089355 -0.700275063514709473 0.471023708581924438
0.0320550724864006042 3.0083918571472168 0.303268343210220337
-0.925426661968231201 -2.94492125511169434 0.258011102676391602
2.67186212539672852 1.61324429512023926 0.512706935405731201
3.27746105194091797 0.723812878131866455 1.10015082359313965
0.0559869334101676941 -2.31247138977050781 0.782800257205963135
-1.7054297924041748 -3.00921058654785156 0.683986485004425049
1.3457949161529541 2.27411460876464844 0.795489490032196045
-0.689192056655883789 3.21939516067504883 1.19887304306030273
-2.3266301155090332 2.06382203102111816 0.859007656574249268
2.54449844360351562 -1.15187299251556396 0.533799290657043457
3.19267416000366211 0.177778527140617371 0.397915005683898926
3.18038320541381836 1.7691115140914917 0.984692871570587158
-2.07721233367919922 2.39711213111877441 0.640102267265319824
1.95480179786682129 -1.12574458122253418 0.451204776763916016
-1.67392313480377197 -3.13690853118896484 1.73972034454345703
0.0118395537137985229 -2.23567438125610352 0.474054992198944092
0.451367646455764771 2.4667513370513916 0.237680807709693909
3.24613285064697266 0.337599247694015503 0.722546935081481934
-2.11203742027282715 2.31990575790405273 0.302316814661026001
-1.40211522579193115 -2.99123239517211914 0.260091155767440796
2.42154645919799805 1.58581006526947021 0.523047864437103271
3.00414419174194336 -1.01552104949951172 0.563899219036102295
3.09135079383850098 1.02500927448272705 0.852368831634521484
0.182460099458694458 2.62867927551269531 0.191008120775222778
2.55281996726989746 1.58559584617614746 0.710951805114746094
2.06137561798095703 1.74604547023773193 0.388822585344314575
1.4546886682510376 2.31104278564453125 0.927477180957794189
-2.38751316070556641 1.95859289169311523 0.431975036859512329
3.09807968139648438 -0.585135519504547119 0.964467167854309082
3.3583071231842041 -0.439458012580871582 0.549502432346343994
3.3735501766204834 -0.14669191837310791 0.83816903829574585
-1.74031877517700195 -2.91934704780578613 0.967492938041687012
0.184486597776412964 2.94589781761169434 0.574641704559326172
-1.66842889785766602 -3.03671383857727051 0.744376540184020996
-1.00858926773071289 3.19373941421508789 1.17614412307739258
2.17327451705932617 -1.3658372163772583 0.571299493312835693
0.525633573532104492 2.37336516380310059 0.285032927989959717
-0.435075491666793823 -2.8324427604675293 0.281697303056716919
2.36661624908447266 -1.22477281093597412 0.53512728214263916
0.0438690185546875 -2.33200788497924805 0.567473113536834717
3.35441899299621582 0.123382002115249634 0.492805540561676025
-2.52536749839782715 1.60760331153869629 0.556206464767456055
2.6071467399597168 1.56057071685791016 0.494635730981826782
3.35264801979064941 -0.293562054634094238 0.482277929782867432
1.79313945770263672 -1.47927093505859375 0.570957541465759277
3.14310598373413086 -0.965820431709289551 0.78506016731262207
2.41034221649169922 1.70469653606414795 0.509551823139190674
0.0820057541131973267 -2.70149493217468262 0.572522401809692383
3.17941951751708984 0.248921498656272888 0.396926701068878174
-0.879254460334777832 3.19328880310058594 1.27349162101745605
2.93978357315063477 1.65534520149230957 0.770330607891082764
-2.44297695159912109 1.60498034954071045 0.483435600996017456
0.0138014256954193115 2.56487154960632324 0.246506020426750183
3.15512561798095703 0.40951073169708252 0.624528229236602783
2.9787452220916748 -0.924271225929260254 0.471803933382034302
3.34380149841308594 0.990918755531311035 0.996623635292053223
-1.16357207298278809 3.18488407135009766 1.22650265693664551
-0.85762554407119751 3.25151300430297852 1.03602945804595947
-1.79891121387481689 -2.93670558929443359 1.07716584205627441
3.16940760612487793 -0.397506952285766602 0.817880511283874512
1.59681248664855957 -1.4849240779876709 0.556815505027770996
-2.23931097984313965 2.18026971817016602 0.439269363880157471
2.19197249412536621 1.74774718284606934 0.477254331111907959
2.71009373664855957 -1.18084371089935303 0.594534635543823242
0.110094539821147919 2.92709755897521973 0.252876341342926025
-2.45215821266174316 1.58121120929718018 0.523784160614013672
-1.93780314922332764 2.23021483421325684 0.216763198375701904
3.25807905197143555 0.0940112993121147156 0.445860803127288818
-1.65973317623138428 -2.98659586906433105 0.636048495769500732
1.61809349060058594 -0.999668598175048828 0.368525892496109009
3.33723330497741699 0.816494941711425781 0.824005782604217529
3.12445306777954102 -0.871259510517120361 0.941141188144683838
1.83213436603546143 -1.07471346855163574 0.420960694551467896
2.75984382629394531 1.56535458564758301 0.525767922401428223
0.0130425542593002319 2.87034797668457031 0.222994670271873474
2.47558736801147461 1.77199101448059082 0.804720163345336914
-0.451366066932678223 -2.77706718444824219 0.3063850998878479
3.24697327613830566 1.23796534538269043 0.688402652740478516
2.08161354064941406 -1.35123085975646973 0.493310928344726562
1.55032527446746826 2.23843979835510254 0.713490664958953857
1.1607975959777832 2.41520285606384277 0.736757040023803711
1.44781780242919922 2.19127988815307617 1.1145939826965332
2.83494353294372559 -1.23036789894104004 0.734717130661010742
3.18563055992126465 -0.567005813121795654 0.983587503433227539
0.030660673975944519 -2.28704357147216797 0.396731972694396973
0.153928428888320923 2.15096211433410645 0.192994982004165649
-1.86249935626983643 -3.0505061149597168 1.02224099636077881
0.328346431255340576 2.53008151054382324 0.181082248687744141
-2.42062640190124512 1.95730316638946533 0.387002527713775635
-2.02419662475585938 2.06109738349914551 1.21636068820953369
0.115606836974620819 2.89747858047485352 0.335870921611785889
3.15818667411804199 0.351885020732879639 0.546467900276184082
-2.2224268913269043 2.19686770439147949 0.480335742235183716
3.14840078353881836 -0.763341724872589111 0.563886940479278564
3.50675463676452637 -0.507415294647216797 0.51394343376159668
0.171074122190475464 2.7577664852142334 0.398162752389907837
-0.914019346237182617 -2.94009041786193848 0.265761822462081909
-0.000631302595138549805 2.80142712593078613 0.252238094806671143
