ply
format ascii 1.0
element vertex 158
comment vertices
property float x
property float y
property float z
end_header
-0.865674138069152832 1.14070606231689453 0.356580138206481934
0.997032642364501953 -3.12174820899963379 1.08890080451965332
0.596484124660491943 -0.691193282604217529 0.650519967079162598
-0.218329787254333496 -3.14108753204345703 0.746435642242431641
1.0207817554473877 0.21024852991104126 1.12209105491638184
0.811898589134216309 2.19354653358459473 1.40086150169372559
-1.47190761566162109 -0.360181540250778198 0.626119673252105713
0.887562096118927002 -1.26367545127868652 1.60388767719268799
1.13300943374633789 -2.4813380241394043 0.869251787662506104
-0.926841020584106445 -1.42311680316925049 0.868964552879333496
1.87595844268798828 2.02118730545043945 0.948867440223693848
-0.502195477485656738 1.71683430671691895 0.584814250469207764
0.655275702476501465 -0.691086113452911377 0.855016410350799561
0.131234034895896912 -3.20402383804321289 0.856296420097351074
-1.87447595596313477 -0.178747043013572693 1.08331489562988281
0.841823101043701172 -0.0790211856365203857 1.40817654132843018
-0.852468311786651611 1.38131141662597656 0.5619049072265625
0.671582698822021484 0.18837718665599823 0.28795391321182251
-1.01959455013275146 -0.556540250778198242 0.751277327537536621
1.03488326072692871 2.13074517250061035 1.07889795303344727
-0.848744392395019531 -1.26985669136047363 0.722185373306274414
-0.369177043437957764 1.79781901836395264 0.361452281475067139
0.98490595817565918 -1.93457555770874023 0.883947253227233887
-1.44479024410247803 0.141486674547195435 0.570244550704956055
1.06402885913848877 -0.505501270294189453 1.919777512550354
0.512715816497802734 -3.19334053993225098 0.776216089725494385
1.14812815189361572 -2.39510416984558105 1.11264574527740479
0.543508291244506836 2.16790938377380371 1.01619720458984375
-0.784919381141662598 1.07222652435302734 0.274851381778717041
0.572385907173156738 0.254469752311706543 0.523501694202423096
0.430499732494354248 -1.0041356086730957 0.833330333232879639
-1.49195575714111328 -0.143185287714004517 0.915160715579986572
0.283774435520172119 -3.07226967811584473 0.706306755542755127
0.9429665207862854 -0.896305382251739502 0.986058652400970459
-0.897066175937652588 0.237979888916015625 0.549769997596740723
1.47707486152648926 1.06621837615966797 0.763181447982788086
-1.01379477977752686 -1.23105251789093018 0.761440753936767578
-0.183309480547904968 1.7391892671585083 0.33878597617149353
0.410042405128479004 0.369420856237411499 0.546045005321502686
-0.750947296619415283 -1.54237449169158936 0.570158243179321289
-1.03754675388336182 1.23221075534820557 0.570639610290527344
0.413182258605957031 -0.206494823098182678 0.507032215595245361
0.963820159435272217 -0.171385020017623901 0.949392139911651611
1.70153772830963135 2.01388406753540039 1.04958677291870117
0.900108516216278076 0.700827479362487793 0.357437193393707275
0.241201341152191162 2.09736394882202148 1.30153453350067139
-1.00111043453216553 0.971100330352783203 0.393182605504989624
-0.0206532105803489685 -3.1968846321105957 0.728104233741760254
-0.677315235137939453 1.6077038049697876 0.48841935396194458
-1.37318527698516846 0.866688430309295654 0.715348780155181885
0.658030867576599121 -1.12288105487823486 1.10598492622375488
0.159141838550567627 -3.1692507266998291 0.744623243808746338
1.41849279403686523 2.04151344299316406 1.02241849899291992
-1.02380907535552979 -0.945556938648223877 0.675358414649963379
-0.847816526889801025 1.2966771125793457 0.453886687755584717
0.568449139595031738 -1.29911267757415771 0.936729192733764648
-1.03107786178588867 1.41219925880432129 0.502288937568664551
-1.51453733444213867 -0.330756485462188721 0.939058542251586914
-0.995229065418243408 0.755146324634552002 0.332641065120697021
1.12075614929199219 -2.35308384895324707 0.883630335330963135
-1.04344582557678223 1.39235997200012207 0.831747055053710938
1.04051840305328369 -2.82431340217590332 0.953704535961151123
0.485333681106567383 -3.22868609428405762 0.826172173023223877
-0.518389582633972168 0.240327194333076477 0.740567266941070557
1.07066047191619873 -0.666745185852050781 1.40885686874389648
-1.49260532855987549 0.0399367064237594604 0.748900294303894043
1.12013721466064453 2.09005880355834961 1.1296226978302002
-1.21133983135223389 0.594306349754333496 0.648298084735870361
1.10580277442932129 -2.66303539276123047 0.906767308712005615
0.482635617256164551 -0.170235723257064819 0.46845698356628418
0.470554769039154053 -0.727896690368652344 0.726839900016784668
0.570458590984344482 -0.163251936435699463 0.530677437782287598
0.901103615760803223 -0.989840447902679443 1.60323095321655273
-0.427771329879760742 1.82826483249664307 0.396439284086227417
0.499343514442443848 2.11375808715820312 1.13656330108642578
-0.839130043983459473 -1.38059723377227783 0.626091301441192627
1.39809024333953857 1.0180814266204834 0.551614582538604736
1.18302643299102783 2.07808923721313477 1.1137082576751709
1.04046499729156494 0.189683258533477783 1.53649771213531494
2.6530301570892334 0.95891571044921875 0.865468442440032959
0.345333576202392578 -0.780874669551849365 0.727555155754089355
-0.902673900127410889 1.38366270065307617 0.570487737655639648
-0.660243391990661621 1.57924103736877441 0.444254577159881592
0.857831001281738281 0.283236324787139893 0.672852933406829834
-1.04142308235168457 0.458318024873733521 0.477069050073623657
1.49958741664886475 1.03809225559234619 0.842748284339904785
0.852513551712036133 -0.879736542701721191 1.70476269721984863
0.526437282562255859 -0.00787401571869850159 0.743471503257751465
2.0260317325592041 1.98472476005554199 0.967973530292510986
1.69199073314666748 1.97111129760742188 1.1915290355682373
0.929018378257751465 2.1341559886932373 0.957985997200012207
0.416402041912078857 0.12296651303768158 0.399116784334182739
-1.12698888778686523 1.24057900905609131 0.486430466175079346
-1.10501182079315186 0.711569666862487793 0.46008765697479248
-1.18764948844909668 -0.832709848880767822 0.674094080924987793
-0.546819031238555908 0.340044319629669189 0.612971127033233643
1.10328114032745361 -2.25578713417053223 1.07919907569885254
-0.282991081476211548 1.69625711441040039 0.361188501119613647
0.619826078414916992 0.349844515323638916 0.457140892744064331
-0.99773097038269043 -0.883768081665039062 0.763635933399200439
-0.927139878273010254 0.0320512689650058746 0.505617916584014893
0.275975137948989868 2.06126236915588379 1.32779741287231445
1.09889495372772217 -2.61638998985290527 1.05483639240264893
0.574531614780426025 -1.13313436508178711 0.956479310989379883
-0.883467555046081543 1.18765974044799805 0.440918028354644775
1.49289655685424805 1.01128077507019043 0.864721000194549561
-1.04105472564697266 1.34307312965393066 0.794520199298858643
-1.30048370361328125 0.306620895862579346 0.704527854919433594
0.497098326683044434 -0.386735916137695312 0.667378723621368408
-0.325497567653656006 0.526899039745330811 0.381325393915176392
0.835729122161865234 -1.31027841567993164 1.06297957897186279
0.696796000003814697 -2.92368841171264648 0.79828035831451416
1.62976753711700439 1.99243044853210449 0.960061609745025635
-1.84312868118286133 -0.183140605688095093 1.08427441120147705
-0.865122199058532715 1.16151988506317139 0.346573710441589355
-1.50039052963256836 0.611143231391906738 0.823617279529571533
0.505196213722229004 -3.1854250431060791 0.764492690563201904
0.785778164863586426 -1.32328605651855469 1.59635162353515625
0.0535482577979564667 -3.15976548194885254 0.743332743644714355
0.608674168586730957 -1.43925046920776367 0.854508817195892334
0.83409196138381958 -0.445310443639755249 0.990116119384765625
-0.298360437154769897 1.75245630741119385 0.37302061915397644
-0.926699161529541016 -0.135553434491157532 0.65236741304397583
-0.769861459732055664 -1.44185101985931396 0.63788759708404541
-0.763498067855834961 1.4077610969543457 0.494067847728729248
-1.0005037784576416 1.27334356307983398 0.406972825527191162
-0.115304812788963318 1.627480149269104 0.415252566337585449
-0.897118568420410156 0.240566045045852661 0.419581353664398193
1.02565813064575195 -0.318413376808166504 1.40236306190490723
0.199360251426696777 -3.17160463333129883 0.765561103820800781
0.563514947891235352 2.17937016487121582 1.14770734310150146
-1.4530874490737915 0.0274384170770645142 0.751323223114013672
1.0186384916305542 -0.257888257503509521 1.94960474967956543
-0.507095277309417725 1.79672694206237793 0.449444890022277832
0.725005090236663818 -0.769064426422119141 0.997216224670410156
-0.998153328895568848 1.48048257827758789 0.774793148040771484
-1.09760522842407227 1.3004375696182251 0.426661908626556396
1.37258744239807129 2.04103899002075195 1.08038663864135742
-0.872134804725646973 -1.22122573852539062 0.645775258541107178
-1.27851688861846924 -0.246272623538970947 0.81027144193649292
2.81147432327270508 0.938605427742004395 0.864836513996124268
0.96577751636505127 -3.13373112678527832 0.866290450096130371
0.909148335456848145 -1.46878063678741455 1.06238079071044922
0.530015826225280762 -0.533217668533325195 0.735447406768798828
0.794716835021972656 2.21478796005249023 1.14997649192810059
1.29458034038543701 1.95259356498718262 1.12629055976867676
0.489219367504119873 -0.730375766754150391 0.686659812927246094
0.0182461664080619812 -3.16906905174255371 0.846696853637695312
0.52572941780090332 -1.06519758701324463 0.989841699600219727
-0.915315449237823486 -0.307238250970840454 0.706817328929901123
0.597762763500213623 0.298084259033203125 0.471799522638320923
-0.843200027942657471 1.41254854202270508 0.478234231472015381
0.0864886865019798279 -3.14922118186950684 0.814328014850616455
-0.310953706502914429 1.72046840190887451 0.369957268238067627
0.731379926204681396 -3.17352461814880371 0.877829611301422119
0.504906773567199707 -0.458813905715942383 0.694996893405914307
0.900986790657043457 -0.607548177242279053 0.966066896915435791
-1.38121950626373291 0.678669214248657227 0.770558297634124756
