ply
format ascii 1.0
element vertex 20
comment vertices
property float x
property float y
property float z
end_header
0.0796463936567306519 3.72592401504516602 0.701499223709106445
-1.35731756687164307 -1.78960311412811279 1.01897728443145752
-0.127498656511306763 1.26179242134094238 0.750693738460540771
0.0164335370063781738 1.0276719331741333 0.714003801345825195
-0.142022445797920227 1.11831724643707275 0.708298623561859131
0.0198084190487861633 1.03698015213012695 0.791220724582672119
-1.33660781383514404 -1.93173038959503174 1.10001289844512939
-0.0168549790978431702 1.32106685638427734 0.77411264181137085
-0.147864446043968201 1.13477051258087158 0.710695385932922363
0.0800132453441619873 3.47856616973876953 0.767109215259552002
-1.24406182765960693 -2.1043546199798584 1.19990074634552002
0.0356164425611495972 1.2421497106552124 0.553011655807495117
-1.18726122379302979 -2.08437943458557129 1.08788728713989258
-0.174016863107681274 1.20273733139038086 0.784336090087890625
-0.0193811804056167603 3.48382139205932617 0.655174851417541504
0.0140373557806015015 3.92675352096557617 0.808530032634735107
0.116831697523593903 1.17042648792266846 0.675736725330352783
-0.146667003631591797 1.10144507884979248 0.750413358211517334
-1.23218917846679688 -2.11876702308654785 1.17176699638366699
-0.127704858779907227 1.05631661415100098 0.681088447570800781
