ply
format ascii 1.0
element vertex 109
comment vertices
property float x
property float y
property float z
end_header
-3.58125662803649902 -0.0384966097772121429 0.706320226192474365
0.256848633289337158 -3.08278536796569824 1.42695820331573486
0.925574004650115967 3.18615555763244629 0.294158041477203369
-2.21569323539733887 1.38183069229125977 0.38682931661605835
-3.36991596221923828 -0.233871951699256897 0.474003851413726807
-1.54304361343383789 -2.12181973457336426 0.4915962815284729
-3.48972892761230469 -0.243883967399597168 1.22964632511138916
2.30319952964782715 -1.72228538990020752 0.656950771808624268
0.640916168689727783 -3.17011785507202148 1.38901662826538086
-3.43577694892883301 -0.501090586185455322 0.569585025310516357
1.67128133773803711 3.2088770866394043 0.900121688842773438
1.34469890594482422 -3.16384410858154297 1.36131787300109863
-2.4989926815032959 -1.53947591781616211 0.731808662414550781
-0.549352169036865234 -2.17655754089355469 0.305354177951812744
2.23290300369262695 -1.30482280254364014 0.45000690221786499
-0.00509443879127502441 2.7723698616027832 0.385843575000762939
2.29869246482849121 1.91016519069671631 0.270008981227874756
-3.56051754951477051 -0.933902502059936523 0.621562719345092773
1.43610537052154541 -3.12453651428222656 1.2520897388458252
-3.3728172779083252 0.0366338193416595459 0.482979267835617065
-3.63333606719970703 0.144257918000221252 1.0945514440536499
1.59515202045440674 3.07129549980163574 0.315421760082244873
-3.35886788368225098 -0.0701249539852142334 0.471514225006103516
-1.91745805740356445 1.41076004505157471 0.392595380544662476
1.77990150451660156 -2.15599560737609863 0.450413554906845093
-2.98157382011413574 1.49142313003540039 0.76377260684967041
2.19038796424865723 -1.85572922229766846 0.343701630830764771
-0.321978271007537842 -2.66145753860473633 0.303870439529418945
2.50274324417114258 -1.47941827774047852 1.051186203956604
0.984276652336120605 -3.16781282424926758 1.06666862964630127
0.8289451003074646 -3.19255542755126953 1.35415554046630859
-3.64583635330200195 -0.710490047931671143 0.783767461776733398
-2.63377976417541504 1.39583218097686768 0.548982858657836914
-0.625773191452026367 -2.18212676048278809 0.320685684680938721
2.34860801696777344 -1.48460543155670166 0.428414881229400635
-3.44407534599304199 -0.496531188488006592 0.490914255380630493
-3.67323923110961914 0.0723334401845932007 0.895371139049530029
-2.66486454010009766 -1.46791863441467285 0.47143891453742981
0.0169238001108169556 2.72144126892089844 0.374440252780914307
1.14084076881408691 2.89746713638305664 0.166468903422355652
-2.37567782402038574 -1.39137983322143555 0.527173519134521484
1.50377535820007324 -2.99428319931030273 1.30485105514526367
2.31586408615112305 -1.65561199188232422 0.936877727508544922
-3.59659337997436523 -0.727239131927490234 0.563467979431152344
-0.00599918514490127563 2.7141263484954834 0.506468892097473145
-3.45962047576904297 -0.0122028440237045288 0.487166762351989746
-3.53539896011352539 0.540126025676727295 0.626571774482727051
-3.39935207366943359 0.100282385945320129 0.546919107437133789
1.49125230312347412 -3.05146503448486328 1.39381635189056396
0.254363328218460083 -3.12650418281555176 1.3866497278213501
-2.33605480194091797 -1.4597163200378418 0.435369789600372314
-3.59293270111083984 0.232479974627494812 0.796150445938110352
-0.0719768330454826355 2.50486063957214355 0.607156753540039062
-2.88228392601013184 1.51386487483978271 0.687201857566833496
1.83108282089233398 -2.18251419067382812 0.336238235235214233
-1.95645034313201904 1.42891144752502441 0.353685438632965088
1.59181725978851318 -2.6396946907043457 1.29457879066467285
-2.84703612327575684 1.3481595516204834 0.587563812732696533
1.61641275882720947 3.22912478446960449 0.907709717750549316
-3.2807009220123291 0.0059677809476852417 0.458485126495361328
-3.58681750297546387 -0.446028798818588257 0.87144923210144043
-3.42339539527893066 -0.472102493047714233 0.472922801971435547
-2.77014827728271484 1.5165104866027832 0.741207897663116455
-3.38940024375915527 -0.0520491451025009155 0.482516586780548096
1.50784969329833984 3.07945513725280762 0.33479762077331543
0.96124565601348877 -3.21374058723449707 1.33469045162200928
0.15642431378364563 -3.09539222717285156 1.38189888000488281
2.4690091609954834 -1.31421947479248047 0.773381888866424561
1.93927490711212158 2.93684816360473633 0.34740525484085083
2.39983844757080078 -1.5561528205871582 0.914234161376953125
0.241842001676559448 3.00362682342529297 0.331551015377044678
2.3499305248260498 2.03049588203430176 0.218448847532272339
1.08628880977630615 -3.18284821510314941 1.31114709377288818
2.3400413990020752 -1.2797083854675293 0.313358873128890991
-3.47001004219055176 -0.641369044780731201 1.10457384586334229
-0.11084350198507309 -2.84167623519897461 0.345112860202789307
-3.54624128341674805 0.533007383346557617 0.606638669967651367
-0.0526685714721679688 2.59997653961181641 0.465980291366577148
2.13730549812316895 -1.92757797241210938 0.35195884108543396
-3.51853346824645996 0.156249970197677612 1.15814423561096191
2.46944189071655273 -1.17752623558044434 0.620008409023284912
-2.73485755920410156 -1.41882085800170898 0.635400056838989258
-1.91828644275665283 1.45389163494110107 0.405588746070861816
0.906809747219085693 -3.21062707901000977 1.32281744480133057
-1.8400954008102417 1.45478534698486328 0.316338598728179932
2.41328287124633789 -1.52612900733947754 0.46934962272644043
-2.51072359085083008 1.53944921493530273 0.510009825229644775
-3.40850710868835449 -0.147298485040664673 0.503433406352996826
-0.138898208737373352 -2.85150384902954102 0.348898231983184814
-3.4084930419921875 -0.197296708822250366 0.50235903263092041
-3.69437408447265625 0.0914621502161026001 0.914294600486755371
-0.436159402132034302 -2.39961624145507812 0.268364906311035156
-2.78136467933654785 1.52936470508575439 0.610329091548919678
0.0332119017839431763 2.52299284934997559 0.312178760766983032
-2.3989098072052002 -1.2661278247833252 0.642550349235534668
1.30419826507568359 -3.1347346305847168 1.41858971118927002
-3.52554011344909668 0.515581429004669189 0.574002861976623535
0.42760777473449707 -3.17472362518310547 1.34178519248962402
1.55768871307373047 -2.83740806579589844 1.38168418407440186
-2.49283075332641602 -1.54305315017700195 0.845154285430908203
0.938455462455749512 3.16057777404785156 0.192596882581710815
-1.78700101375579834 2.41606879234313965 0.676811516284942627
1.61248326301574707 3.06097841262817383 0.414583802223205566
-3.51548981666564941 -0.255859613418579102 0.706805944442749023
-3.47496390342712402 -0.0641732066869735718 0.540334522724151611
-2.36441946029663086 -1.43493139743804932 0.452674776315689087
-0.84938502311706543 -2.10604596138000488 0.589298605918884277
-3.54942226409912109 -0.716071248054504395 0.623116135597229004
-0.614374279975891113 -2.26496481895446777 0.303695410490036011
