ply
format ascii 1.0
element vertex 64
comment vertices
property float x
property float y
property float z
end_header
2.35776114463806152 1.78411531448364258 0.224988371133804321
-0.277320772409439087 -2.14025592803955078 0.253531992435455322
0.0259434431791305542 -2.79542970657348633 0.245817989110946655
-2.39683842658996582 1.10396552085876465 0.560581684112548828
-0.317296713590621948 -2.77700471878051758 0.265502423048019409
-2.48824167251586914 -1.44372224807739258 0.421715885400772095
-3.47019338607788086 -0.131513655185699463 0.484564006328582764
1.97860360145568848 3.01958179473876953 0.639667212963104248
2.38350725173950195 2.26914215087890625 0.207228034734725952
2.59858894348144531 -0.531261920928955078 1.58214652538299561
0.455541402101516724 -3.12782120704650879 0.0572839528322219849
0.465463906526565552 -3.19410371780395508 1.36704409122467041
0 0 0
0 0 0
0 0 0
0 0 0
0 0 0
0 0 0
0 0 0
0 0 0
0 0 0
0 0 0
0 0 0
0 0 0
0 0 0
0 0 0
0 0 0
0 0 0
0 0 0
0 0 0
0 0 0
0 0 0
0 0 0
0 0 0
0 0 0
0 0 0
0 0 0
0 0 0
0 0 0
0 0 0
0 0 0
0 0 0
0 0 0
0 0 0
0 0 0
0 0 0
0 0 0
0 0 0
0 0 0
0 0 0
0 0 0
0 0 0
0 0 0
0 0 0
0 0 0
0 0 0
0 0 0
0 0 0
0 0 0
0 0 0
0 0 0
0 0 0
0 0 0
0 0 0
