ply
format ascii 1.0
element vertex 256
comment vertices
property float x
property float y
property float z
end_header
-0.953712224960327148 -0.774039030075073242 0.369912564754486084
1.80376362800598145 3.28287029266357422 1.57051384449005127
2.62117242813110352 -1.21223664283752441 1.38273096084594727
-1.58318436145782471 2.58886003494262695 0.773981392383575439
-3.48671078681945801 -0.0409370064735412598 0.751452207565307617
0.216267228126525879 -2.97620463371276855 1.40289950370788574
1.62701845169067383 1.25167930126190186 0.15744394063949585
1.56360280513763428 -2.66335892677307129 0.869205832481384277
-3.54586362838745117 -1.25640225410461426 0.865520000457763672
0.879453659057617188 3.24923276901245117 0.468235433101654053
2.74756217002868652 1.19979798793792725 1.22095298767089844
-0.440134525299072266 -2.91379737854003906 0.617898762226104736
2.52084779739379883 -0.721271634101867676 0.459711313247680664
-2.3023688793182373 1.52923703193664551 0.381995648145675659
0.469511091709136963 3.41195774078369141 1.26448976993560791
-2.14940595626831055 -1.42515254020690918 1.40894484519958496
2.44968199729919434 2.37977194786071777 0.335798144340515137
-0.164730817079544067 1.68128228187561035 0.231459945440292358
0.652948379516601562 -1.02162516117095947 0.274721622467041016
1.49538064002990723 -2.41062688827514648 1.40067291259765625
-3.10030484199523926 -0.315198838710784912 0.529853880405426025
-3.16690707206726074 1.24981069564819336 1.1849052906036377
-1.54275321960449219 -2.06159496307373047 0.495368748903274536
-3.40000486373901367 -0.247929185628890991 1.19787216186523438
2.28037261962890625 -1.6578749418258667 0.704824984073638916
-0.605335056781768799 -1.82200896739959717 1.05240356922149658
2.61024069786071777 0.512191891670227051 1.07146573066711426
0.595301806926727295 -3.10979676246643066 1.41058027744293213
0.251318752765655518 2.52373504638671875 0.870018720626831055
1.5466763973236084 -0.0586338341236114502 0.135923758149147034
-3.32452821731567383 -0.388739645481109619 0.570487797260284424
1.63775575160980225 3.14248561859130859 0.881192922592163086
1.07883048057556152 2.42981505393981934 0.276044309139251709
-2.1888573169708252 2.12079238891601562 0.721541702747344971
2.75187444686889648 2.23935580253601074 1.25383055210113525
1.26468801498413086 -3.17339015007019043 1.43829751014709473
-2.49360561370849609 -1.60861861705780029 0.803569376468658447
-0.529455065727233887 -1.92727172374725342 0.365796476602554321
2.10145044326782227 -1.2363731861114502 0.540668964385986328
2.62248802185058594 -0.0857427120208740234 1.2206578254699707
-3.04374265670776367 1.12946689128875732 0.587817668914794922
-1.65223336219787598 1.91920876502990723 0.513766467571258545
-0.0946962535381317139 -3.0416414737701416 1.30523955821990967
0.358758091926574707 -2.41650056838989258 0.667879164218902588
-1.81707525253295898 0.122711926698684692 0.271217405796051025
-0.130638718605041504 2.92638993263244629 0.469180643558502197
2.26803684234619141 1.8778533935546875 0.311466395854949951
-3.47964620590209961 -0.852958381175994873 0.663710951805114746
2.58219766616821289 -1.02170133590698242 1.20115280151367188
1.37022793292999268 3.40646147727966309 1.82635927200317383
1.9810795783996582 -1.5358048677444458 1.41916441917419434
-3.0123748779296875 -1.15531241893768311 1.14820241928100586
1.4163963794708252 -3.2056119441986084 1.22561240196228027
-3.23781609535217285 0.130507692694664001 0.574749112129211426
-3.54025959968566895 0.174423336982727051 1.1001737117767334
1.59473824501037598 3.03403568267822266 0.281409502029418945
-3.17898011207580566 -0.0463443994522094727 0.553105652332305908
2.68940997123718262 1.53968870639801025 1.11525309085845947
0.926319003105163574 0.62127983570098877 0.282241731882095337
-1.89538145065307617 1.34146785736083984 0.404988318681716919
1.84012365341186523 -2.07007455825805664 0.572052299976348877
2.03204035758972168 2.97593164443969727 1.00186741352081299
0.5955352783203125 3.3571772575378418 0.954526901245117188
-0.643751859664916992 -2.52787184715270996 1.63558316230773926
-0.303775936365127563 -0.798586189746856689 0.283692508935928345
2.06743884086608887 2.34229588508605957 0.28057563304901123
-2.96824073791503906 1.47079944610595703 0.794966459274291992
2.30765962600708008 0.420951306819915771 0.452370941638946533
-2.18731927871704102 1.7272341251373291 0.682882010936737061
0.76993870735168457 1.53355908393859863 0.2301434725522995
-2.13548779487609863 -1.04924905300140381 0.517302155494689941
-0.860663115978240967 0.160223335027694702 0.362035155296325684
-1.84752786159515381 -1.68124067783355713 1.08760428428649902
-1.0392763614654541 -1.61634981632232666 0.552276074886322021
2.28406381607055664 -1.85899567604064941 0.315988063812255859
2.7608182430267334 1.9725801944732666 1.48347902297973633
-0.23032747209072113 -2.52914524078369141 0.400184392929077148
2.5067753791809082 -1.49028229713439941 1.01278567314147949
0.928194940090179443 -3.13797736167907715 1.03673720359802246
0.774913907051086426 -3.17985057830810547 1.41341674327850342
-3.56107640266418457 -0.67382282018661499 0.799573957920074463
-2.58978700637817383 1.4194643497467041 0.557817399501800537
-0.311792582273483276 2.38433670997619629 0.472197651863098145
-0.665315210819244385 -2.23686838150024414 0.48164677619934082
2.35121703147888184 -1.47047567367553711 0.50253605842590332
-3.33079957962036133 -0.413139283657073975 0.446082055568695068
-3.60354375839233398 0.12043684720993042 0.92476189136505127
-2.70322585105895996 -1.35503268241882324 0.534861445426940918
1.33828437328338623 -1.57305371761322021 0.283854573965072632
2.61078095436096191 -0.234903544187545776 1.14821267127990723
0.247348174452781677 2.67222452163696289 0.478677511215209961
1.12615728378295898 2.79876613616943359 0.366639256477355957
2.70909810066223145 0.737953305244445801 1.05195415019989014
-1.46729481220245361 0.814423799514770508 0.38831484317779541
0.16003061830997467 -3.10121679306030273 0.892466247081756592
0.824686646461486816 -2.86589312553405762 1.55848574638366699
0.392843008041381836 2.14670538902282715 0.779635846614837646
2.29865241050720215 -0.700958192348480225 0.713734924793243408
-2.35904550552368164 -1.60773086547851562 0.997819066047668457
-2.2191622257232666 -1.22220015525817871 0.704726815223693848
1.48297774791717529 -3.1220400333404541 1.24426174163818359
-1.10188794136047363 -1.46646606922149658 1.31978225708007812
0.151264980435371399 3.49355125427246094 1.04308962821960449
2.3243255615234375 1.13115990161895752 0.37128293514251709
2.23209643363952637 -1.59935760498046875 0.898284077644348145
1.5290902853012085 -2.78212952613830566 1.52197527885437012
1.51507019996643066 3.08773922920227051 1.4381786584854126
-1.40762662887573242 2.73631381988525391 0.557115077972412109
1.11312735080718994 3.24518084526062012 0.850826621055603027
-3.54475259780883789 -0.643257379531860352 0.557626605033874512
-0.507821917533874512 -2.73675417900085449 1.37441802024841309
1.38156664371490479 -0.701136648654937744 0.225500807166099548
-1.57610416412353516 1.77367258071899414 0.613421797752380371
0.0963199585676193237 2.72539019584655762 0.594254195690155029
1.01235282421112061 3.33984088897705078 1.17450761795043945
-0.365269243717193604 -1.86770248413085938 0.193657398223876953
2.58692121505737305 2.16506600379943848 0.758675813674926758
-3.47059988975524902 0.0864571630954742432 0.453062117099761963
-3.46561312675476074 0.574637770652770996 0.578269302845001221
1.53706514835357666 0.63519752025604248 0.170706212520599365
-3.26556777954101562 0.287384271621704102 0.552442789077758789
0.924324870109558105 -0.12141929566860199 0.192115858197212219
2.69953775405883789 2.82568454742431641 1.07585525512695312
1.4712454080581665 -3.07113766670227051 1.39058911800384521
0.215626031160354614 -3.12550139427185059 1.31279969215393066
-2.11401200294494629 -1.60376846790313721 0.592698514461517334
-3.48764705657958984 0.298918962478637695 0.803964614868164062
-0.122015789151191711 2.45318460464477539 0.73060917854309082
1.50715494155883789 1.91728830337524414 0.173082873225212097
-2.90481734275817871 1.58025872707366943 0.658114194869995117
-0.449178606271743774 -2.57331514358520508 1.37887740135192871
2.59689164161682129 -0.696279585361480713 1.29605507850646973
1.77026081085205078 -2.08156871795654297 0.41274869441986084
-2.03850197792053223 1.38900458812713623 0.399651587009429932
2.7240443229675293 1.65403330326080322 1.09122753143310547
2.08189225196838379 2.61483669281005859 0.484995067119598389
-0.128474295139312744 -3.0068206787109375 1.16488027572631836
1.53691267967224121 -2.66334366798400879 1.18843364715576172
-2.65592122077941895 -1.0063483715057373 0.792219698429107666
-2.03889131546020508 2.29052138328552246 0.691904425621032715
-0.696539938449859619 -2.57421422004699707 0.457146257162094116
2.60678505897521973 1.05737805366516113 0.837534666061401367
-2.82781314849853516 1.25815320014953613 0.492568910121917725
-2.3780367374420166 0.457170963287353516 0.381121665239334106
1.58327066898345947 3.23367428779602051 0.876141667366027832
-2.99548602104187012 0.166244745254516602 0.524696528911590576
-3.44416427612304688 -0.39180445671081543 0.913342714309692383
-1.95365285873413086 -1.76709604263305664 0.845654547214508057
1.79882073402404785 2.98956155776977539 1.31490576267242432
-0.507036089897155762 -1.35883784294128418 0.401460975408554077
2.4193272590637207 1.84549391269683838 0.507997989654541016
-1.58772432804107666 1.57249677181243896 0.374452412128448486
-3.30444431304931641 -0.417492210865020752 0.436883270740509033
-1.26279807090759277 -0.174849927425384521 0.426076889038085938
-2.73841452598571777 1.4914400577545166 0.889336347579956055
2.00107622146606445 1.81833541393280029 0.187257543206214905
2.54906821250915527 0.493131339550018311 0.80364227294921875
2.55933976173400879 -0.159381777048110962 0.976292312145233154
-3.24261903762817383 0.134078562259674072 0.530738115310668945
1.45935940742492676 2.97841501235961914 0.420536577701568604
0.936433911323547363 -3.17217206954956055 1.39669716358184814
0.114326000213623047 -3.07823657989501953 1.3591148853302002
2.62917208671569824 -1.2017892599105835 0.762008070945739746
2.61342215538024902 2.50560235977172852 0.850500047206878662
2.03791046142578125 2.84482955932617188 0.543781042098999023
2.36239933967590332 -1.58474302291870117 0.784431576728820801
0.394490987062454224 3.01793408393859863 0.458174169063568115
1.28200399875640869 -2.4096684455871582 0.932597577571868896
2.31224751472473145 2.1007838249206543 0.261726319789886475
1.02882444858551025 -3.11316800117492676 1.33266544342041016
2.7368156909942627 2.31976628303527832 1.36123847961425781
-0.0515241026878356934 -1.2000654935836792 0.308292359113693237
-1.9156564474105835 -1.22887372970581055 0.566465377807617188
2.31408810615539551 -1.26802945137023926 0.348298788070678711
2.64900088310241699 0.156258046627044678 1.08482956886291504
-1.6287916898727417 -1.82079505920410156 0.446381211280822754
-2.24994373321533203 -0.27978178858757019 0.496778666973114014
1.57493484020233154 3.36690783500671387 1.95545530319213867
-3.42512345314025879 -0.630182623863220215 1.11118948459625244
2.5899200439453125 -0.429749429225921631 1.3794625997543335
-0.20749218761920929 -2.85946249961853027 0.276932656764984131
-0.556755244731903076 -2.47943902015686035 1.41427016258239746
-3.49248194694519043 0.550226032733917236 0.485860109329223633
2.30396890640258789 -1.40907514095306396 1.28655242919921875
0.941062808036804199 3.39276814460754395 1.56706333160400391
-3.05270123481750488 -0.550270915031433105 0.678156018257141113
1.09874951839447021 1.14661216735839844 0.220251008868217468
-0.649952113628387451 -0.439662307500839233 0.400793492794036865
-3.39806008338928223 0.904056727886199951 1.15600013732910156
-0.0326421037316322327 2.5093538761138916 0.458789288997650146
1.60603964328765869 -2.62729167938232422 0.935692548751831055
2.11748409271240234 -1.91096878051757812 0.431161105632781982
-3.40600442886352539 0.172054454684257507 1.15195131301879883
2.49846172332763672 -1.0251319408416748 0.729980528354644775
-2.73261427879333496 -1.36761438846588135 0.740859925746917725
-3.01279115676879883 -1.38073015213012695 1.40307164192199707
-1.93195796012878418 1.42760705947875977 0.493059754371643066
1.50731825828552246 -2.18101072311401367 1.44148635864257812
2.64098548889160156 -0.402673691511154175 1.0904463529586792
2.59181332588195801 1.11626780033111572 0.584436476230621338
0.855453431606292725 -3.1799309253692627 1.40177822113037109
-0.179878726601600647 -2.61991667747497559 1.68294596672058105
2.52674412727355957 -1.29966151714324951 1.15794503688812256
-1.85703361034393311 1.46565353870391846 0.232786461710929871
-1.0295795202255249 -1.80637705326080322 0.455407023429870605
0.459153592586517334 -3.25112342834472656 0.584625780582427979
2.58461260795593262 -1.50327467918395996 0.560652613639831543
-1.14791512489318848 -1.68880033493041992 0.852300643920898438
-2.43604135513305664 1.71972835063934326 0.858298540115356445
2.70525598526000977 1.20646858215332031 1.09903979301452637
2.61672329902648926 2.91040253639221191 1.32240962982177734
-2.57327008247375488 1.7464900016784668 0.510209262371063232
-0.640365302562713623 1.42522048950195312 0.276943892240524292
-3.25440239906311035 -0.0180715620517730713 0.604866981506347656
0.379368990659713745 1.38238120079040527 0.198097556829452515
0.0466650277376174927 -2.82895660400390625 0.44256967306137085
0.470297396183013916 3.42485237121582031 1.00342142581939697
2.57709407806396484 -0.257087200880050659 0.62286221981048584
-3.42610263824462891 -0.186767309904098511 0.486382663249969482
-1.47170674800872803 -1.84584903717041016 0.716663122177124023
-3.63079285621643066 0.149942189455032349 0.930759072303771973
-1.98553299903869629 2.57967710494995117 0.451433718204498291
2.75529050827026367 1.60133981704711914 1.35737180709838867
-0.405405402183532715 -2.38445520401000977 0.24701593816280365
2.65860605239868164 0.971847176551818848 0.975861549377441406
-2.73330450057983398 1.58715295791625977 0.600571811199188232
1.20870327949523926 -3.12633585929870605 0.845258831977844238
1.56941676139831543 2.35405373573303223 0.297249853610992432
0.160148099064826965 2.4793555736541748 0.358835577964782715
-1.73603641986846924 -1.58696353435516357 1.33745169639587402
0.771001935005187988 -1.5409247875213623 0.173875391483306885
-2.37957668304443359 -1.08174026012420654 0.649810194969177246
1.27404272556304932 -3.18097066879272461 1.47494029998779297
1.55119490623474121 3.22753405570983887 1.35163736343383789
-3.49757003784179688 0.493283450603485107 0.433455169200897217
0.299479782581329346 -2.73421788215637207 1.5375669002532959
0.39754951000213623 -3.13447880744934082 1.33548450469970703
1.51873934268951416 -2.86870932579040527 1.32007312774658203
-2.39140629768371582 -1.67649376392364502 0.843568146228790283
0.8390159010887146 3.07221341133117676 0.344889044761657715
1.97380185127258301 0.17707410454750061 0.302243262529373169
0.932117938995361328 1.96102714538574219 0.286815017461776733
1.47756946086883545 -2.52248358726501465 1.44707703590393066
-1.31489467620849609 0.298944026231765747 0.438370466232299805
-1.79931676387786865 2.24606871604919434 0.667440474033355713
2.47592997550964355 1.79778218269348145 0.421445846557617188
2.62703108787536621 0.176042824983596802 1.27988183498382568
0.0544198751449584961 2.04797029495239258 0.594111382961273193
-1.48811590671539307 -0.588297903537750244 0.430255591869354248
1.68645608425140381 2.9750206470489502 0.517245113849639893
-3.45819401741027832 -0.175832971930503845 0.710235238075256348
-3.33345818519592285 0.0920765697956085205 0.540691256523132324
-2.31075477600097656 -1.39846146106719971 0.617775619029998779
-0.864765584468841553 -2.12438011169433594 0.653659582138061523
-3.44431710243225098 -0.598354458808898926 0.644310712814331055
-0.552522420883178711 -2.23060846328735352 0.464709669351577759
