ply
format ascii 1.0
element vertex 256
comment vertices
property float x
property float y
property float z
end_header
-0.713588893413543701 1.10051882266998291 0.469545423984527588
0.949033498764038086 -3.11431384086608887 1.10375547409057617
3.36866307258605957 0.963256239891052246 0.728676736354827881
-1.67194104194641113 -1.45775878429412842 1.35928213596343994
1.06555068492889404 -0.418153226375579834 2.33727431297302246
0.639778077602386475 -0.76984560489654541 0.542544186115264893
1.31413328647613525 2.37930727005004883 0.936962604522705078
-0.282525777816772461 -3.07097363471984863 0.728796184062957764
0.941764652729034424 0.249110087752342224 1.03248405456542969
0.719164133071899414 2.20597314834594727 1.40788078308105469
-1.5717310905456543 -0.360165655612945557 0.533356726169586182
-1.6049964427947998 -0.0300798565149307251 1.43488645553588867
1.01860857009887695 -1.32225823402404785 1.49507737159729004
1.00681173801422119 -2.48251795768737793 0.758161723613739014
3.07065844535827637 2.24198460578918457 0.672863423824310303
-0.552865386009216309 1.65971386432647705 1.54554247856140137
-0.973032236099243164 -1.5494225025177002 0.865961730480194092
0.490769356489181519 1.63410663604736328 0.565302848815917969
-0.283499628305435181 0.360860615968704224 1.18737363815307617
-1.38311970233917236 1.94128692150115967 1.14069771766662598
1.85277998447418213 2.01016044616699219 0.945081174373626709
-0.4966469407081604 1.70805943012237549 0.733416199684143066
-0.537368953227996826 0.193883642554283142 0.400199264287948608
2.19061374664306641 0.975743770599365234 1.17232894897460938
0.631191015243530273 -0.737610399723052979 0.798010885715484619
0.0265312939882278442 -3.1330721378326416 0.859282433986663818
-1.88570475578308105 -0.346963614225387573 1.05120515823364258
0.794535517692565918 -0.108245372772216797 1.361319899559021
-0.894861400127410889 -2.3580925464630127 1.14676499366760254
-0.746147215366363525 1.33197247982025146 0.656938672065734863
0.758901596069335938 0.167000755667686462 0.235391572117805481
0.47885558009147644 -1.86966347694396973 0.698672711849212646
-1.58936488628387451 0.949124813079833984 1.03040623664855957
-1.04551982879638672 -0.556899964809417725 0.656695783138275146
0.964850783348083496 2.09569001197814941 1.085396409034729
-0.785980463027954102 -1.23196780681610107 0.600497603416442871
-0.361306905746459961 1.77941906452178955 0.37787550687789917
0.688129961490631104 -2.01119518280029297 1.57927966117858887
0.903065919876098633 -1.9760204553604126 0.793373346328735352
-1.58981060981750488 0.241612255573272705 0.476506531238555908
1.08173024654388428 -0.555353879928588867 1.83566176891326904
1.10040748119354248 -1.26176011562347412 2.40115118026733398
-1.7739715576171875 -1.1121753454208374 1.26180100440979004
0.519775509834289551 -3.19943666458129883 0.77743220329284668
1.10687339305877686 -2.45617032051086426 1.04289829730987549
2.96742630004882812 1.03226041793823242 0.68447035551071167
1.46199488639831543 1.68099665641784668 0.882506012916564941
-0.775979757308959961 2.00749945640563965 1.05942690372467041
0.505181610584259033 2.17569780349731445 0.942857503890991211
1.03861749172210693 0.752860903739929199 1.11963272094726562
-0.610279083251953125 1.31636941432952881 0.956446468830108643
2.2159426212310791 1.93342387676239014 1.00019717216491699
-0.465964227914810181 0.986687302589416504 0.383263140916824341
-0.115648083388805389 1.71432948112487793 1.37312161922454834
0.468867629766464233 0.321158885955810547 0.589167535305023193
0.474123716354370117 -1.07205414772033691 0.751154184341430664
-1.53851735591888428 -0.0449867397546768188 0.858789741992950439
-1.75222980976104736 0.806943893432617188 1.58179020881652832
0.214707925915718079 -2.92232108116149902 0.653312206268310547
0.949962079524993896 -0.956956088542938232 0.943492472171783447
-0.864516973495483398 0.293973684310913086 0.577195644378662109
1.45844662189483643 1.05350875854492188 0.824730753898620605
-1.08746469020843506 -1.28810775279998779 0.786269843578338623
-0.122038207948207855 1.61408686637878418 0.466081917285919189
0.289849698543548584 0.5447196364402771 0.631019353866577148
-1.08556687831878662 -1.77319002151489258 1.18783295154571533
-0.659843921661376953 -1.53223085403442383 0.57031702995300293
0.804156601428985596 -1.00084173679351807 1.87820529937744141
-0.943913161754608154 1.12309622764587402 0.643281698226928711
0.251439511775970459 -0.270679771900177002 0.511422812938690186
0.973406434059143066 -0.174438074231147766 0.834613800048828125
1.65688574314117432 2.06398773193359375 1.12472820281982422
0.859240531921386719 0.658418715000152588 0.454044103622436523
-1.85719442367553711 -0.604132294654846191 1.24376296997070312
0.230609998106956482 2.02909207344055176 1.24506425857543945
2.885406494140625 0.704678893089294434 0.811873793601989746
-0.923887014389038086 0.827076196670532227 0.484295517206192017
1.11310040950775146 -0.134924471378326416 2.4767003059387207
0.933492302894592285 -1.25606119632720947 0.663583219051361084
1.08532869815826416 -0.0762458592653274536 1.72290992736816406
-0.091846078634262085 -3.20653724670410156 0.645806431770324707
2.82471871376037598 1.51702260971069336 0.747119307518005371
-0.642253339290618896 1.67707836627960205 0.525132060050964355
-1.38886475563049316 0.807315409183502197 0.708783626556396484
-0.282617658376693726 -1.95247209072113037 0.783532559871673584
-1.45547807216644287 -1.03501629829406738 0.607030868530273438
0.670881032943725586 -1.07314836978912354 1.1525273323059082
0.830821573734283447 -3.15635442733764648 0.680483102798461914
-0.0394129864871501923 2.10596156120300293 0.399951428174972534
0.072862282395362854 -3.10596013069152832 0.740439653396606445
1.37132775783538818 2.0303955078125 1.06237697601318359
-1.03491520881652832 -0.862107276916503906 0.57002413272857666
-0.705498337745666504 1.2468416690826416 0.495662808418273926
0.689666867256164551 -1.30675959587097168 0.871503114700317383
-0.987338244915008545 1.42518520355224609 0.520568728446960449
1.02434062957763672 -1.75859582424163818 1.28271317481994629
-1.53478765487670898 -0.444946259260177612 0.964010059833526611
-1.07338511943817139 0.734608232975006104 0.35739096999168396
-0.55450439453125 2.11108779907226562 1.20368432998657227
1.09691154956817627 -0.768844783306121826 2.27581930160522461
0.638891994953155518 -1.57555091381072998 1.78302192687988281
0.312506139278411865 -1.00348889827728271 0.415629297494888306
1.2700660228729248 0.804697990417480469 0.882478535175323486
1.08299827575683594 -2.2855684757232666 0.819025516510009766
-0.929944455623626709 1.34950125217437744 0.830653905868530273
0.704195022583007812 -0.221862837672233582 2.08758664131164551
0.926799297332763672 -2.85400748252868652 0.894391238689422607
-1.69004356861114502 0.476411998271942139 1.18923032283782959
0.4346943199634552 -3.17407321929931641 0.855478525161743164
-0.923175632953643799 -2.06509828567504883 1.28958261013031006
-0.430131375789642334 0.254076451063156128 0.74977719783782959
1.00361359119415283 -0.68280339241027832 1.35753953456878662
-1.61355006694793701 0.14025530219078064 0.639698386192321777
1.03503847122192383 2.18780708312988281 1.1606743335723877
0.687877893447875977 -2.21430420875549316 0.884471654891967773
-1.74989128112792969 -1.21387386322021484 1.41307592391967773
-1.81796061992645264 -0.109030589461326599 1.33703279495239258
0.939864516258239746 1.78134214878082275 0.979436278343200684
1.06855285167694092 -1.2034001350402832 0.7398223876953125
-1.30062079429626465 0.499290406703948975 0.552732586860656738
1.02046394348144531 -2.66067838668823242 0.774403214454650879
0.459101080894470215 -0.211673825979232788 0.414067596197128296
0.415776252746582031 -0.807588636875152588 0.718696653842926025
0.64902341365814209 -0.211330503225326538 0.494526922702789307
0.913524985313415527 -1.0377269983291626 1.44322443008422852
-0.511886954307556152 1.98306429386138916 0.457632362842559814
0.454676210880279541 2.08558177947998047 1.11091983318328857
-1.15079116821289062 -1.9361262321472168 1.15979301929473877
-0.84492570161819458 -1.37353634834289551 0.503595888614654541
1.28738307952880859 1.12454140186309814 0.582260012626647949
1.08457744121551514 2.1360621452331543 1.14222264289855957
0.534303724765777588 -0.284183263778686523 1.39502573013305664
1.12963652610778809 -1.56007993221282959 1.90625953674316406
1.12934315204620361 0.136829197406768799 1.47671937942504883
2.6324455738067627 0.947076797485351562 0.816043734550476074
0.263535559177398682 -0.903122782707214355 0.539916157722473145
-0.91266334056854248 1.41129505634307861 0.601048111915588379
1.08343398571014404 -0.346563160419464111 2.45622014999389648
-0.58294910192489624 1.59801852703094482 0.490436017513275146
0.775469839572906494 0.265324562788009644 0.661706686019897461
1.9251258373260498 1.43453836441040039 0.986517131328582764
2.39738941192626953 2.32808518409729004 0.795414745807647705
-0.921342074871063232 0.447079628705978394 0.435841798782348633
0.986811995506286621 1.15438413619995117 0.668724000453948975
1.48426127433776855 1.00558805465698242 0.958382368087768555
1.88632786273956299 2.38493466377258301 0.753557801246643066
0.808726012706756592 -0.906129956245422363 1.57491707801818848
-1.6066744327545166 1.11162471771240234 1.32611000537872314
0.611110210418701172 -0.0136789008975028992 0.734794020652770996
0.728888392448425293 -0.944787383079528809 1.9306328296661377
2.03979659080505371 2.00821971893310547 0.974912166595458984
-1.75329172611236572 0.401533842086791992 1.55817413330078125
1.66305351257324219 1.96057486534118652 1.24881148338317871
1.06603777408599854 -1.34325385093688965 1.85763227939605713
0.876648187637329102 2.11948442459106445 0.903546273708343506
0.390707254409790039 0.164162039756774902 0.439734846353530884
0.662760674953460693 -0.113963156938552856 1.25538337230682373
-1.03075695037841797 1.13212478160858154 0.562515079975128174
-1.12762975692749023 0.724929630756378174 0.489755809307098389
0.540744781494140625 -1.99011588096618652 1.17081344127655029
3.24651217460632324 0.905401229858398438 0.770305633544921875
-1.28555977344512939 -0.827496528625488281 0.710838675498962402
-0.521024823188781738 -0.773826897144317627 0.618242263793945312
0.021459922194480896 -2.6423494815826416 0.871470928192138672
-0.450923562049865723 0.29008638858795166 0.557756423950195312
0.936120808124542236 -2.22855472564697266 0.971564412117004395
-0.278099298477172852 1.72705078125 0.439137727022171021
0.606354236602783203 0.415415972471237183 0.439604133367538452
-0.747358143329620361 1.97688984870910645 0.952641904354095459
-0.944172263145446777 -0.859831809997558594 0.644539237022399902
-0.821263551712036133 0.0590144321322441101 0.490682929754257202
0.936284661293029785 -1.82905864715576172 0.623406350612640381
0.28011399507522583 2.08867502212524414 1.31558096408843994
-1.04949808120727539 2.07408261299133301 1.11068224906921387
1.06160759925842285 -2.69637560844421387 0.993883132934570312
0.679194331169128418 -1.20586657524108887 0.922694563865661621
-0.714662790298461914 1.16574633121490479 0.61051023006439209
1.50385689735412598 0.966973602771759033 0.987605690956115723
-0.213779881596565247 1.78924119472503662 1.43981528282165527
1.14348399639129639 0.386366724967956543 1.37565124034881592
-1.0410313606262207 1.31067633628845215 0.813369631767272949
-1.26260006427764893 0.261853903532028198 0.733157455921173096
0.602495670318603516 0.820906162261962891 0.398406893014907837
0.523988842964172363 -0.379077434539794922 0.598552227020263672
-0.605170071125030518 -1.69142246246337891 0.784600257873535156
-0.312475293874740601 0.527883708477020264 0.383029133081436157
-0.184373095631599426 2.09145951271057129 1.35223782062530518
0.863064110279083252 -1.37336575984954834 1.03967595100402832
0.626594185829162598 -2.83784699440002441 0.822438836097717285
0.382360279560089111 1.17475795745849609 0.626098036766052246
1.56265604496002197 2.08487939834594727 0.945186853408813477
-1.92228007316589355 -0.188741415739059448 1.02569484710693359
-0.574350655078887939 0.364091396331787109 1.22227561473846436
-0.730315029621124268 1.01109933853149414 0.381508499383926392
-1.68366169929504395 0.61232370138168335 0.814674079418182373
0.511553525924682617 -3.18327808380126953 0.746005773544311523
-0.796723604202270508 1.69428575038909912 1.63982594013214111
1.07979273796081543 -0.196750670671463013 2.36247920989990234
0.787448346614837646 -1.37859165668487549 1.51573443412780762
-0.0049796178936958313 -3.11688947677612305 0.680351138114929199
-1.20678114891052246 -1.74262070655822754 1.00191187858581543
0.655370473861694336 -1.49448180198669434 0.788135826587677002
0.75210493803024292 -0.448870956897735596 0.952185988426208496
-0.338153243064880371 1.67973995208740234 0.472056448459625244
-1.05913710594177246 -0.104827336966991425 0.632623970508575439
1.05670344829559326 -1.69526195526123047 1.63202166557312012
-0.635203719139099121 -1.43047034740447998 0.584869682788848877
-0.519014596939086914 1.35457968711853027 0.545662581920623779
-0.979865074157714844 1.25269961357116699 0.465522855520248413
0.0417808443307876587 1.69668114185333252 0.385358750820159912
3.06187152862548828 1.78995227813720703 0.982137203216552734
-1.0907142162322998 0.190251603722572327 0.331853508949279785
0.978188753128051758 -1.16035366058349609 1.81797409057617188
1.0203622579574585 -0.317812561988830566 1.36144566535949707
-1.70904099941253662 -1.12900590896606445 1.43153154850006104
0.122749865055084229 -3.11260056495666504 0.768821597099304199
0.542389988899230957 2.2669980525970459 1.11490631103515625
-1.53500688076019287 0.119912207126617432 0.633522868156433105
1.10075068473815918 0.0885570347309112549 2.17978858947753906
2.43907737731933594 1.59453475475311279 0.779072940349578857
1.01800847053527832 -0.31099390983581543 1.8949272632598877
-0.549849569797515869 1.83450782299041748 0.431976169347763062
0.65920412540435791 -0.820465266704559326 0.963550388813018799
-0.759184181690216064 -2.01465511322021484 1.19955074787139893
-0.351824730634689331 -1.52954196929931641 0.52336728572845459
-0.84348607063293457 -2.00392937660217285 1.08657097816467285
-0.97507709264755249 1.55566108226776123 0.767520427703857422
-1.07634973526000977 1.17868947982788086 0.441634923219680786
1.33380699157714844 2.06324601173400879 1.1555638313293457
2.65099143981933594 1.9631420373916626 1.01832342147827148
-0.898797333240509033 -1.13731670379638672 0.535068333148956299
-1.31626284122467041 -0.28158259391784668 0.773159384727478027
2.80478715896606445 0.93954622745513916 0.802447497844696045
-0.954045414924621582 1.09786522388458252 0.992176353931427002
0.901103019714355469 -3.13485932350158691 0.828911304473876953
0.953718423843383789 -1.51414835453033447 1.09480071067810059
0.455500125885009766 -0.54017871618270874 0.607513964176177979
0.713988780975341797 2.39454102516174316 1.14957773685455322
1.23238682746887207 1.86963486671447754 1.24126970767974854
0.628873944282531738 -0.886645853519439697 0.555870711803436279
-0.123394109308719635 0.411559641361236572 0.340422928333282471
-0.0782880485057830811 -3.1273646354675293 0.848651409149169922
0.456605464220046997 -1.09222185611724854 0.947751939296722412
-0.85982358455657959 -0.275623232126235962 0.604966044425964355
0.665397465229034424 0.294339299201965332 0.482002586126327515
-0.698857367038726807 1.41872715950012207 0.509354114532470703
-1.85109519958496094 0.852268517017364502 1.37886309623718262
-1.8678818941116333 -0.924409389495849609 1.4088597297668457
-0.0143662393093109131 -3.06914901733398438 0.795035600662231445
-0.322853147983551025 1.82063186168670654 0.462265431880950928
0.440649151802062988 -2.26272392272949219 0.756630480289459229
0.625368356704711914 -3.10442233085632324 0.926593542098999023
0.597837269306182861 -0.422480285167694092 0.59493023157119751
0.948875308036804199 -0.654909491539001465 0.893146634101867676
0.688521444797515869 -1.78506720066070557 1.50264275074005127
-1.39630734920501709 0.657571852207183838 0.811166107654571533
