ply
format ascii 1.0
element vertex 34
comment vertices
property float x
property float y
property float z
end_header
0.548016846179962158 -0.6681022047996521 0.651941597461700439
-0.945707023143768311 1.08245766162872314 0.290921241044998169
0.0144808031618595123 -3.19665932655334473 0.900299429893493652
-0.673604130744934082 1.62405061721801758 0.485413312911987305
3.47336411476135254 1.79223346710205078 0.966895461082458496
-0.941048800945281982 -0.999957501888275146 0.791683793067932129
-0.83040386438369751 -2.07046198844909668 0.640126407146453857
0.0662454888224601746 1.85258829593658447 0.294436633586883545
3.38527655601501465 1.68351781368255615 1.08277046680450439
-0.900211691856384277 -0.737631499767303467 0.525248467922210693
2.93669295310974121 2.55490756034851074 0.557970523834228516
-0.314483344554901123 0.854910671710968018 0.570115983486175537
3.23071193695068359 1.71100592613220215 1.05957770347595215
0.180766835808753967 -3.16253829002380371 0.77967303991317749
-0.88976365327835083 -0.710695564746856689 0.47752082347869873
-0.907560646533966064 1.21249020099639893 0.334598422050476074
0.693278372287750244 -0.895659148693084717 0.767332971096038818
-1.16970062255859375 1.24691247940063477 0.317088156938552856
3.06869125366210938 2.42017745971679688 0.687495648860931396
0.0212130732834339142 1.79535412788391113 0.266625523567199707
0.540397703647613525 -0.846908688545227051 0.695907652378082275
-1.03325009346008301 1.07724130153656006 0.341863274574279785
3.41456508636474609 1.51863539218902588 0.975675106048583984
2.99326872825622559 2.42679977416992188 0.720151007175445557
-0.938543558120727539 0.593178331851959229 0.355758637189865112
3.00289273262023926 2.43304228782653809 0.808421969413757324
-0.631879746913909912 1.63372421264648438 0.456195473670959473
-0.817274928092956543 -2.10453557968139648 0.464659810066223145
-0.879350125789642334 1.22477626800537109 0.339658677577972412
-0.881887972354888916 -0.563802838325500488 0.538764536380767822
3.43457555770874023 1.85480451583862305 1.09968268871307373
0.311582207679748535 -3.15062785148620605 0.754190683364868164
3.48002266883850098 1.64085280895233154 0.90475165843963623
0.324009954929351807 -3.1743931770324707 0.758862555027008057
