ply
format ascii 1.0
element vertex 64
comment vertices
property float x
property float y
property float z
end_header
3.48649406433105469 0.242382913827896118 0.483582556247711182
-0.503715038299560547 3.25293231010437012 1.2598869800567627
2.58820581436157227 -0.994523465633392334 0.577323734760284424
-1.91164970397949219 -2.88811016082763672 0.705024957656860352
-2.55324745178222656 0.690931499004364014 1.59045517444610596
-2.34360170364379883 -2.16591119766235352 0.254317998886108398
-2.32046794891357422 -1.68804550170898438 0.261384367942810059
-0.464953720569610596 3.22126102447509766 0.0318898260593414307
0.280876994132995605 2.88433837890625 0.249586597084999084
-0.0529239475727081299 2.9058692455291748 0.230641484260559082
0.255379676818847656 2.25156307220458984 0.249325871467590332
2.60432815551757812 1.62303996086120605 0.420256316661834717
0 0 0
0 0 0
0 0 0
0 0 0
0 0 0
0 0 0
0 0 0
0 0 0
0 0 0
0 0 0
0 0 0
0 0 0
0 0 0
0 0 0
0 0 0
0 0 0
0 0 0
0 0 0
0 0 0
0 0 0
0 0 0
0 0 0
0 0 0
0 0 0
0 0 0
0 0 0
0 0 0
0 0 0
0 0 0
0 0 0
0 0 0
0 0 0
0 0 0
0 0 0
0 0 0
0 0 0
0 0 0
0 0 0
0 0 0
0 0 0
0 0 0
0 0 0
0 0 0
0 0 0
0 0 0
0 0 0
0 0 0
0 0 0
0 0 0
0 0 0
0 0 0
0 0 0
