ply
format ascii 1.0
element vertex 134
comment vertices
property float x
property float y
property float z
end_header
1.33900213241577148 -3.0954892635345459 1.87756955623626709
1.38635003566741943 -1.89835929870605469 0.535698533058166504
-0.281259417533874512 -0.0429713763296604156 2.0521848201751709
2.01448774337768555 3.53572654724121094 0.8222312331199646
-0.722320377826690674 1.56862294673919678 2.08439540863037109
0.299215078353881836 0.0509403347969055176 0.978483676910400391
1.30522119998931885 2.45706272125244141 1.86264586448669434
0.102380566298961639 -1.80425834655761719 2.15156269073486328
-0.771071553230285645 1.41413319110870361 1.11069643497467041
0.732438623905181885 -2.23322963714599609 1.40483999252319336
0.328309714794158936 -1.63576066493988037 0.641901910305023193
-0.429197847843170166 -0.358242183923721313 1.2768712043762207
1.95224440097808838 -2.68336844444274902 0.396908074617385864
-0.662567496299743652 1.31841707229614258 0.5182037353515625
1.4551314115524292 -1.89805912971496582 1.88619649410247803
0.0799726620316505432 1.96332859992980957 2.0983123779296875
0.974481880664825439 2.35229921340942383 0.800476312637329102
0.255351781845092773 -0.918292045593261719 2.27936506271362305
0.621175765991210938 -1.81097447872161865 0.818413794040679932
-0.0582510083913803101 1.2121427059173584 2.19654607772827148
1.38030540943145752 2.73080539703369141 1.06160151958465576
0.508514583110809326 1.95819222927093506 0.578007102012634277
0.447813034057617188 0.892926335334777832 1.25515639781951904
0.186223849654197693 1.96908688545227051 0.624700486660003662
-0.555289983749389648 -0.126892387866973877 1.1055595874786377
-0.497945964336395264 -0.339757204055786133 1.49218273162841797
1.30300116539001465 -2.24847054481506348 0.811749935150146484
-0.653300166130065918 -1.41968846321105957 0.645365297794342041
-0.682328283786773682 0.962010085582733154 1.49244081974029541
0.62861323356628418 -1.45244085788726807 2.17162537574768066
0.716214299201965332 -0.75238335132598877 1.04584455490112305
0.863676905632019043 2.03778910636901855 2.09534406661987305
1.45689797401428223 -2.32648229598999023 1.86692690849304199
-0.383742004632949829 -1.63639450073242188 1.32067418098449707
-0.199029624462127686 -1.20228159427642822 2.35895347595214844
0.550499558448791504 2.01116514205932617 0.383943110704421997
-0.303970247507095337 1.74329876899719238 2.16425490379333496
1.72713136672973633 -2.39890265464782715 1.09076523780822754
0.382238268852233887 -1.73969781398773193 0.427132129669189453
-0.706638574600219727 1.42208743095397949 0.720013201236724854
-0.287018120288848877 -0.608516693115234375 2.18705344200134277
-0.848108470439910889 1.50340187549591064 2.03168439865112305
-0.409212350845336914 0.449194997549057007 0.81423342227935791
1.09239792823791504 -2.13067507743835449 1.72088909149169922
0.491154104471206665 -1.85585355758666992 0.909956455230712891
0.109758220613002777 -1.62982046604156494 0.743761837482452393
-0.0652454718947410583 1.97771430015563965 1.98920416831970215
0.510783970355987549 -1.68834948539733887 0.656721532344818115
0.699715316295623779 1.53341138362884521 1.07246649265289307
-0.445694446563720703 -0.0893828868865966797 1.21680057048797607
0.158269062638282776 -1.68768715858459473 0.922072827816009521
0.498774528503417969 1.96240854263305664 2.18113303184509277
0.1774158775806427 -2.05497002601623535 1.91392385959625244
-0.391598939895629883 1.85620236396789551 2.12475800514221191
0.564299404621124268 -1.84745407104492188 0.861562252044677734
-0.434731036424636841 1.21759951114654541 2.27288484573364258
0.13485737144947052 1.83391821384429932 0.785796523094177246
-0.667364537715911865 -0.184953764081001282 1.8665308952331543
-0.065938219428062439 -1.68245577812194824 0.878979265689849854
-0.746011316776275635 1.72468256950378418 0.93370133638381958
0.963881552219390869 1.95126581192016602 0.4195689857006073
0.082464560866355896 -1.82574093341827393 1.93673813343048096
-0.662908375263214111 1.27240943908691406 1.3333442211151123
-0.433413445949554443 0.117405198514461517 1.30070531368255615
0.259163856506347656 -1.33013856410980225 2.2744293212890625
1.31052482128143311 2.4585113525390625 1.84046304225921631
-0.705599308013916016 -0.734813332557678223 2.04056763648986816
0.604129970073699951 1.9958043098449707 0.696375608444213867
1.04652154445648193 2.32856869697570801 0.625130832195281982
1.90661847591400146 2.42667794227600098 1.2127540111541748
0.68368297815322876 -1.78643810749053955 0.836647629737854004
-0.0921832695603370667 1.79703283309936523 0.823060393333435059
-0.821001410484313965 1.34207427501678467 1.98454451560974121
1.68422126770019531 3.19606447219848633 1.30391442775726318
0.886447787284851074 2.05800366401672363 1.96261036396026611
1.44862127304077148 -2.58670568466186523 1.13758182525634766
-0.0850629433989524841 1.85886037349700928 0.66418755054473877
-0.684108257293701172 -0.495342612266540527 1.99811363220214844
-0.540965855121612549 -0.223512738943099976 1.39996612071990967
-0.217325329780578613 1.51439929008483887 1.62163233757019043
1.07705104351043701 -2.06729626655578613 1.78407037258148193
0.0531862005591392517 0.363612592220306396 1.1147458553314209
-0.47254866361618042 -0.841877937316894531 2.17732048034667969
1.31164896488189697 -2.09186792373657227 0.703895807266235352
-0.206141278147697449 1.68405532836914062 0.676180005073547363
0.387980282306671143 1.94516932964324951 0.552882075309753418
-0.571547210216522217 0.779505133628845215 2.01620936393737793
-0.830623090267181396 1.49991905689239502 1.74294006824493408
-0.321803182363510132 -0.00733121298253536224 0.918265700340270996
0.877243399620056152 -0.643133401870727539 0.907769680023193359
0.263751745223999023 -1.86435198783874512 1.99639153480529785
1.28678703308105469 -2.76232528686523438 1.90417873859405518
-0.803110420703887939 1.40721285343170166 2.01248455047607422
-0.434820711612701416 -0.146680712699890137 1.0914151668548584
0.171538814902305603 1.97907233238220215 1.9736562967300415
0.935277819633483887 2.32545089721679688 1.75451815128326416
0.634103119373321533 -0.285922884941101074 1.02900779247283936
0.110377006232738495 -1.91650772094726562 2.15433883666992188
-0.809899449348449707 -1.2431102991104126 1.42079150676727295
-0.130165129899978638 -0.418073117733001709 2.1466820240020752
0.575138449668884277 -1.24749290943145752 2.21841645240783691
-0.085129961371421814 -0.989490032196044922 2.2989346981048584
-0.388847887516021729 -1.59961473941802979 2.22583436965942383
-0.0569585040211677551 -1.72084367275238037 0.909932434558868408
-0.747160911560058594 1.28266453742980957 1.02504622936248779
0.474473923444747925 2.06095767021179199 1.88849246501922607
-0.280611246824264526 -0.715899109840393066 0.539556622505187988
0.889948070049285889 -2.01413726806640625 1.86437630653381348
0.775986731052398682 -2.01982378959655762 1.61766362190246582
0.877749204635620117 -1.60686099529266357 2.13608407974243164
0.599309861660003662 -1.80530786514282227 0.486448407173156738
-0.650705277919769287 1.66979455947875977 1.01530873775482178
0.287669628858566284 1.9932856559753418 1.95014774799346924
-0.292950570583343506 1.40952765941619873 2.22140192985534668
1.03334152698516846 1.39338493347167969 0.910000443458557129
0.266923129558563232 1.97480297088623047 2.03780961036682129
-0.413196146488189697 -0.40456157922744751 1.31883108615875244
0.428106963634490967 -1.65609073638916016 0.5705413818359375
-0.326303839683532715 -0.387614816427230835 1.83781039714813232
1.63849139213562012 -1.93838787078857422 0.803026199340820312
1.72814226150512695 2.91320061683654785 1.30968999862670898
0.559057116508483887 -1.93122661113739014 0.6618918776512146
-0.0817950144410133362 -1.72137701511383057 0.910026013851165771
1.52306509017944336 -2.09530019760131836 1.84473371505737305
0.191071197390556335 1.99335646629333496 2.09866476058959961
0.432226210832595825 -1.65583813190460205 0.483736395835876465
0.209316611289978027 -1.93966889381408691 1.97511386871337891
1.04469108581542969 2.45300555229187012 0.738812923431396484
0.0117375403642654419 -0.689708948135375977 2.25627851486206055
-0.310202240943908691 -0.292664945125579834 0.965771973133087158
-0.851581335067749023 -0.76884537935256958 2.14113521575927734
0.256995171308517456 -1.71987855434417725 0.917999446392059326
-0.917907416820526123 -1.43050003051757812 0.989550173282623291
-0.0392385944724082947 1.62658488750457764 0.786105811595916748
