ply
format ascii 1.0
element vertex 64
comment vertices
property float x
property float y
property float z
end_header
2.54621505737304688 -0.893971443176269531 0.541443109512329102
3.36553668975830078 0.310141891241073608 0.387589335441589355
0.17272573709487915 2.90289115905761719 0.279663652181625366
2.39521956443786621 1.67557895183563232 0.404072731733322144
-2.41815996170043945 -1.69104957580566406 0.22304081916809082
-0.180448234081268311 2.92275810241699219 0.24480903148651123
-2.44398379325866699 -2.16109180450439453 0.236317723989486694
-2.01452827453613281 -2.95589280128479004 0.813995301723480225
-0.615195691585540771 3.24365234375 1.24335741996765137
-2.64330673217773438 0.599294424057006836 1.59422683715820312
-0.58128821849822998 3.23699641227722168 0.0605060867965221405
0.153430432081222534 2.2469325065612793 0.224707275629043579
0 0 0
0 0 0
0 0 0
0 0 0
0 0 0
0 0 0
0 0 0
0 0 0
0 0 0
0 0 0
0 0 0
0 0 0
0 0 0
0 0 0
0 0 0
0 0 0
0 0 0
0 0 0
0 0 0
0 0 0
0 0 0
0 0 0
0 0 0
0 0 0
0 0 0
0 0 0
0 0 0
0 0 0
0 0 0
0 0 0
0 0 0
0 0 0
0 0 0
0 0 0
0 0 0
0 0 0
0 0 0
0 0 0
0 0 0
0 0 0
0 0 0
0 0 0
0 0 0
0 0 0
0 0 0
0 0 0
0 0 0
0 0 0
0 0 0
0 0 0
0 0 0
0 0 0
