ply
format ascii 1.0
element vertex 140
comment vertices
property float x
property float y
property float z
end_header
1.19836580753326416 -0.607193708419799805 0.43540617823600769
-1.57224822044372559 -0.691084980964660645 0.954367220401763916
1.54696846008300781 0.556324124336242676 0.503256261348724365
2.03367757797241211 0.135694444179534912 1.63007187843322754
-2.18573093414306641 0.4886741042137146 1.74656188488006592
-0.342212498188018799 -0.386662900447845459 1.11364507675170898
-1.39745354652404785 -0.39886242151260376 0.43502536416053772
1.95250236988067627 0.659734070301055908 1.11394238471984863
-2.03026413917541504 0.569882214069366455 2.18179631233215332
0.665691196918487549 -0.4472694993019104 1.45457231998443604
-2.14397096633911133 0.906881392002105713 2.09607338905334473
1.53450393676757812 0.109966978430747986 0.701410949230194092
1.61893844604492188 -0.499720335006713867 0.992950201034545898
-0.10962250828742981 -0.426605820655822754 1.30629181861877441
-2.0127112865447998 0.363419622182846069 0.984658479690551758
-1.82625305652618408 -0.019403163343667984 1.07880675792694092
1.77370619773864746 0.662099599838256836 2.20087051391601562
0.238578975200653076 -0.502472162246704102 0.849444866180419922
-1.81433773040771484 0.684327185153961182 0.720955133438110352
-1.87751650810241699 -0.013387732207775116 2.22892284393310547
1.68406927585601807 0.389153867959976196 0.884602665901184082
-0.441679716110229492 -0.402841329574584961 1.15904080867767334
0.639670848846435547 -0.477057129144668579 1.4230964183807373
-2.21441507339477539 0.572789311408996582 1.09984612464904785
-1.24821305274963379 -0.649522960186004639 0.62422335147857666
-1.86104893684387207 0.677734613418579102 0.642506837844848633
0.477528244256973267 -0.394374191761016846 1.0708005428314209
-1.7540900707244873 -0.176070854067802429 2.16775298118591309
1.44653689861297607 -0.754187107086181641 0.590220868587493896
-1.95380187034606934 0.408781766891479492 2.3137509822845459
2.06211423873901367 -0.110183529555797577 1.9140554666519165
1.70972597599029541 -0.265969127416610718 1.00197231769561768
0.463239282369613647 -0.448019862174987793 1.10951805114746094
1.70327401161193848 -0.401380717754364014 2.1588594913482666
1.90844416618347168 0.579677224159240723 1.18952286243438721
-1.65060758590698242 -0.505273759365081787 0.998786985874176025
2.0807650089263916 0.814136981964111328 0.496897399425506592
-0.389826387166976929 -0.534576237201690674 1.62302982807159424
1.84042894840240479 0.744855701923370361 1.94813418388366699
1.59160685539245605 -0.137435510754585266 0.653522968292236328
1.71208012104034424 0.480676949024200439 1.05853927135467529
1.99879074096679688 -0.268597602844238281 1.73549461364746094
1.34543383121490479 -0.847026407718658447 0.501872003078460693
-2.13196873664855957 0.289615750312805176 1.49126207828521729
1.573921799659729 -0.631012558937072754 1.99808096885681152
-2.28920578956604004 0.466142117977142334 1.95478725433349609
-1.97169005870819092 0.433998465538024902 1.11404860019683838
0.913130104541778564 -0.529179692268371582 0.501859664916992188
-1.80436146259307861 0.435083121061325073 0.78903430700302124
1.56346654891967773 0.504367589950561523 0.671324491500854492
-0.403146088123321533 -0.41004478931427002 1.02074956893920898
-1.97228336334228516 0.808095633983612061 0.606789231300354004
-1.15345573425292969 -0.454291820526123047 0.254012882709503174
-1.82269549369812012 0.171348199248313904 1.1085360050201416
-1.59081888198852539 -0.0479155555367469788 0.730064511299133301
1.83359289169311523 0.0126090291887521744 1.10031962394714355
1.89398527145385742 0.17579786479473114 1.7654421329498291
2.03843545913696289 0.458699166774749756 1.73617899417877197
0.0356954149901866913 -0.438272565603256226 1.1504676342010498
-1.67310416698455811 0.680624723434448242 0.795961380004882812
-1.48929512500762939 -0.871857225894927979 1.30695366859436035
-1.89889979362487793 0.173207998275756836 2.06954860687255859
1.73828780651092529 -0.162361055612564087 1.98690199851989746
-1.72636795043945312 -0.40334010124206543 0.991700649261474609
-1.85956144332885742 -0.176017165184020996 2.10635828971862793
-0.60428309440612793 -0.447602808475494385 1.18705320358276367
-1.78836119174957275 0.434228122234344482 0.715402662754058838
-1.59269595146179199 -0.135693907737731934 0.67880779504776001
-1.54377102851867676 -0.729903459548950195 0.971490561962127686
1.81662726402282715 0.573702871799468994 1.03688812255859375
-2.17545104026794434 0.356126278638839722 1.13933467864990234
0.498017072677612305 -0.43465125560760498 1.19908452033996582
-1.93902933597564697 0.157744795083999634 2.37298870086669922
-1.86876237392425537 -0.115113705396652222 1.91268229484558105
-2.00307226181030273 0.331773936748504639 2.11028027534484863
1.97960782051086426 1.2347877025604248 0.404421031475067139
0.531064212322235107 -0.369184732437133789 1.07415902614593506
1.16868138313293457 -0.989563047885894775 0.653461456298828125
0.303323745727539062 -0.417914718389511108 1.18354511260986328
1.22758340835571289 0.371525079011917114 0.632407486438751221
-2.07369637489318848 0.690634369850158691 2.20978569984436035
-1.79444384574890137 -0.168664872646331787 2.08984684944152832
-2.08401608467102051 0.432627946138381958 1.15417718887329102
-1.4803013801574707 -0.795885801315307617 0.905293464660644531
1.59662461280822754 0.458688020706176758 0.621419906616210938
1.76562952995300293 -0.262109577655792236 1.08545517921447754
2.03463459014892578 0.148903459310531616 1.87605977058410645
2.01043272018432617 0.0417321473360061646 1.89912605285644531
1.62459230422973633 -0.261835694313049316 0.61182713508605957
-2.13394284248352051 0.594819009304046631 1.01152265071868896
1.45385909080505371 -0.627807199954986572 0.644239664077758789
1.73623871803283691 0.630676567554473877 1.97147119045257568
0.592252790927886963 -0.390265941619873047 1.27147150039672852
1.59378719329833984 0.456161916255950928 0.669191300868988037
-1.81922054290771484 -0.194556653499603271 2.17116189002990723
-1.96083295345306396 0.12285836786031723 2.24587869644165039
-1.34273028373718262 -0.446635156869888306 0.510892987251281738
0.433295369148254395 -0.407675743103027344 1.09708094596862793
1.82601165771484375 0.477270841598510742 1.18430113792419434
0.38037872314453125 -0.449831157922744751 1.36684107780456543
-2.05377721786499023 0.88332664966583252 2.08012866973876953
1.36659407615661621 -0.671491861343383789 0.533444523811340332
1.94880557060241699 0.55715787410736084 1.76085591316223145
1.30542647838592529 -0.076442033052444458 0.411873370409011841
-2.0788722038269043 0.461642235517501831 1.91352963447570801
1.60059034824371338 0.476856201887130737 0.733641982078552246
-1.93576765060424805 -0.0185148604214191437 1.15336835384368896
0.0466507785022258759 -0.451528668403625488 1.15403974056243896
-1.8774033784866333 0.190424174070358276 2.40692687034606934
-0.202751666307449341 -0.444450914859771729 1.44101381301879883
1.54816770553588867 0.22458590567111969 0.757027804851531982
-0.719089627265930176 -0.414206802845001221 0.97840350866317749
1.78427493572235107 -0.1315326988697052 1.85224568843841553
1.79028451442718506 0.595712184906005859 1.12120246887207031
-1.58500969409942627 -0.738707184791564941 1.1012648344039917
-1.93828654289245605 0.0446332506835460663 2.08362865447998047
-2.0809333324432373 0.712301552295684814 0.623575687408447266
1.76614296436309814 0.553696632385253906 0.493523895740509033
1.7806708812713623 0.411174595355987549 1.05692434310913086
-1.94377529621124268 0.908571183681488037 0.522054791450500488
-0.229813948273658752 -0.431193023920059204 1.16258704662322998
0.509890198707580566 -0.397541791200637817 1.09355652332305908
0.812259972095489502 -0.526496767997741699 1.34930026531219482
1.99935817718505859 0.0853853225708007812 2.01445531845092773
-0.201911836862564087 -0.4243449866771698 1.20974063873291016
-1.98082423210144043 0.845522105693817139 2.34759044647216797
1.64454269409179688 -0.0744750499725341797 0.848723411560058594
-1.94394457340240479 0.247059404850006104 1.21896624565124512
-0.258699238300323486 -0.411642909049987793 1.11409974098205566
-1.59632754325866699 -0.176460504531860352 0.666247367858886719
1.75466394424438477 0.505503416061401367 0.93243253231048584
-1.53281009197235107 -0.851020693778991699 1.14546322822570801
-2.00228476524353027 0.482569992542266846 2.18636250495910645
1.96648812294006348 -0.422031223773956299 1.2988739013671875
-2.20959997177124023 0.0829906687140464783 1.74933862686157227
1.69397151470184326 0.475937336683273315 0.800051987171173096
1.72188079357147217 -0.228965237736701965 0.988323986530303955
-2.25368380546569824 0.202816009521484375 1.85256016254425049
-2.20386767387390137 0.351442873477935791 1.19881308078765869
-2.05678224563598633 0.226953044533729553 1.17999041080474854
