ply
format ascii 1.0
element vertex 206
comment vertices
property float x
property float y
property float z
end_header
3.39201045036315918 1.03701984882354736 0.704062700271606445
-1.3181380033493042 3.16580557823181152 1.61538493633270264
2.05034065246582031 -2.10112476348876953 0.9109688401222229
-0.0761529207229614258 0.759876787662506104 0.388698816299438477
-2.74346041679382324 0.0495224446058273315 1.3370058536529541
0.185226202011108398 3.01484012603759766 0.302654504776000977
1.60387086868286133 1.75924968719482422 1.56740188598632812
-2.19783258438110352 2.06276059150695801 0.433751165866851807
-2.52140355110168457 -1.08849048614501953 0.532986283302307129
0.0255075171589851379 -1.99348139762878418 0.736268818378448486
2.94077849388122559 0.45993649959564209 0.356444567441940308
3.10683870315551758 -0.304645359516143799 0.958495497703552246
0.281441986560821533 -3.25358963012695312 1.3730388879776001
2.37082433700561523 2.17562723159790039 0.677795529365539551
-1.84463942050933838 1.71766996383666992 1.50866031646728516
-2.76472902297973633 -1.82233750820159912 1.6565406322479248
-2.04980182647705078 0.652114927768707275 0.756555795669555664
0.519412398338317871 2.822601318359375 1.79677402973175049
0.245493680238723755 2.23740482330322266 0.189407408237457275
1.87225151062011719 -1.16805469989776611 0.496284961700439453
1.28465831279754639 1.27173185348510742 0.258781373500823975
-0.713459253311157227 -0.577913820743560791 0.389483779668807983
-0.398130863904953003 -2.94574522972106934 0.428771913051605225
3.16436433792114258 0.0881398022174835205 0.420800864696502686
2.50673651695251465 2.08754563331604004 1.01317167282104492
1.09458017349243164 2.43161535263061523 0.743833959102630615
-2.61484384536743164 -2.17140674591064453 1.30613386631011963
3.31626439094543457 -0.560139834880828857 1.20167648792266846
2.95088624954223633 -0.986184537410736084 0.518870234489440918
-0.415397703647613525 3.25799822807312012 1.20681416988372803
2.79526829719543457 1.56094932556152344 0.489580601453781128
-2.61954331398010254 -0.935217857360839844 1.14412951469421387
-2.30875730514526367 1.50916564464569092 0.580702126026153564
0.0806226208806037903 -2.19933414459228516 0.993062019348144531
1.39985346794128418 -2.11351108551025391 0.57760930061340332
-2.32277131080627441 -2.83120822906494141 1.87748420238494873
-1.01462161540985107 1.7062830924987793 0.333757281303405762
-1.7334212064743042 2.50312614440917969 0.641031503677368164
-0.506799578666687012 -3.29432082176208496 1.4399409294128418
1.70285820960998535 -2.16837692260742188 0.826755940914154053
0.600098013877868652 -0.526901006698608398 0.276444882154464722
-2.65195941925048828 0.110021889209747314 1.3084712028503418
-0.503213465213775635 -1.58755958080291748 0.496539533138275146
1.6822969913482666 2.24033617973327637 1.04410803318023682
1.34311985969543457 2.47466397285461426 0.492841869592666626
-1.65221178531646729 2.60048723220825195 0.232984274625778198
2.8016812801361084 1.55385744571685791 0.482998043298721313
-2.23502635955810547 2.05677294731140137 0.740277290344238281
0.112411923706531525 2.93197274208068848 0.322826385498046875
-1.02132761478424072 0.32977217435836792 0.220800504088401794
3.13902974128723145 0.528988659381866455 0.801483333110809326
-1.23993957042694092 3.099700927734375 1.2187269926071167
-1.55181264877319336 2.31306791305541992 1.63745284080505371
0.820846259593963623 2.47345161437988281 1.47481584548950195
0.711138665676116943 1.537483811378479 0.424306988716125488
-1.64560198783874512 -3.22519946098327637 2.0976567268371582
-2.54854393005371094 -0.236284852027893066 0.945030152797698975
3.26554679870605469 -0.0344350039958953857 0.460498303174972534
-0.0627515390515327454 -2.84000182151794434 0.424723833799362183
-2.30278992652893066 1.61360704898834229 0.362057119607925415
3.18108510971069336 1.37962579727172852 1.05948138236999512
3.18562698364257812 -0.184572339057922363 1.05860686302185059
-1.32708740234375 -2.89055109024047852 1.08036708831787109
-2.45031428337097168 -2.29400277137756348 0.330709755420684814
3.0733029842376709 -1.37800908088684082 1.33241891860961914
-1.2783581018447876 -1.00462257862091064 0.438153177499771118
1.12205696105957031 2.2951045036315918 0.70244675874710083
1.91273248195648193 -0.643740594387054443 0.477550506591796875
-2.73693108558654785 -0.837486863136291504 1.45713603496551514
1.43142998218536377 -1.18454575538635254 0.543085753917694092
-2.64445805549621582 -2.51946377754211426 1.37000715732574463
0.321264594793319702 2.30246615409851074 0.218621909618377686
-0.692514479160308838 3.23198413848876953 1.36141550540924072
-0.314039915800094604 -2.6958167552947998 0.33518633246421814
2.93299674987792969 -0.252952516078948975 0.539653420448303223
-0.298525750637054443 1.43861579895019531 0.380224853754043579
2.00201511383056641 -1.35557675361633301 0.519467055797576904
0.117424659430980682 -0.923089265823364258 0.515935122966766357
0.543989181518554688 2.71798062324523926 1.53907680511474609
2.18328714370727539 0.907926261425018311 0.23957805335521698
-0.180712401866912842 -3.29845571517944336 1.29326140880584717
-1.45239663124084473 -0.153956800699234009 0.466944038867950439
-0.359945982694625854 3.23126125335693359 0.742456138134002686
1.54039573669433594 2.16269707679748535 1.19185793399810791
-2.68605375289916992 -1.67467999458312988 1.29498255252838135
1.98121798038482666 1.80974435806274414 1.57536041736602783
-0.563700735569000244 -3.18351268768310547 1.24034488201141357
-2.66668009757995605 -1.45139873027801514 1.03504037857055664
3.06421518325805664 -0.26896435022354126 0.562385737895965576
-2.12562274932861328 1.71645712852478027 1.17486929893493652
2.00603604316711426 1.82051432132720947 0.425630182027816772
-2.1355583667755127 -2.96990966796875 1.28489243984222412
2.58118700981140137 -1.32756233215332031 0.671982347965240479
-2.55052423477172852 0.740978538990020752 1.07101547718048096
-1.16761887073516846 1.05393242835998535 0.351649075746536255
3.13893914222717285 -0.539836466312408447 1.06507062911987305
3.26868081092834473 1.51078212261199951 0.972129940986633301
-2.37626194953918457 -2.66042637825012207 1.05370521545410156
-2.62948083877563477 -0.310038477182388306 1.19553327560424805
-2.40251255035400391 1.71462047100067139 0.458875358104705811
-1.32599735260009766 3.06745481491088867 0.784329354763031006
-2.59331798553466797 -0.808859944343566895 1.15819859504699707
-0.810070037841796875 -2.8459012508392334 0.361132562160491943
-2.52341842651367188 -2.2773902416229248 1.87598931789398193
-2.23498797416687012 -1.73941981792449951 0.276586413383483887
-2.01723122596740723 2.29066061973571777 0.398886352777481079
1.86360776424407959 -1.31920051574707031 0.512332499027252197
-1.90525448322296143 2.1251070499420166 1.24231100082397461
-1.46726691722869873 2.79490232467651367 0.952810466289520264
0.0583351776003837585 -2.15604376792907715 0.84967571496963501
-0.614874124526977539 2.15600681304931641 0.353423029184341431
0.889187395572662354 2.1959378719329834 0.2854137122631073
0.129343956708908081 -3.09820437431335449 1.04383683204650879
3.20094013214111328 -0.00974886119365692139 0.44800761342048645
-1.98150241374969482 2.16483354568481445 1.03599762916564941
2.5295097827911377 1.96762549877166748 0.998365879058837891
2.01532387733459473 -2.07750296592712402 0.866009175777435303
-2.48733162879943848 -2.44478487968444824 0.93884730339050293
3.59041309356689453 1.18647885322570801 0.69966280460357666
-1.89874184131622314 1.95614004135131836 0.378043889999389648
-1.51572656631469727 2.71130490303039551 1.52595710754394531
-1.09939348697662354 -3.01645159721374512 1.37689423561096191
0.983050704002380371 -1.90576708316802979 0.961223363876342773
2.94780969619750977 1.58553946018218994 1.3513796329498291
3.79793000221252441 1.05739188194274902 0.690820395946502686
1.4120025634765625 -0.455492883920669556 0.304996758699417114
-2.64879488945007324 0.227898448705673218 1.21746993064880371
-0.636087954044342041 1.03262233734130859 0.260598510503768921
2.57618188858032227 -1.2565302848815918 0.660113275051116943
-1.57953846454620361 0.354395061731338501 0.615582823753356934
2.62164497375488281 1.57790446281433105 0.511385262012481689
1.27695357799530029 1.77691030502319336 0.194693773984909058
1.53073275089263916 -2.26980161666870117 0.669127285480499268
0.152878925204277039 2.9675898551940918 0.270674735307693481
0.0779266729950904846 3.22457599639892578 1.23414731025695801
1.49814426898956299 2.29713320732116699 1.09263479709625244
-2.63305068016052246 -0.452656149864196777 1.07263469696044922
-0.23659244179725647 -2.88362288475036621 0.337490499019622803
-0.873811960220336914 -2.93369793891906738 0.74442213773727417
0.00486449524760246277 -2.10794854164123535 0.683056116104125977
0.0074416622519493103 2.97199606895446777 0.318302392959594727
3.40679073333740234 0.960023939609527588 0.946779549121856689
2.0063776969909668 -0.549059808254241943 0.54732811450958252
3.10984349250793457 -0.153986930847167969 1.21466243267059326
-1.02403533458709717 -2.00562500953674316 0.783578217029571533
-2.48758554458618164 0.926258444786071777 0.928665459156036377
-2.059295654296875 1.39247298240661621 1.46816873550415039
-2.18802571296691895 2.06408166885375977 0.496989190578460693
1.48947978019714355 2.35746932029724121 0.746861696243286133
0.875910043716430664 -1.01975619792938232 0.336418956518173218
1.7986522912979126 1.99989783763885498 1.24370932579040527
-0.573114454746246338 -2.98210763931274414 0.364179491996765137
-2.29572844505310059 1.70772647857666016 0.422875970602035522
3.09216070175170898 0.258979648351669312 0.388698875904083252
3.36717438697814941 1.01135158538818359 1.28491628170013428
-2.31411623954772949 1.18383920192718506 1.25286340713500977
3.17553973197937012 1.10125982761383057 0.833569526672363281
-2.13068437576293945 -2.86276483535766602 1.99876749515533447
2.87362504005432129 1.0540616512298584 0.286597013473510742
-2.74087858200073242 -1.43070685863494873 1.28003084659576416
-1.68384051322937012 -3.06957626342773438 1.75019216537475586
3.06675982475280762 -0.354576051235198975 0.539822399616241455
0.0124706737697124481 -2.4245753288269043 0.358507603406906128
3.20850491523742676 -0.281249672174453735 1.02396619319915771
-1.47804808616638184 1.55721497535705566 0.454105406999588013
0.219724148511886597 3.00033807754516602 0.306315958499908447
-1.03875482082366943 -0.130333110690116882 0.290957540273666382
-0.522834539413452148 0.493333101272583008 0.292163997888565063
-2.0774235725402832 -0.763117372989654541 0.749627232551574707
-0.164346769452095032 -3.29233288764953613 1.29185962677001953
2.05474948883056641 1.35158729553222656 0.429044604301452637
3.17053389549255371 -0.870124876499176025 1.16789638996124268
0.597940981388092041 2.50568175315856934 1.61088252067565918
-2.4608004093170166 -2.05737447738647461 0.94052201509475708
0.465874463319778442 2.78501343727111816 1.37709105014801025
-0.280484676361083984 -2.89670705795288086 0.426546782255172729
-2.32569098472595215 1.72749733924865723 0.747801780700683594
-0.380293369293212891 -1.06222748756408691 0.376187920570373535
3.14864301681518555 0.25539398193359375 0.398762255907058716
-0.911279499530792236 3.43393635749816895 0.811627805233001709
1.71723592281341553 2.00303268432617188 1.30801272392272949
1.39945888519287109 2.30936288833618164 0.919177532196044922
-1.9474564790725708 2.34431910514831543 0.489837169647216797
0.163642734289169312 -2.74030923843383789 0.783127009868621826
-2.26488804817199707 -2.8424227237701416 1.19645154476165771
3.22297906875610352 -0.365655004978179932 1.16995728015899658
-1.5096282958984375 2.76628828048706055 1.56555962562561035
0.789960265159606934 2.38458704948425293 1.59179377555847168
1.56299400329589844 -1.48411238193511963 0.691466569900512695
-1.71272408962249756 2.52378129959106445 0.438536703586578369
3.1689753532409668 -0.852813482284545898 0.533164143562316895
0.933530211448669434 1.29685091972351074 0.219559013843536377
-1.54939186573028564 2.12555074691772461 1.59051334857940674
-2.54348015785217285 -0.773379981517791748 1.08557450771331787
3.17062616348266602 0.122611373662948608 0.406326323747634888
0.445920318365097046 2.47821187973022461 0.280906140804290771
1.90983700752258301 -1.15037262439727783 0.432839721441268921
-2.63794064521789551 -1.41812360286712646 1.19627571105957031
0.120816327631473541 -2.51971173286437988 0.902514398097991943
-0.642758190631866455 3.25218987464904785 1.24307167530059814
-2.43064212799072266 -2.97105646133422852 2.1665036678314209
-1.08069062232971191 -0.595035672187805176 0.486096352338790894
-2.7279810905456543 -1.92951059341430664 1.64999973773956299
3.13631248474121094 -0.577577650547027588 0.475980222225189209
-2.31270074844360352 1.63560688495635986 0.408509254455566406
3.15377187728881836 0.174541935324668884 0.438897967338562012
