ply
format ascii 1.0
element vertex 64
comment vertices
property float x
property float y
property float z
end_header
-0.749466538429260254 1.10531878471374512 0.292218118906021118
-0.719305872917175293 -2.08328914642333984 0.630658566951751709
-0.741117119789123535 1.76075434684753418 0.65439450740814209
3.03746914863586426 2.48096323013305664 0.57816845178604126
0.161878794431686401 -3.15752410888671875 0.769545793533325195
-1.39215743541717529 -2.84115791320800781 0.846464633941650391
-1.09747660160064697 -2.42198085784912109 1.17585456371307373
-1.07959532737731934 0.717626988887786865 0.31529119610786438
-1.40875458717346191 0.890534877777099609 0.49326789379119873
-1.31521177291870117 1.25986099243164062 0.362013846635818481
0.087467491626739502 1.74623560905456543 0.30652204155921936
3.34661197662353516 1.66885292530059814 0.85636979341506958
3.28928017616271973 1.66486215591430664 0.85582888126373291
1.08445620536804199 -2.16230440139770508 0.385798722505569458
-0.735720932483673096 -0.60621345043182373 0.308685600757598877
-0.806652426719665527 -0.932108819484710693 0.337594598531723022
0.648008584976196289 -0.897469520568847656 0.640663743019104004
-0.450468152761459351 0.835776627063751221 0.720308065414428711
0 0 0
0 0 0
0 0 0
0 0 0
0 0 0
0 0 0
0 0 0
0 0 0
0 0 0
0 0 0
0 0 0
0 0 0
0 0 0
0 0 0
0 0 0
0 0 0
0 0 0
0 0 0
0 0 0
0 0 0
0 0 0
0 0 0
0 0 0
0 0 0
0 0 0
0 0 0
0 0 0
0 0 0
0 0 0
0 0 0
0 0 0
0 0 0
0 0 0
0 0 0
0 0 0
0 0 0
0 0 0
0 0 0
0 0 0
0 0 0
0 0 0
0 0 0
0 0 0
0 0 0
0 0 0
0 0 0
