ply
format ascii 1.0
element vertex 196
comment vertices
property float x
property float y
property float z
end_header
3.29324150085449219 1.39024972915649414 0.807069003582000732
2.21101903915405273 -2.02694559097290039 0.755950510501861572
0.980994522571563721 1.40769922733306885 0.336096733808517456
-2.47916197776794434 1.57153260707855225 0.444474875926971436
-0.971826136112213135 -3.21861672401428223 1.77321183681488037
3.09977030754089355 -0.700275063514709473 0.471023708581924438
0.358212321996688843 -0.967795848846435547 0.321032106876373291
0.0320550724864006042 3.0083918571472168 0.303268343210220337
2.09970474243164062 2.04291296005249023 1.34799754619598389
-2.72352004051208496 -2.54403448104858398 1.62931013107299805
-0.925426661968231201 -2.94492125511169434 0.258011102676391602
-0.837636947631835938 0.682588279247283936 0.352423965930938721
-1.37923777103424072 3.38962769508361816 0.772481083869934082
0.492812871932983398 2.51728320121765137 1.72514128684997559
-2.13605952262878418 1.90471804141998291 1.44827950000762939
3.27746105194091797 0.723812878131866455 1.10015082359313965
3.11861801147460938 -1.39598500728607178 1.03722012042999268
0.0559869334101676941 -2.31247138977050781 0.782800257205963135
-2.74146461486816406 0.115358367562294006 1.0934525728225708
-2.85007214546203613 -1.18871533870697021 1.55916476249694824
-1.7054297924041748 -3.00921058654785156 0.683986485004425049
1.65646445751190186 2.23139834403991699 0.749186933040618896
3.60553622245788574 1.06695818901062012 0.654833674430847168
-1.01307737827301025 -1.43277657032012939 0.5993155837059021
1.22510159015655518 -1.91877865791320801 0.598695635795593262
1.3457949161529541 2.27411460876464844 0.795489490032196045
3.31492447853088379 -0.460454314947128296 1.10497057437896729
1.44721412658691406 -0.0388007014989852905 0.274221122264862061
-0.689192056655883789 3.21939516067504883 1.19887304306030273
-2.3266301155090332 2.06382203102111816 0.859007656574249268
2.54449844360351562 -1.15187299251556396 0.533799290657043457
-1.33161413669586182 -0.411420673131942749 0.488281756639480591
0.0372218936681747437 -2.82083511352539062 0.624375402927398682
-2.39709162712097168 -2.33409905433654785 0.343057751655578613
-2.75922393798828125 -0.378863245248794556 1.16815292835235596
3.19267416000366211 0.177778527140617371 0.397915005683898926
0.132812708616256714 3.16644406318664551 1.1672285795211792
3.18038320541381836 1.7691115140914917 0.984692871570587158
-2.07721233367919922 2.39711213111877441 0.640102267265319824
-2.54601335525512695 1.39996147155761719 1.49535286426544189
-1.67392313480377197 -3.13690853118896484 1.73972034454345703
2.06742143630981445 0.963061153888702393 0.330975949764251709
-1.05303823947906494 1.61737895011901855 0.317222565412521362
-1.17383480072021484 -3.1393742561340332 1.22560632228851318
-2.7334296703338623 -2.12642502784729004 1.10581433773040771
1.65328598022460938 2.31200504302978516 0.923512578010559082
0.0118395537137985229 -2.23567438125610352 0.474054992198944092
-1.64779949188232422 2.5548558235168457 1.71343576908111572
3.38486385345458984 1.51531291007995605 0.658295273780822754
-2.11203742027282715 2.31990575790405273 0.302316814661026001
-0.486545205116271973 2.84914636611938477 1.7690814733505249
-0.473407953977584839 -0.179630637168884277 0.314761489629745483
1.48634731769561768 -2.1387474536895752 0.789692878723144531
-1.40211522579193115 -2.99123239517211914 0.260091155767440796
2.42154645919799805 1.58581006526947021 0.523047864437103271
-1.26449143886566162 3.12678766250610352 1.1294548511505127
3.09135079383850098 1.02500927448272705 0.852368831634521484
1.31735765933990479 -0.865037143230438232 0.382840543985366821
-1.57789695262908936 0.951657950878143311 0.508067131042480469
1.48576915264129639 2.0128026008605957 1.46551048755645752
3.53987431526184082 -0.658496975898742676 0.507454633712768555
3.20745635032653809 2.25626254081726074 0.917143940925598145
-0.341940194368362427 -3.26509809494018555 1.2350003719329834
-2.52382159233093262 -0.657682836055755615 1.02773106098175049
2.91724848747253418 -2.01308560371398926 0.94377601146697998
1.86307346820831299 -2.03307604789733887 0.599480569362640381
-0.463018625974655151 3.23221635818481445 1.23812675476074219
1.4546886682510376 2.31104278564453125 0.927477180957794189
-2.73894643783569336 -1.53663444519042969 1.15984046459197998
-2.90145754814147949 -1.93871486186981201 1.66978657245635986
-2.76823759078979492 -0.47217133641242981 1.32715332508087158
-2.38751316070556641 1.95859289169311523 0.431975036859512329
1.47076606750488281 0.704211175441741943 0.366450488567352295
-2.6263129711151123 0.883700072765350342 0.923319756984710693
3.09807968139648438 -0.585135519504547119 0.964467167854309082
3.62793469429016113 1.14479255676269531 0.634946465492248535
3.3583071231842041 -0.439458012580871582 0.549502432346343994
0.506940662860870361 1.76002240180969238 0.276722103357315063
3.3735501766204834 -0.14669191837310791 0.83816903829574585
-0.608169317245483398 -2.52649736404418945 0.25801384449005127
-2.45122933387756348 1.77209627628326416 1.22552978992462158
0.484856098890304565 2.6649022102355957 1.54336225986480713
3.1237177848815918 -1.04568183422088623 1.27881908416748047
-1.66473829746246338 2.59218931198120117 1.64857590198516846
-0.208528801798820496 -1.42493247985839844 0.520446956157684326
-2.74504399299621582 0.190704092383384705 1.26413023471832275
-1.53700935840606689 2.97924137115478516 1.68588423728942871
-0.435075491666793823 -2.8324427604675293 0.281697303056716919
0.457899630069732666 -1.7583930492401123 0.815605223178863525
0.0438690185546875 -2.33200788497924805 0.567473113536834717
-1.39176154136657715 0.293816030025482178 0.491011977195739746
-0.551829218864440918 1.21911776065826416 0.301799476146697998
-2.00545191764831543 2.21400213241577148 1.08034396171569824
-0.909309744834899902 -0.769871771335601807 0.292250663042068481
-0.750652074813842773 2.7352900505065918 0.385108709335327148
3.35441899299621582 0.123382002115249634 0.492805540561676025
1.9703141450881958 -0.647028803825378418 0.442989706993103027
-2.73273658752441406 0.0983820036053657532 1.26088154315948486
-2.52536749839782715 1.60760331153869629 0.556206464767456055
-0.521166026592254639 -3.20682287216186523 0.801694750785827637
1.79313945770263672 -1.47927093505859375 0.570957541465759277
-1.26036620140075684 2.81064963340759277 1.82913947105407715
0.621926665306091309 -0.465905517339706421 0.303218036890029907
3.14310598373413086 -0.965820431709289551 0.78506016731262207
-2.68597006797790527 -0.736161649227142334 1.28132891654968262
2.41034221649169922 1.70469653606414795 0.509551823139190674
0.0820057541131973267 -2.70149493217468262 0.572522401809692383
3.17941951751708984 0.248921498656272888 0.396926701068878174
3.70134544372558594 1.10355687141418457 0.63383185863494873
2.48186469078063965 2.03653979301452637 1.06144368648529053
2.93978357315063477 1.65534520149230957 0.770330607891082764
-2.26921510696411133 -0.983853459358215332 0.502023458480834961
-1.78308987617492676 2.55092835426330566 0.726947188377380371
-2.44297695159912109 1.60498034954071045 0.483435600996017456
2.06357073783874512 0.441009581089019775 0.266986191272735596
1.40078115463256836 2.36090207099914551 1.29119813442230225
-2.73440098762512207 -0.851038098335266113 1.25489747524261475
1.5409008264541626 2.13761496543884277 1.13316917419433594
-0.0607237964868545532 2.92775487899780273 1.67563796043395996
-1.70954322814941406 -3.15644931793212891 1.4035799503326416
3.34380149841308594 0.990918755531311035 0.996623635292053223
-1.16357207298278809 3.18488407135009766 1.22650265693664551
3.16940760612487793 -0.397506952285766602 0.817880511283874512
1.59681248664855957 -1.4849240779876709 0.556815505027770996
-2.12602829933166504 1.59996688365936279 1.65539121627807617
-2.23931097984313965 2.18026971817016602 0.439269363880157471
1.55024778842926025 -2.26672172546386719 0.533160150051116943
-1.12618744373321533 1.06114339828491211 0.155942276120185852
2.19197249412536621 1.74774718284606934 0.477254331111907959
1.27454483509063721 2.34621882438659668 0.341413170099258423
2.95926928520202637 1.76678717136383057 0.992131173610687256
0.110094539821147919 2.92709755897521973 0.252876341342926025
-1.89048135280609131 -0.00801660679280757904 0.578401088714599609
-0.70875251293182373 2.12288713455200195 0.220272794365882874
-2.68767786026000977 -2.36980462074279785 1.26633691787719727
-2.45215821266174316 1.58121120929718018 0.523784160614013672
-1.93780314922332764 2.23021483421325684 0.216763198375701904
3.25807905197143555 0.0940112993121147156 0.445860803127288818
1.61809349060058594 -0.999668598175048828 0.368525892496109009
3.33723330497741699 0.816494941711425781 0.824005782604217529
-0.912392079830169678 -3.28088116645812988 1.48125982284545898
0.490207940340042114 2.87183046340942383 1.44931614398956299
0.441170662641525269 2.72016072273254395 1.54153978824615479
3.12445306777954102 -0.871259510517120361 0.941141188144683838
-1.46520876884460449 -1.91531670093536377 0.754551172256469727
1.83213436603546143 -1.07471346855163574 0.420960694551467896
0.0130425542593002319 2.87034797668457031 0.222994670271873474
1.58254265785217285 1.11712121963500977 0.330773085355758667
-0.451366066932678223 -2.77706718444824219 0.3063850998878479
-2.15787506103515625 1.76598501205444336 1.32574820518493652
-1.01808500289916992 -3.07419228553771973 0.847522258758544922
-1.21992707252502441 -1.1222769021987915 0.537839412689208984
-0.924450814723968506 0.145065665245056152 0.328234553337097168
-2.73210573196411133 -0.343356162309646606 1.21958351135253906
0.996671497821807861 2.00861930847167969 0.505280375480651855
3.24697327613830566 1.23796534538269043 0.688402652740478516
-2.68970990180969238 -1.75579714775085449 0.937579333782196045
-2.82587075233459473 -1.8105311393737793 1.43155455589294434
1.55032527446746826 2.23843979835510254 0.713490664958953857
-1.70701396465301514 2.08341240882873535 1.64159893989562988
1.1607975959777832 2.41520285606384277 0.736757040023803711
1.44781780242919922 2.19127988815307617 1.1145939826965332
-2.20754837989807129 -3.08555817604064941 1.75604856014251709
-0.880845427513122559 2.83681750297546387 0.902496576309204102
3.02833795547485352 -0.268485903739929199 0.497768312692642212
3.18563055992126465 -0.567005813121795654 0.983587503433227539
-1.38142108917236328 -3.02077436447143555 0.581371545791625977
0.030660673975944519 -2.28704357147216797 0.396731972694396973
0.153928428888320923 2.15096211433410645 0.192994982004165649
-1.60883855819702148 -3.25726747512817383 1.96043956279754639
0.00450357794761657715 -1.57820689678192139 0.623471319675445557
-2.6985008716583252 -1.08316266536712646 1.26789546012878418
-2.42062640190124512 1.95730316638946533 0.387002527713775635
-2.02419662475585938 2.06109738349914551 1.21636068820953369
1.53114795684814453 -2.32065701484680176 0.541405737400054932
-1.92960882186889648 0.601289808750152588 0.670478165149688721
0.115606836974620819 2.89747858047485352 0.335870921611785889
-1.60554111003875732 2.81476974487304688 1.64685618877410889
-1.55418086051940918 2.81236171722412109 1.30941462516784668
-2.75441741943359375 -0.188167333602905273 1.3082658052444458
3.15818667411804199 0.351885020732879639 0.546467900276184082
2.34948110580444336 -2.15051174163818359 1.20699727535247803
-2.2224268913269043 2.19686770439147949 0.480335742235183716
2.04916000366210938 -2.09807467460632324 0.631502628326416016
0.77300727367401123 -0.840191125869750977 0.383912473917007446
3.14840078353881836 -0.763341724872589111 0.563886940479278564
-2.1258552074432373 -2.85985970497131348 0.68598705530166626
3.50675463676452637 -0.507415294647216797 0.51394343376159668
0.554821014404296875 2.53474020957946777 1.58800458908081055
-0.154516488313674927 -3.0430762767791748 1.02115392684936523
3.18770194053649902 1.31247615814208984 0.597802817821502686
-0.914019346237182617 -2.94009041786193848 0.265761822462081909
3.08754658699035645 -0.687586843967437744 1.08489716053009033
2.4208376407623291 0.599817097187042236 0.240623116493225098
-0.000631302595138549805 2.80142712593078613 0.252238094806671143
-0.990325510501861572 -0.299501627683639526 0.279065310955047607
