ply
format ascii 1.0
element vertex 256
comment vertices
property float x
property float y
property float z
end_header
-0.900004267692565918 -2.24014806747436523 0.633105158805847168
0.0935603082180023193 4.12407016754150391 0.985738992691040039
1.4619600772857666 0.343058884143829346 1.31852328777313232
-1.54354047775268555 1.27296113967895508 0.994201838970184326
0.802987158298492432 -2.32104706764221191 1.36067318916320801
1.52526354789733887 2.2161705493927002 1.04532599449157715
-1.518180251121521 0.224134936928749084 1.63595747947692871
-1.59960854053497314 2.51401567459106445 1.41472339630126953
1.20552313327789307 -0.596576452255249023 0.649603426456451416
1.87736499309539795 2.43698549270629883 1.4848484992980957
-1.37043964862823486 -2.06034302711486816 1.3919295072555542
-0.966054081916809082 3.45899486541748047 0.432116121053695679
-0.18449719250202179 1.15724015235900879 0.89757084846496582
-1.47080743312835693 -0.662660837173461914 1.12081718444824219
0.574990928173065186 -2.52854800224304199 0.98150026798248291
1.55931007862091064 0.539650440216064453 1.13874268531799316
1.26347291469573975 3.90058994293212891 0.409559667110443115
-0.193808108568191528 0.136453196406364441 1.54824709892272949
1.53390252590179443 -1.12373006343841553 1.22449898719787598
-0.0215920954942703247 0.538918435573577881 0.640748262405395508
-1.54382264614105225 1.22043001651763916 1.17855405807495117
0.255198270082473755 2.74465584754943848 0.707034587860107422
1.53538072109222412 1.51725959777832031 1.20622563362121582
-0.42731967568397522 -2.60172867774963379 1.16371095180511475
-0.00606486201286315918 -0.756681263446807861 0.537896156311035156
-1.51505780220031738 1.91629719734191895 1.06465780735015869
-0.0606586486101150513 3.65108847618103027 0.710769951343536377
-1.8082730770111084 2.94705939292907715 0.590067386627197266
0.783859789371490479 1.43372082710266113 0.905107498168945312
-1.33346426486968994 -1.79149603843688965 0.93106454610824585
-1.47354745864868164 -0.945534467697143555 1.02563023567199707
1.77677440643310547 2.46960783004760742 1.35428130626678467
-1.51878499984741211 0.155396908521652222 1.1851266622543335
-0.208355605602264404 1.36525917053222656 0.647430300712585449
1.32971906661987305 -1.69230461120605469 1.41233479976654053
-1.10657358169555664 0.415422677993774414 0.91124957799911499
1.56672811508178711 -0.437983244657516479 1.23729300498962402
1.07214832305908203 0.428458482027053833 0.781466305255889893
0.131550326943397522 0.872041285037994385 0.778353273868560791
1.48263907432556152 1.26277124881744385 1.45762252807617188
-0.143623441457748413 0.246578618884086609 1.76178574562072754
-1.33070540428161621 -1.27150869369506836 0.801487267017364502
-0.0200257599353790283 3.41487693786621094 0.692315936088562012
0.705389499664306641 -1.41391515731811523 0.698557436466217041
1.43063032627105713 -1.54538440704345703 1.43067312240600586
-0.510841071605682373 2.45879125595092773 0.90216362476348877
-0.95903480052947998 -2.57822728157043457 1.09669625759124756
1.87438571453094482 3.2795097827911377 1.02609336376190186
0.149127528071403503 -2.50696420669555664 1.54317772388458252
1.0700916051864624 3.23141860961914062 0.340284258127212524
-0.233822017908096313 -2.575653076171875 1.0409693717956543
1.57694840431213379 1.36926579475402832 1.28510069847106934
0.45670655369758606 -0.0804694592952728271 0.629745066165924072
0.812816739082336426 -2.26271939277648926 1.14278769493103027
1.50684225559234619 0.655852675437927246 1.11903142929077148
-1.5447990894317627 0.800583779811859131 1.26163268089294434
1.45190668106079102 -0.599406242370605469 1.2648768424987793
-0.0283933877944946289 1.01303517818450928 0.656941592693328857
-1.52929782867431641 1.88364064693450928 1.33017277717590332
-1.58031153678894043 0.729980409145355225 1.45578408241271973
-0.249533236026763916 1.13384783267974854 0.628866732120513916
0.0480514764785766602 1.02457666397094727 0.747744083404541016
-0.476146072149276733 -2.59721112251281738 1.36071515083312988
1.52349174022674561 -0.123837247490882874 1.23296225070953369
-0.604240119457244873 1.16116237640380859 0.952370822429656982
-0.0300790965557098389 -1.61029303073883057 0.712913334369659424
1.59848415851593018 1.83101630210876465 1.40057754516601562
-1.64418685436248779 3.75457382202148438 0.643546938896179199
-0.120983004570007324 3.25866508483886719 0.832065999507904053
-1.6648329496383667 2.40240287780761719 0.698717415332794189
-0.141568183898925781 0.427552133798599243 1.2579120397567749
-1.56256818771362305 2.56260132789611816 1.18783104419708252
1.50264787673950195 0.0503668040037155151 1.00120449066162109
0.168764740228652954 -2.5643310546875 1.20028400421142578
1.28446543216705322 -1.79011189937591553 1.1457359790802002
1.0673898458480835 2.51764178276062012 0.96799236536026001
1.61159992218017578 -1.07277953624725342 1.37252616882324219
-1.52987408638000488 0.127926766872406006 1.21842789649963379
1.64298868179321289 2.07799553871154785 1.30117332935333252
-1.5035470724105835 1.49142420291900635 1.32891654968261719
1.02149605751037598 -2.03187942504882812 0.982648730278015137
-0.689960718154907227 -2.58186960220336914 1.10274624824523926
1.49835205078125 1.02883446216583252 0.792337000370025635
-1.10482680797576904 -0.368493139743804932 0.933580756187438965
-1.40036284923553467 1.85381197929382324 0.966493427753448486
-1.39440703392028809 -1.54840767383575439 1.03880989551544189
-1.48761928081512451 -0.452673465013504028 1.11151289939880371
0.521449565887451172 -0.743039548397064209 0.187978416681289673
-1.43954455852508545 -1.12171697616577148 0.896582722663879395
1.56289470195770264 2.23818349838256836 1.35726988315582275
-0.445467591285705566 0.111124336719512939 0.828945815563201904
0.198439434170722961 0.683412611484527588 0.724805951118469238
-1.51434934139251709 -0.0729281902313232422 1.11376523971557617
0.160384461283683777 -2.58699488639831543 0.983922004699707031
-1.13003325462341309 -2.62152481079101562 1.17024075984954834
0.750333786010742188 4.08936548233032227 0.841897487640380859
-0.462109506130218506 3.75308966636657715 0.826483011245727539
-1.36239790916442871 -1.92062544822692871 1.0404670238494873
-1.51254010200500488 1.8240807056427002 1.17474269866943359
1.43656456470489502 1.74418139457702637 0.846491515636444092
-1.52924668788909912 0.575656294822692871 1.09842038154602051
-0.0172624886035919189 1.40659904479980469 0.6737823486328125
1.17432761192321777 -1.33342397212982178 1.05046713352203369
1.75309836864471436 2.44873857498168945 1.19595038890838623
1.51751828193664551 1.01248550415039062 1.21643936634063721
-0.160070344805717468 1.05148124694824219 0.789609909057617188
0.509275078773498535 3.2498469352722168 0.963431835174560547
-1.58372259140014648 0.715521395206451416 1.11635434627532959
1.57947814464569092 0.111064799129962921 1.3424687385559082
-0.205205291509628296 1.18265664577484131 0.640275895595550537
1.50350475311279297 1.24858832359313965 0.933379471302032471
1.43997561931610107 -0.460527688264846802 0.908309638500213623
-0.618696451187133789 1.71620786190032959 0.822941124439239502
1.79630517959594727 2.42208552360534668 1.27702009677886963
-0.189538687467575073 0.0491316467523574829 1.50252151489257812
0.974346399307250977 -0.0844646692276000977 0.425105899572372437
-1.37898385524749756 -1.51590490341186523 1.36502552032470703
1.47557485103607178 -1.51086664199829102 1.16812407970428467
-0.706140697002410889 -1.39711999893188477 0.763460814952850342
0.022405475378036499 3.50653529167175293 0.768677234649658203
-1.31194841861724854 -2.16062402725219727 1.14556431770324707
0.975617051124572754 -2.15283942222595215 1.35850214958190918
1.58628284931182861 3.48578524589538574 0.73471522331237793
1.58332383632659912 0.911288678646087646 1.51563167572021484
0.372617602348327637 1.97103965282440186 0.814036309719085693
-0.265458911657333374 0.734503507614135742 0.562684178352355957
-1.52870678901672363 2.28276681900024414 1.19211244583129883
0.0527164041996002197 1.2286069393157959 0.481449335813522339
-1.17168688774108887 -2.1271064281463623 1.02152085304260254
0.290693700313568115 0.572934627532958984 0.739397346973419189
1.45852649211883545 -1.20851075649261475 1.24030160903930664
-1.46749007701873779 -1.14380812644958496 0.930483639240264893
1.56682384014129639 -0.908681571483612061 1.30594432353973389
-0.120033025741577148 0.529605090618133545 1.04412257671356201
1.63891506195068359 3.03873133659362793 0.895661234855651855
-0.412170886993408203 -2.75128602981567383 0.569389820098876953
0.517821431159973145 0.292294323444366455 0.957956194877624512
1.0626751184463501 3.64966535568237305 0.489317238330841064
0.566782176494598389 0.741199851036071777 0.7832450270652771
-0.287925511598587036 4.07866477966308594 0.985346674919128418
1.48658931255340576 -0.642151474952697754 1.17550909519195557
-0.172197818756103516 1.28144264221191406 0.708766520023345947
-0.514059185981750488 0.609928727149963379 0.536178290843963623
-1.51355922222137451 3.09934568405151367 0.848480880260467529
-1.52723050117492676 0.272956639528274536 1.2953495979309082
0.318372040987014771 -2.49021196365356445 1.3241962194442749
0.293660402297973633 -1.12628865242004395 0.297268897294998169
-0.350007951259613037 0.111965924501419067 1.60939943790435791
-1.52284526824951172 1.37900686264038086 1.22568464279174805
-0.657418668270111084 -2.6302635669708252 1.12595236301422119
-1.51360023021697998 -0.0900853201746940613 1.06149756908416748
0.272657573223114014 -2.53023147583007812 0.645555317401885986
-0.399984538555145264 3.26311993598937988 0.573318362236022949
0.219037532806396484 1.48759543895721436 0.767862260341644287
-0.169730395078659058 3.53470492362976074 0.65652000904083252
-0.105053037405014038 -2.55402398109436035 1.20029735565185547
-1.56018900871276855 1.55910670757293701 1.22014546394348145
1.51272332668304443 1.48005425930023193 1.23680758476257324
-0.392160207033157349 -2.5786135196685791 1.14670336246490479
-0.17035222053527832 1.24130821228027344 0.904696524143218994
-1.51212608814239502 -0.881346762180328369 0.824421167373657227
0.119686394929885864 2.78636908531188965 0.689009904861450195
1.15188932418823242 -2.03170156478881836 1.28193044662475586
-1.50832116603851318 0.594710409641265869 1.17709851264953613
1.38388478755950928 0.609258651733398438 0.806450068950653076
1.51345574855804443 1.02251648902893066 1.33436119556427002
1.15691983699798584 -1.91198146343231201 1.14737749099731445
1.0588613748550415 -0.96887660026550293 0.467024177312850952
-0.0324441194534301758 3.82989668846130371 0.896956741809844971
1.62077498435974121 1.35641825199127197 1.43762850761413574
-1.17979252338409424 -2.45544624328613281 0.888721346855163574
0.971001088619232178 -2.21453428268432617 1.23524928092956543
1.46833622455596924 -1.45985543727874756 1.30535268783569336
1.07416820526123047 2.99974632263183594 0.650302410125732422
-1.49682939052581787 1.05471456050872803 1.3009113073348999
1.48271465301513672 -0.13015766441822052 1.20836782455444336
-1.50471854209899902 -0.100915759801864624 1.20296120643615723
1.59654688835144043 2.26010012626647949 1.4013824462890625
1.37169945240020752 -0.00765192508697509766 0.520055949687957764
1.61433279514312744 1.79435837268829346 1.37684178352355957
-0.00429670512676239014 0.455060184001922607 1.51860284805297852
0.570083260536193848 -2.48855900764465332 1.20725119113922119
1.51061451435089111 0.327648252248764038 1.18260776996612549
0.185890674591064453 1.21730482578277588 0.631930053234100342
-1.55919015407562256 2.41092872619628906 1.026358962059021
0.347542762756347656 -0.448931634426116943 0.537956893444061279
1.51599407196044922 1.04984676837921143 1.14245665073394775
0.357455670833587646 -1.77471542358398438 0.850569188594818115
-0.0527432262897491455 0.828121662139892578 0.683397948741912842
-1.48629128932952881 1.90618252754211426 1.0002744197845459
1.09896194934844971 2.07813167572021484 0.838971436023712158
-0.125801235437393188 1.05327415466308594 0.734493851661682129
-0.152288958430290222 0.215533390641212463 1.5087047815322876
-1.52419662475585938 1.1049342155456543 1.12395668029785156
1.55856871604919434 -1.29049336910247803 1.21746706962585449
1.57826888561248779 -0.43785625696182251 1.33523690700531006
0.7398681640625 -1.98454189300537109 0.988960802555084229
-0.674018621444702148 2.07076668739318848 0.845034897327423096
-1.39709413051605225 -1.52927350997924805 0.909851789474487305
1.55024898052215576 2.40564417839050293 0.907981693744659424
-0.428729027509689331 -1.94942700862884521 0.67491990327835083
1.50851666927337646 1.39205813407897949 0.718593478202819824
-1.23212170600891113 -2.31875514984130859 1.18525779247283936
-0.583748579025268555 3.4467775821685791 0.826382875442504883
-1.1134490966796875 2.99245786666870117 0.891697704792022705
1.5627065896987915 0.0810712128877639771 1.27517175674438477
0.0617432668805122375 -2.53381705284118652 1.21729052066802979
-1.28713512420654297 1.14547276496887207 0.933119833469390869
-1.49746882915496826 2.10687518119812012 1.15416824817657471
-0.101416327059268951 3.3246767520904541 0.775347530841827393
-1.5458146333694458 0.887316048145294189 1.23197460174560547
-1.51882314682006836 2.24480676651000977 1.3770902156829834
-0.773036062717437744 -2.60781502723693848 1.15085816383361816
1.45556104183197021 -1.36282861232757568 1.13420724868774414
1.78317046165466309 2.71054553985595703 0.794979870319366455
0.160139933228492737 1.56294214725494385 0.608563780784606934
1.57101166248321533 1.77890980243682861 1.33682465553283691
-1.53394973278045654 0.311424672603607178 1.31058156490325928
1.73346209526062012 3.6427161693572998 0.417940884828567505
1.28782236576080322 -0.889842808246612549 1.01896798610687256
-1.49293386936187744 -0.8867378830909729 1.1163095235824585
-0.490134596824645996 1.56248009204864502 0.71012723445892334
-1.59605085849761963 -1.36918306350708008 1.10882329940795898
1.68458402156829834 1.54839777946472168 1.48382472991943359
-1.66974818706512451 3.45203781127929688 0.754017233848571777
-0.0499208308756351471 -2.57438325881958008 1.17426383495330811
-1.59698200225830078 0.304260581731796265 1.16255533695220947
1.5654071569442749 0.507810711860656738 1.46202349662780762
-0.158870875835418701 1.01140880584716797 0.822486579418182373
0.405916035175323486 3.12503647804260254 0.675517082214355469
1.53333008289337158 1.91566061973571777 1.40825295448303223
-1.57021212577819824 0.398997783660888672 1.66148078441619873
-1.52436578273773193 0.482966184616088867 1.16032886505126953
-0.555939853191375732 -2.57542920112609863 1.03462719917297363
0.972274541854858398 -1.6274564266204834 1.06747329235076904
-0.144247770309448242 -1.13091433048248291 0.466352581977844238
-1.31829774379730225 -2.14484548568725586 1.11199259757995605
-1.56123793125152588 1.64054977893829346 1.12512373924255371
0.560469508171081543 -2.44485616683959961 1.25341010093688965
-0.150754004716873169 3.90053081512451172 0.868399739265441895
1.35983753204345703 2.5787043571472168 0.710994184017181396
-1.65392124652862549 -0.560268759727478027 1.16208148002624512
-1.4936751127243042 1.81943058967590332 1.36915671825408936
1.60953342914581299 -0.668175756931304932 1.1220325231552124
0.63333427906036377 3.65797519683837891 0.916749000549316406
-0.113241195678710938 1.00758862495422363 0.654001295566558838
-0.750895023345947266 0.860393881797790527 0.823188185691833496
-1.50151705741882324 1.46486759185791016 1.1526796817779541
-1.26435089111328125 3.57251358032226562 0.49547278881072998
0.309370368719100952 1.21051895618438721 0.668415307998657227
-0.377630621194839478 1.816750168800354 0.781891107559204102
1.59505140781402588 0.916280627250671387 1.17474985122680664
-0.982220649719238281 -2.58431506156921387 0.966406404972076416
-1.63667917251586914 2.46680450439453125 1.14644289016723633
-0.286375284194946289 0.948370933532714844 0.611854910850524902
0.749241471290588379 1.06597256660461426 1.03320598602294922
