ply
format ascii 1.0
element vertex 23
comment vertices
property float x
property float y
property float z
end_header
-3.58125662803649902 -0.0384966097772121429 0.706320226192474365
2.50816154479980469 2.27703142166137695 0.213853999972343445
0.640916168689727783 -3.17011785507202148 1.38901662826538086
2.29869246482849121 1.91016519069671631 0.270008981227874756
-0.321978271007537842 -2.66145753860473633 0.303870439529418945
-2.66486454010009766 -1.46791863441467285 0.47143891453742981
-0.422380506992340088 -1.87491273880004883 0.177124440670013428
-3.45962047576904297 -0.0122028440237045288 0.487166762351989746
0.254363328218460083 -3.12650418281555176 1.3866497278213501
2.32191777229309082 1.83337366580963135 0.411296665668487549
1.93927490711212158 2.93684816360473633 0.34740525484085083
2.3499305248260498 2.03049588203430176 0.218448847532272339
2.58545112609863281 -0.447960227727890015 1.4702688455581665
-0.11084350198507309 -2.84167623519897461 0.345112860202789307
-3.40850710868835449 -0.147298485040664673 0.503433406352996826
-0.138898208737373352 -2.85150384902954102 0.348898231983184814
-3.4084930419921875 -0.197296708822250366 0.50235903263092041
-0.436159402132034302 -2.39961624145507812 0.268364906311035156
0.42760777473449707 -3.17472362518310547 1.34178519248962402
2.40879702568054199 1.77029752731323242 0.315035015344619751
-3.51548981666564941 -0.255859613418579102 0.706805944442749023
-3.47496390342712402 -0.0641732066869735718 0.540334522724151611
-2.36441946029663086 -1.43493139743804932 0.452674776315689087
