ply
format ascii 1.0
element vertex 20
comment vertices
property float x
property float y
property float z
end_header
0.0320550724864006042 3.0083918571472168 0.303268343210220337
-1.7054297924041748 -3.00921058654785156 0.683986485004425049
-0.689192056655883789 3.21939516067504883 1.19887304306030273
2.54449844360351562 -1.15187299251556396 0.533799290657043457
-2.39709162712097168 -2.33409905433654785 0.343057751655578613
3.19267416000366211 0.177778527140617371 0.397915005683898926
2.42154645919799805 1.58581006526947021 0.523047864437103271
-0.463018625974655151 3.23221635818481445 1.23812675476074219
3.35441899299621582 0.123382002115249634 0.492805540561676025
2.41034221649169922 1.70469653606414795 0.509551823139190674
3.17941951751708984 0.248921498656272888 0.396926701068878174
2.19197249412536621 1.74774718284606934 0.477254331111907959
0.110094539821147919 2.92709755897521973 0.252876341342926025
3.25807905197143555 0.0940112993121147156 0.445860803127288818
0.0130425542593002319 2.87034797668457031 0.222994670271873474
0.153928428888320923 2.15096211433410645 0.192994982004165649
0.115606836974620819 2.89747858047485352 0.335870921611785889
3.15818667411804199 0.351885020732879639 0.546467900276184082
-2.1258552074432373 -2.85985970497131348 0.68598705530166626
-0.000631302595138549805 2.80142712593078613 0.252238094806671143
