ply
format ascii 1.0
element vertex 256
comment vertices
property float x
property float y
property float z
end_header
0.222261637449264526 1.93360042572021484 0.69890141487121582
1.35308539867401123 -3.12917494773864746 1.7919766902923584
-0.71293485164642334 -1.25478446483612061 0.749488711357116699
1.40469110012054443 -1.85408174991607666 0.586544215679168701
-0.241273358464241028 -0.072903364896774292 1.94798374176025391
2.0391082763671875 3.46521592140197754 0.708936750888824463
-0.779405295848846436 1.54142570495605469 1.99968910217285156
0.30525660514831543 0.0251730084419250488 0.896187484264373779
1.32390737533569336 2.43692135810852051 1.75699973106384277
0.115728721022605896 -1.83570694923400879 2.06555294990539551
-0.82486879825592041 1.43524658679962158 1.15328681468963623
1.34337460994720459 2.04284143447875977 0.564827144145965576
0.733017086982727051 -2.29917478561401367 1.36516833305358887
0.334126412868499756 -1.69780313968658447 0.567014813423156738
-0.821743488311767578 -1.07515478134155273 2.0612943172454834
-0.313461244106292725 1.34099268913269043 0.951111793518066406
-0.409068405628204346 -0.436046034097671509 1.28116762638092041
1.93928003311157227 -2.70631003379821777 0.383637011051177979
-0.609381020069122314 1.29313266277313232 0.574705004692077637
1.46573114395141602 -1.90574085712432861 1.81623923778533936
0.0967426151037216187 1.99608218669891357 1.96763134002685547
0.870308816432952881 2.29126906394958496 0.871138870716094971
-0.330266326665878296 -0.982888579368591309 0.540756702423095703
-0.552686572074890137 0.806552529335021973 1.78379654884338379
0.133717089891433716 -1.78977298736572266 1.27758598327636719
0.957196474075317383 1.46907806396484375 0.75519871711730957
0.294609427452087402 -0.953622698783874512 2.21166372299194336
-0.387407809495925903 0.566901803016662598 1.29266262054443359
0.566441059112548828 -1.75271093845367432 0.766682684421539307
0.544375121593475342 -1.29561281204223633 0.470768570899963379
0.406808853149414062 2.25698280334472656 1.72308170795440674
0.573012232780456543 -2.02084803581237793 1.6533653736114502
-0.0205860212445259094 1.15983009338378906 2.12004351615905762
-0.051798403263092041 1.52816033363342285 0.603353619575500488
1.39321660995483398 2.68238973617553711 1.00229179859161377
-0.743268013000488281 -1.0425262451171875 1.61827433109283447
-0.48361968994140625 0.222891882061958313 1.19874787330627441
0.514696717262268066 2.01609301567077637 0.520438671112060547
-0.604955673217773438 1.15678739547729492 1.80747199058532715
0.456400364637374878 0.863616704940795898 1.15983033180236816
0.138480842113494873 2.17960405349731445 0.594651639461517334
-0.232701331377029419 -1.70935285091400146 2.08989977836608887
-0.690748870372772217 -0.102284297347068787 1.08291923999786377
0.161561518907546997 2.06558632850646973 1.07362258434295654
0.4346504807472229 -1.92856836318969727 1.64907252788543701
-0.589237093925476074 -0.317758560180664062 1.51916098594665527
1.29460024833679199 -2.26950550079345703 0.795756995677947998
-0.542568802833557129 -1.34577810764312744 0.622193574905395508
-0.679517209529876709 0.948085367679595947 1.4931943416595459
0.66008603572845459 -1.48095476627349854 2.05948209762573242
0.739391326904296875 -0.800271868705749512 0.944956779479980469
0.89425206184387207 2.06150341033935547 1.9474557638168335
1.47654557228088379 -2.37190008163452148 1.78717255592346191
-0.350706934928894043 -1.64035546779632568 1.32059323787689209
-0.189850568771362305 -1.26123785972595215 2.29105901718139648
0.50127023458480835 2.21417999267578125 0.421355217695236206
-0.495085835456848145 1.85186541080474854 0.83520972728729248
-0.314172923564910889 1.69662058353424072 2.10714626312255859
-0.306289732456207275 1.92574775218963623 2.03133702278137207
0.772980332374572754 2.03462648391723633 1.76180994510650635
-0.326941639184951782 -0.494611501693725586 1.13828551769256592
-0.202798500657081604 0.620597958564758301 2.0258629322052002
-0.954108357429504395 -1.34527587890625 0.801517128944396973
1.75026524066925049 -2.42341208457946777 1.0327986478805542
0.448514938354492188 -1.76041769981384277 0.353440612554550171
-0.720069050788879395 1.34835505485534668 0.700692415237426758
-0.267482906579971313 -0.660633563995361328 2.13609480857849121
-0.323793262243270874 1.98954319953918457 0.551638901233673096
-0.874413788318634033 1.46918034553527832 1.95331263542175293
-0.642053186893463135 0.372718334197998047 1.75656974315643311
-0.473829448223114014 0.438853681087493896 0.867572605609893799
0.245566189289093018 -1.55418860912322998 0.572612762451171875
1.1237490177154541 -2.16339230537414551 1.64918303489685059
0.458556294441223145 -1.97700595855712891 0.905779898166656494
0.0292450785636901855 -1.53541398048400879 0.690916776657104492
-0.0232318341732025146 1.94392824172973633 1.85377585887908936
0.545830607414245605 -1.6319195032119751 0.549753427505493164
0.328971236944198608 -1.85773897171020508 1.6416853666305542
0.71557694673538208 1.50082814693450928 0.986320257186889648
-0.50945591926574707 -0.0466768741607666016 1.21795117855072021
-0.851601660251617432 1.1648707389831543 1.64139902591705322
0.151980742812156677 -1.77370047569274902 0.926780223846435547
0.52013784646987915 1.97405946254730225 2.01385855674743652
0.465268105268478394 1.89447522163391113 0.514425098896026611
0.153405308723449707 -2.14586567878723145 1.79619383811950684
-0.49464726448059082 -1.41229009628295898 1.75113070011138916
-0.582410573959350586 -0.41443634033203125 1.23137402534484863
-0.40304410457611084 1.78079533576965332 2.06164669990539551
0.483006715774536133 -1.86630368232727051 0.829664647579193115
0.199675798416137695 2.00285887718200684 0.736308813095092773
-0.363317757844924927 -0.498612105846405029 0.732212603092193604
-0.433442801237106323 1.15256714820861816 2.19184231758117676
0.512196242809295654 -1.89726293087005615 1.48030197620391846
0.115876927971839905 1.91843199729919434 0.782646656036376953
-0.62637019157409668 -0.20244203507900238 1.74066805839538574
0.0626372843980789185 1.63517105579376221 1.92334508895874023
0.427947282791137695 2.17126369476318359 0.777252018451690674
-0.083192192018032074 -1.61033821105957031 0.835285484790802002
0.64770960807800293 -2.08881163597106934 0.581605374813079834
-0.706733405590057373 1.79254674911499023 0.799887001514434814
1.00025546550750732 1.82932233810424805 0.515705764293670654
-0.415513336658477783 0.56854712963104248 1.36534404754638672
0.0566618889570236206 -1.82161188125610352 1.85116338729858398
-0.545888364315032959 1.24598908424377441 1.28760242462158203
-0.606760799884796143 -1.38072311878204346 2.25397491455078125
-0.776391983032226562 -1.08074069023132324 2.07286667823791504
-0.421817749738693237 -0.41104048490524292 1.00768351554870605
0.618950188159942627 -2.17653703689575195 0.503785371780395508
-0.278996288776397705 -1.69559812545776367 0.816252171993255615
-0.528440296649932861 0.0665847435593605042 1.25512456893920898
-0.562724411487579346 1.56691884994506836 1.50997447967529297
0.272954583168029785 -1.39074611663818359 2.18538546562194824
-0.830863237380981445 -0.982788145542144775 1.07478940486907959
1.31795978546142578 2.44861340522766113 1.72201097011566162
-0.91627424955368042 -1.22639346122741699 1.44114363193511963
-0.65343630313873291 -0.768052816390991211 1.94267380237579346
-0.531809449195861816 0.458161592483520508 1.41015291213989258
0.634498000144958496 2.02567648887634277 0.696564733982086182
0.688762784004211426 1.89385449886322021 0.699771642684936523
0.177677959203720093 1.79460632801055908 0.621398210525512695
-0.351638257503509521 0.86125636100769043 1.07280659675598145
0.728146612644195557 -1.84589278697967529 1.86502540111541748
-0.0810717642307281494 2.06675100326538086 1.60246527194976807
0.924478888511657715 2.3755946159362793 0.710593461990356445
1.95098042488098145 2.37507987022399902 1.14658796787261963
0.522786617279052734 -2.09097146987915039 1.64023482799530029
0.640155375003814697 -1.74817442893981934 0.817972004413604736
-0.00120759441051632166 -1.78889942169189453 2.25939846038818359
-0.120656311511993408 1.72761940956115723 0.836329638957977295
-0.887709259986877441 1.2720562219619751 1.92199468612670898
1.70678031444549561 3.16007661819458008 1.2170264720916748
0.626648068428039551 -1.79622352123260498 1.95219063758850098
-0.00422364473342895508 2.0399162769317627 0.914391994476318359
0.93697512149810791 2.05335736274719238 1.83383381366729736
-0.534042596817016602 -0.875546693801879883 0.789908051490783691
1.48881375789642334 -2.60290956497192383 1.09252047538757324
-0.15720704197883606 1.82103562355041504 0.618766367435455322
-0.641927659511566162 -0.489976167678833008 1.90246427059173584
-0.613869667053222656 -0.226064532995223999 1.44250392913818359
-0.499740064144134521 0.264851778745651245 1.03966391086578369
-0.203076481819152832 1.43233323097229004 1.55776071548461914
0.203700080513954163 -1.44983088970184326 0.338873803615570068
0.648596048355102539 2.35219931602478027 1.785286545753479
-0.220511898398399353 1.94204592704772949 1.91091322898864746
0.396940141916275024 -1.76861608028411865 2.15364956855773926
1.14459538459777832 -2.07133197784423828 1.72952532768249512
0.0954431593418121338 0.328435719013214111 1.03916287422180176
-0.435144960880279541 -0.888202846050262451 2.12122678756713867
1.30928421020507812 -2.0695197582244873 0.714222729206085205
-0.569020092487335205 0.65479964017868042 1.51860857009887695
-0.214052855968475342 1.71565580368041992 0.599886178970336914
0.427838891744613647 2.01288914680480957 0.494137197732925415
-0.57270127534866333 0.739183664321899414 1.92309927940368652
-0.755591273307800293 -0.568512201309204102 1.41843831539154053
-0.903357505798339844 1.50551581382751465 1.66475009918212891
-0.543459534645080566 0.951812803745269775 1.2471851110458374
-0.491591989994049072 -0.874904215335845947 0.971240043640136719
0.0343666970729827881 2.2394411563873291 1.74070143699645996
-0.289042562246322632 -0.0188987106084823608 0.940236091613769531
-0.490166246891021729 1.40838336944580078 0.780543804168701172
0.88857734203338623 -0.673406004905700684 0.818058252334594727
0.300471514463424683 -1.86796462535858154 1.92345309257507324
0.332515895366668701 -1.70232856273651123 1.51490449905395508
1.2811959981918335 -2.79369330406188965 1.82283163070678711
-0.816522657871246338 1.34906864166259766 1.92768347263336182
-0.838232040405273438 -1.36820125579833984 0.855491876602172852
0.622641384601593018 -2.15013313293457031 0.94611513614654541
-0.525524258613586426 1.43100833892822266 1.95525527000427246
-0.383923828601837158 -0.153728798031806946 1.10599064826965332
-1.05094063282012939 -1.39667654037475586 1.32609355449676514
-0.599796772003173828 0.856314539909362793 1.26027631759643555
0.00894662737846374512 -1.57335472106933594 0.357473701238632202
0.222430318593978882 1.98870253562927246 1.84639954566955566
-0.26406174898147583 1.60363006591796875 0.796489119529724121
0.975288927555084229 2.33595466613769531 1.60543715953826904
0.768821179866790771 -2.11426615715026855 0.648332893848419189
-0.0526175647974014282 1.18248319625854492 0.864295303821563721
0.635332167148590088 -0.336658000946044922 0.949824869632720947
0.100124120712280273 -1.93186008930206299 2.06080317497253418
-0.650249063968658447 -1.25854480266571045 1.3234403133392334
-0.0923985913395881653 -0.450278043746948242 2.07782506942749023
0.564217031002044678 -1.2939380407333374 2.12385988235473633
-0.0764166489243507385 -1.06064093112945557 2.22566056251525879
-0.373129159212112427 -1.65281593799591064 2.17681789398193359
-0.78240889310836792 -0.373805791139602661 1.09998321533203125
-0.09236106276512146 -1.76130080223083496 0.866871774196624756
-0.794193267822265625 1.28475558757781982 1.04814231395721436
0.91211402416229248 2.14328217506408691 0.481952697038650513
-0.043218076229095459 -1.65896642208099365 0.550161540508270264
0.379891186952590942 1.87556779384613037 0.453259050846099854
0.726166665554046631 -2.01660943031311035 0.811152458190917969
-0.697883486747741699 0.808553993701934814 1.4174809455871582
-0.831206560134887695 1.08307039737701416 1.81812071800231934
-0.300705939531326294 0.923015236854553223 2.01482200622558594
0.514185249805450439 1.99991738796234131 1.77018833160400391
-0.667964339256286621 -1.42764139175415039 2.14577054977416992
0.228350341320037842 -1.88726663589477539 1.40984344482421875
-0.553378760814666748 -1.41541993618011475 0.95972675085067749
-0.175765573978424072 -0.779653310775756836 0.616060793399810791
0.881768226623535156 -2.01395630836486816 1.7839052677154541
0.834914684295654297 -2.03953337669372559 1.5815664529800415
0.908225119113922119 -1.64033222198486328 2.0282444953918457
-0.140626847743988037 -1.84703707695007324 1.47439050674438477
-0.0195413939654827118 1.98319864273071289 2.05281758308410645
0.672931849956512451 -1.69648802280426025 0.427896857261657715
-0.621391415596008301 1.710396409034729 0.970773279666900635
0.353941679000854492 1.97733962535858154 1.83372783660888672
-0.273259758949279785 1.3465346097946167 2.14756870269775391
0.393997490406036377 1.84017181396484375 0.636580765247344971
1.03649020195007324 1.35893380641937256 0.845791220664978027
0.314078599214553833 2.00664782524108887 1.88994228839874268
-0.513885140419006348 1.6958310604095459 1.87329590320587158
-0.370066821575164795 -0.4451121985912323 1.35500621795654297
0.476257681846618652 -1.66298329830169678 0.524893522262573242
-0.31615796685218811 -0.418228119611740112 1.73890590667724609
-0.312945395708084106 0.357422292232513428 1.75953149795532227
-0.204089909791946411 1.85758638381958008 1.97225749492645264
0.456007480621337891 1.98153567314147949 0.765604972839355469
1.67959439754486084 -1.99418675899505615 0.757598996162414551
1.7811659574508667 2.86842250823974609 1.24055099487304688
0.699729263782501221 -1.8832550048828125 0.905607044696807861
0.565883994102478027 -2.02899718284606934 0.614426553249359131
-0.126251682639122009 -1.72434043884277344 0.865052163600921631
1.57140851020812988 -2.1009671688079834 1.77162432670593262
-0.522173106670379639 0.343313813209533691 1.26162707805633545
0.430038750171661377 1.85699248313903809 0.57265770435333252
0.371892035007476807 1.87116527557373047 0.585614800453186035
0.216407448053359985 1.99971175193786621 0.598599076271057129
-0.567686557769775391 1.77427196502685547 1.97138237953186035
-0.0443029552698135376 1.99867284297943115 1.81815457344055176
0.244661465287208557 1.96320688724517822 1.99916958808898926
0.497214436531066895 -1.59566664695739746 0.43332594633102417
0.190270766615867615 -1.97558832168579102 1.86600756645202637
-0.520149469375610352 1.04835987091064453 1.8742060661315918
-0.655857861042022705 -0.590720117092132568 1.17366480827331543
-0.645848214626312256 -1.36833810806274414 1.48257744312286377
-0.0292351841926574707 -1.43375539779663086 0.613456010818481445
-0.541058659553527832 -1.35327327251434326 2.15110349655151367
-0.115570478141307831 1.88506996631622314 0.807067632675170898
0.234782248735427856 -1.83913266658782959 1.57322788238525391
1.02524673938751221 2.49010705947875977 0.740564465522766113
0.235112443566322327 -2.02105045318603516 1.11954188346862793
-0.344602227210998535 0.735101461410522461 1.10665583610534668
0.0343775749206542969 -0.725349128246307373 2.17785239219665527
-0.145252630114555359 -0.288402944803237915 0.964426159858703613
0.528118610382080078 -2.00337123870849609 1.11536967754364014
-0.824059665203094482 -0.749376058578491211 2.04808330535888672
-0.457920700311660767 1.5851130485534668 0.694882392883300781
0.3645133376121521 1.93838357925415039 0.719922959804534912
-0.412372350692749023 -1.4449007511138916 0.742303133010864258
0.208148568868637085 -1.69456589221954346 0.917947709560394287
-0.910339772701263428 -1.48898768424987793 0.958273172378540039
-0.713984549045562744 -1.3473966121673584 0.846053063869476318
-0.668359994888305664 1.25944304466247559 1.011116623878479
0.0506246089935302734 1.57470595836639404 0.795982420444488525
-0.267468422651290894 0.721560776233673096 0.908081471920013428
