ply
format ascii 1.0
element vertex 64
comment vertices
property float x
property float y
property float z
end_header
-1.75935673713684082 1.17350161075592041 1.38133502006530762
-1.40416038036346436 0.87369084358215332 0.541806399822235107
-0.758434116840362549 1.08680617809295654 0.318092435598373413
-0.742875814437866211 1.72284364700317383 0.694732904434204102
1.02525734901428223 -2.06594133377075195 0.355821549892425537
0.122547268867492676 -3.15734529495239258 0.718617022037506104
0.675520837306976318 -0.936848104000091553 0.667667269706726074
0.0848956108093261719 1.76914966106414795 0.313133567571640015
-1.31490564346313477 1.22928237915039062 0.405257731676101685
-1.08357810974121094 0.695642530918121338 0.457686007022857666
-1.24364817142486572 0.10578976571559906 0.77884221076965332
-1.2710040807723999 -0.331846415996551514 0.935319781303405762
-0.706848382949829102 -2.02682018280029297 0.652764201164245605
-0.738262295722961426 -0.698987483978271484 0.34585118293762207
-1.80275869369506836 -0.923887431621551514 1.44748783111572266
-0.886629462242126465 -0.895616829395294189 0.701460778713226318
-0.418401718139648438 0.80660712718963623 0.749646902084350586
0 0 0
0 0 0
0 0 0
0 0 0
0 0 0
0 0 0
0 0 0
0 0 0
0 0 0
0 0 0
0 0 0
0 0 0
0 0 0
0 0 0
0 0 0
0 0 0
0 0 0
0 0 0
0 0 0
0 0 0
0 0 0
0 0 0
0 0 0
0 0 0
0 0 0
0 0 0
0 0 0
0 0 0
0 0 0
0 0 0
0 0 0
0 0 0
0 0 0
0 0 0
0 0 0
0 0 0
0 0 0
0 0 0
0 0 0
0 0 0
0 0 0
0 0 0
0 0 0
0 0 0
0 0 0
0 0 0
0 0 0
