ply
format ascii 1.0
element vertex 256
comment vertices
property float x
property float y
property float z
end_header
1.83048844337463379 0.804508090019226074 0.570689797401428223
-1.48055565357208252 -2.90598726272583008 1.72911190986633301
-2.13110184669494629 1.86973559856414795 2.30393481254577637
1.10655426979064941 -2.66435003280639648 1.00468790531158447
-1.5589447021484375 -0.654368281364440918 0.477273643016815186
0.735223352909088135 2.20685720443725586 1.70625758171081543
3.26232719421386719 2.68903470039367676 0.923742771148681641
-0.666235029697418213 2.01149106025695801 0.239512845873832703
-1.18699026107788086 -2.8340449333190918 0.465170323848724365
-1.56103241443634033 -0.874283790588378906 2.23176145553588867
0.897853612899780273 -0.891725003719329834 1.05709755420684814
-0.259652435779571533 0.47916257381439209 0.933147907257080078
0.017060108482837677 -3.07745051383972168 1.04508543014526367
2.95427465438842773 1.05844449996948242 0.95603477954864502
0.487059414386749268 -0.675466477870941162 0.613750636577606201
1.06416308879852295 2.26109743118286133 1.25541353225708008
-1.76997983455657959 1.00907623767852783 1.26630902290344238
-0.712011396884918213 -2.15390944480895996 1.69753146171569824
-0.801156282424926758 1.95078206062316895 1.37381196022033691
2.48109817504882812 2.18076014518737793 0.71838688850402832
0.975301146507263184 0.531244754791259766 1.10255241394042969
0.563031554222106934 1.03498351573944092 0.734476208686828613
1.74855566024780273 2.07036495208740234 1.10068368911743164
1.10303092002868652 -2.30087089538574219 0.854429244995117188
0.810302793979644775 -0.333928078413009644 0.387140512466430664
-0.960443198680877686 0.90850830078125 0.318158537149429321
-1.83426082134246826 -0.58066260814666748 1.32351720333099365
3.00574660301208496 1.20928347110748291 0.737169921398162842
-1.99159598350524902 2.09447121620178223 1.31845080852508545
-0.00995454564690589905 -3.16517496109008789 0.911153495311737061
-0.827679634094238281 -3.11532211303710938 1.43715715408325195
-1.00086009502410889 2.02540397644042969 2.41193222999572754
-0.973695218563079834 -1.70457172393798828 0.523312926292419434
-0.310131371021270752 0.0490155518054962158 0.799583196640014648
-1.4904400110244751 -1.92634785175323486 1.80942988395690918
-0.677905917167663574 1.6873624324798584 0.553365647792816162
-1.5426487922668457 -1.13662660121917725 1.36453139781951904
3.3650515079498291 1.84256589412689209 0.920012116432189941
-1.11652922630310059 2.0605628490447998 0.791082024574279785
0.63520437479019165 0.0640867277979850769 0.717803955078125
2.28358650207519531 0.824628889560699463 0.862581849098205566
0.535086095333099365 -1.18771886825561523 0.744613230228424072
-0.848985850811004639 -0.947776317596435547 0.6058540940284729
0.0293001383543014526 2.09638381004333496 1.61646604537963867
-0.685241222381591797 -2.14074969291687012 0.681917786598205566
0.735631287097930908 -3.10628485679626465 0.884423911571502686
1.71917474269866943 1.8752894401550293 1.07617545127868652
0.535783708095550537 -0.503210604190826416 0.564578413963317871
0.63575279712677002 -1.86446738243103027 0.808447897434234619
-1.07085859775543213 0.279543519020080566 0.68360370397567749
-1.50574946403503418 -2.51654624938964844 1.14459538459777832
0.0333772748708724976 1.81000852584838867 0.405212938785552979
-1.10813093185424805 1.95555222034454346 0.476802974939346313
0.7922554612159729 0.0852529406547546387 0.533381640911102295
-1.08206701278686523 1.61759161949157715 1.67261648178100586
-0.21999967098236084 2.02834653854370117 2.0190579891204834
0.618034541606903076 0.093107566237449646 0.524345695972442627
-1.68124008178710938 -0.875310301780700684 2.03108310699462891
-0.786306440830230713 -2.29146385192871094 1.58594942092895508
-1.53065645694732666 -2.69881439208984375 1.46327817440032959
2.74612998962402344 2.47432303428649902 0.677378416061401367
1.25336563587188721 2.13006496429443359 1.13598346710205078
1.16013729572296143 -2.32172966003417969 0.886103928089141846
2.80816793441772461 1.62044191360473633 0.931943595409393311
-0.585008978843688965 1.42582094669342041 0.374463140964508057
-1.53175163269042969 0.135748296976089478 0.672353148460388184
3.30204963684082031 1.64871978759765625 1.04535984992980957
-1.03665030002593994 1.32909977436065674 0.451846063137054443
1.62451171875 2.12636876106262207 1.04675912857055664
-0.382695913314819336 1.92929685115814209 0.559271097183227539
-0.539020180702209473 -3.13948369026184082 0.921185314655303955
1.33623981475830078 1.50337481498718262 0.621213734149932861
2.81218671798706055 0.924283266067504883 0.860451579093933105
-0.749438643455505371 -0.669612467288970947 0.37054520845413208
0.873000860214233398 -1.06282734870910645 0.783014893531799316
-1.08301937580108643 -2.83833551406860352 0.663328588008880615
0.361349195241928101 1.73881721496582031 1.56140792369842529
-1.22708559036254883 -0.674218058586120605 0.67674100399017334
-0.555664658546447754 0.361933678388595581 0.733168303966522217
-0.486424177885055542 -1.66309189796447754 0.472181737422943115
-0.541537821292877197 -2.34248566627502441 1.26108503341674805
-0.914347648620605469 2.01787829399108887 0.913244724273681641
0.697762131690979004 -0.186555087566375732 0.491345316171646118
2.9390406608581543 2.67531323432922363 0.594567418098449707
0.888312995433807373 -0.527475059032440186 0.661016523838043213
-0.946753263473510742 -1.75363481044769287 0.614360153675079346
-0.54489588737487793 -2.52692699432373047 0.666607499122619629
0.969762921333312988 -1.29799401760101318 0.827315568923950195
-1.97110223770141602 1.728263258934021 1.86303198337554932
-1.52534127235412598 0.168978691101074219 1.20521318912506104
-0.289732158184051514 0.809087216854095459 0.565864503383636475
3.09372544288635254 1.75950098037719727 1.05082809925079346
0.703357577323913574 -3.20131969451904297 0.906272590160369873
0.368383020162582397 0.0799166709184646606 0.418222427368164062
3.23814892768859863 1.34859764575958252 0.898425102233886719
-1.14494681358337402 1.9462810754776001 1.99562060832977295
1.04020357131958008 -2.75565958023071289 0.915884077548980713
-0.850768208503723145 -3.10277175903320312 0.68723607063293457
-1.6604994535446167 1.84372270107269287 0.655444562435150146
0.173106133937835693 -3.14414787292480469 0.724506497383117676
-0.437156498432159424 1.36501801013946533 1.11105203628540039
1.15232956409454346 2.32906723022460938 1.00363659858703613
-1.40945291519165039 2.06609129905700684 2.18413257598876953
-1.51325654983520508 -2.27923893928527832 0.662025868892669678
-1.05079030990600586 2.01221513748168945 1.72848939895629883
-1.47202670574188232 -2.65537738800048828 1.84427499771118164
3.18829226493835449 2.08016538619995117 0.807421386241912842
-0.91999506950378418 -2.24628353118896484 0.433980464935302734
0.553594648838043213 0.205189555883407593 1.32227277755737305
-0.85303044319152832 -0.632690012454986572 0.35054248571395874
1.13576769828796387 -2.60196638107299805 0.87981182336807251
-0.872682511806488037 1.13056039810180664 0.471035480499267578
-0.247870445251464844 1.65980315208435059 0.401956260204315186
-0.766583383083343506 -1.34621107578277588 0.458934396505355835
-0.0545300543308258057 1.79952001571655273 1.41693878173828125
2.69544839859008789 0.697431504726409912 0.659135758876800537
0.804525494575500488 -0.920852422714233398 0.701595783233642578
-1.00696563720703125 -3.02299213409423828 1.52533888816833496
0.69374924898147583 0.320502191781997681 0.29270586371421814
-0.896594345569610596 1.9910895824432373 0.506013154983520508
2.20006489753723145 2.15194797515869141 0.838010668754577637
0.744626402854919434 2.20989465713500977 1.43253660202026367
3.24230051040649414 2.31949615478515625 0.82064521312713623
0.499348759651184082 0.202249795198440552 0.646908402442932129
-1.29865598678588867 -1.05970120429992676 0.843613862991333008
0.81451880931854248 2.41944384574890137 1.30717098712921143
-1.67863094806671143 -0.707515239715576172 2.11227846145629883
0.0826507136225700378 1.98747289180755615 1.44122600555419922
2.00730085372924805 2.2280123233795166 0.827092409133911133
2.56166434288024902 0.779840350151062012 1.00567662715911865
-1.8547283411026001 -0.849265575408935547 1.82817769050598145
1.46934270858764648 0.787250816822052002 0.306914925575256348
0.498990774154663086 -0.137370988726615906 0.38895079493522644
-1.2160789966583252 -2.75648641586303711 1.22049987316131592
-0.770202875137329102 1.54406857490539551 0.387888610363006592
0.692255556583404541 -2.59400200843811035 1.00277030467987061
-0.44822007417678833 2.1745750904083252 0.357659429311752319
-1.74894273281097412 -0.256279498338699341 0.877094507217407227
0.633134305477142334 0.0429637804627418518 0.656585931777954102
0.242921546101570129 2.06977272033691406 2.28296613693237305
-0.982915103435516357 -2.4709470272064209 0.783173680305480957
-0.292779237031936646 2.11820626258850098 1.31580579280853271
2.06230545043945312 0.647011160850524902 0.837143778800964355
-1.25410187244415283 1.31869208812713623 0.313798278570175171
-1.72432827949523926 1.25874006748199463 1.36089193820953369
0.995969176292419434 -0.404210984706878662 1.06023192405700684
-1.33698248863220215 0.848701357841491699 0.820168673992156982
-0.533928394317626953 -3.07826852798461914 1.19571661949157715
-1.17752134799957275 -1.3235853910446167 0.691903591156005859
-0.816392719745635986 0.405183613300323486 0.487757831811904907
-0.707143962383270264 1.75992238521575928 1.39422798156738281
-1.50737106800079346 1.88025033473968506 2.17771196365356445
-1.9260706901550293 -0.647242128849029541 1.06226253509521484
0.613963723182678223 2.28139495849609375 0.635964334011077881
1.05669605731964111 -2.13954973220825195 0.956476926803588867
-1.16270947456359863 -0.284793168306350708 0.594284892082214355
3.08778667449951172 2.33587884902954102 0.679750323295593262
0.976523280143737793 0.671722054481506348 0.939760267734527588
-0.0290417969226837158 1.72192800045013428 0.266593396663665771
1.88803040981292725 1.63906168937683105 0.533371984958648682
-1.76971602439880371 -1.06341063976287842 2.06634402275085449
0.77158123254776001 0.0394629314541816711 0.514075994491577148
-0.963645398616790771 1.5804980993270874 0.563544571399688721
-0.610453128814697266 -3.1197209358215332 0.673087716102600098
0.0961253941059112549 2.02981424331665039 0.769681334495544434
-0.776703417301177979 -2.15353751182556152 1.14369416236877441
0.332348525524139404 -2.50634360313415527 0.946449100971221924
-1.51891982555389404 -2.59522461891174316 1.67843008041381836
-0.514957785606384277 2.03126406669616699 2.11230564117431641
0.994721293449401855 0.515780031681060791 0.353551417589187622
1.04943084716796875 -2.89527320861816406 0.782159924507141113
0.502070248126983643 -0.836506962776184082 0.605461537837982178
0.492098361253738403 -1.17873859405517578 0.759893238544464111
0.719093143939971924 -3.14984440803527832 0.876333653926849365
-1.50173556804656982 1.91722691059112549 1.28672885894775391
-1.03600120544433594 0.977374494075775146 0.399480342864990234
0.767962455749511719 0.0890579074621200562 0.90557098388671875
0.793087005615234375 0.328228235244750977 0.505115628242492676
-0.833859384059906006 -1.83170020580291748 0.794841170310974121
2.51807332038879395 1.98230135440826416 0.987233757972717285
3.3205568790435791 1.48370492458343506 0.877226948738098145
0.919285058975219727 -1.2912217378616333 0.893858194351196289
-1.74883079528808594 1.98818731307983398 0.708112657070159912
2.94473886489868164 2.42304444313049316 0.723447203636169434
2.15769481658935547 0.778609633445739746 0.917586445808410645
-1.17996275424957275 0.572482466697692871 0.377081751823425293
0.198948174715042114 -0.259368389844894409 0.576306521892547607
-0.813514113426208496 -2.53745770454406738 1.14806497097015381
0.906605064868927002 -1.13387525081634521 0.9679909348487854
-0.527015268802642822 2.04630756378173828 2.38126397132873535
-1.51395809650421143 -2.59189939498901367 0.570834040641784668
2.98661470413208008 2.43850898742675781 0.843314886093139648
-1.12740588188171387 -3.0252377986907959 1.33923196792602539
-0.580319404602050781 1.68496847152709961 0.553946018218994141
-1.05884742736816406 -2.73019242286682129 0.6590767502784729
-1.56553447246551514 -0.196379154920578003 0.664015412330627441
-0.753080785274505615 -2.00271320343017578 1.56617093086242676
1.45623302459716797 2.09738683700561523 1.06522440910339355
1.44553935527801514 2.2285773754119873 0.876443147659301758
0.289256870746612549 2.06871604919433594 1.79104804992675781
-0.729710996150970459 -2.79728221893310547 0.820935189723968506
-0.263437002897262573 0.419959604740142822 0.612487196922302246
2.1659846305847168 2.14208197593688965 0.881490588188171387
-1.2824244499206543 -3.14911961555480957 0.650391340255737305
3.2978355884552002 1.34929943084716797 0.923697471618652344
-1.39219343662261963 1.71429026126861572 0.520892441272735596
1.46373307704925537 1.05358827114105225 0.646441936492919922
-1.01153528690338135 -2.35702681541442871 1.6309206485748291
0.807814419269561768 1.85864889621734619 0.470182090997695923
-0.281379252672195435 1.69795942306518555 0.337419092655181885
-1.80309700965881348 -1.12618470191955566 1.96690499782562256
0.701170206069946289 -0.427072435617446899 0.711525797843933105
1.1694023609161377 -2.260711669921875 0.983645081520080566
1.92236948013305664 0.671233654022216797 1.07811117172241211
1.55716323852539062 2.15846800804138184 1.00500333309173584
-1.65573763847351074 -0.332662224769592285 1.39956963062286377
0.492281675338745117 0.259099990129470825 0.420332878828048706
-1.04403579235076904 -2.39131951332092285 1.53927850723266602
-1.46635270118713379 -0.698223888874053955 0.851262688636779785
-0.48501172661781311 -3.1210625171661377 0.962217569351196289
-0.612221002578735352 -2.2085719108581543 0.590106964111328125
-0.691474020481109619 1.18696403503417969 0.449560225009918213
-1.51404976844787598 1.83530056476593018 1.81205964088439941
-1.49876201152801514 -1.91610515117645264 1.99853622913360596
2.50480532646179199 1.13316607475280762 0.622151553630828857
0.718315780162811279 0.109184995293617249 0.415924966335296631
0.486177355051040649 1.58588194847106934 0.419739693403244019
0.937385618686676025 -3.10550332069396973 0.885231435298919678
0.85687333345413208 0.403871715068817139 1.036141037940979
-0.780427753925323486 1.49671006202697754 0.471049070358276367
0.832632720470428467 -1.68583917617797852 0.952669918537139893
-0.690210282802581787 -2.92539072036743164 1.12262535095214844
2.88382530212402344 1.46487534046173096 0.822535693645477295
-1.50149059295654297 -2.61236333847045898 1.58722770214080811
0.205180883407592773 -1.91551709175109863 0.671022474765777588
-0.874180793762207031 -0.495407015085220337 0.506394684314727783
1.11326301097869873 -2.69397211074829102 0.768199920654296875
1.09819614887237549 -2.43668675422668457 0.883041560649871826
-0.895280182361602783 2.12689518928527832 1.5618520975112915
3.41882729530334473 1.86348187923431396 1.06361174583435059
0.294333934783935547 -3.12038588523864746 0.687526881694793701
-1.05610990524291992 1.8424983024597168 1.72615540027618408
-0.295384496450424194 1.30028426647186279 0.386462181806564331
-0.702476441860198975 2.21921062469482422 0.373862564563751221
0.0927298814058303833 1.80534648895263672 1.37117767333984375
-0.785591006278991699 -2.39192342758178711 1.04718542098999023
-0.36423569917678833 -1.16987311840057373 0.622777223587036133
3.01988935470581055 1.04844987392425537 0.722279846668243408
3.35663747787475586 1.67092633247375488 0.790794432163238525
0.294950425624847412 -3.10375475883483887 0.73588031530380249
0.699698686599731445 -0.300600409507751465 0.518153488636016846
1.83734655380249023 1.91164088249206543 0.618421494960784912
-1.39884233474731445 0.182383358478546143 0.847823441028594971
2.56683778762817383 0.774536371231079102 0.956889629364013672
-1.02423322200775146 1.04870986938476562 0.401401281356811523
-1.04793405532836914 -1.12641990184783936 0.69151759147644043
