ply
format ascii 1.0
element vertex 150
comment vertices
property float x
property float y
property float z
end_header
1.13660311698913574 -2.57318663597106934 1.04899919033050537
-0.657083094120025635 1.98449409008026123 0.331700682640075684
-1.11198902130126953 -2.83737087249755859 0.508329629898071289
0.903250575065612793 -0.882014751434326172 1.01748454570770264
0.120159409940242767 -3.13542628288269043 0.996587276458740234
3.02532744407653809 0.996981620788574219 0.918761849403381348
0.548016846179962158 -0.6681022047996521 0.651941597461700439
1.11131906509399414 2.15639758110046387 1.2220613956451416
1.73257279396057129 2.08913779258728027 1.06654751300811768
1.19373595714569092 -2.31226420402526855 0.93396461009979248
0.702236711978912354 -0.400673210620880127 0.477465629577636719
-0.945707023143768311 1.08245766162872314 0.290921241044998169
3.11318397521972656 1.15544664859771729 0.836478531360626221
0.0144808031618595123 -3.19665932655334473 0.900299429893493652
-0.917101621627807617 -1.74943244457244873 0.54402315616607666
-0.295849233865737915 0.193002969026565552 0.873236656188964844
-0.673604130744934082 1.62405061721801758 0.485413312911987305
3.47336411476135254 1.79223346710205078 0.966895461082458496
0.653923213481903076 0.126701265573501587 0.592894613742828369
2.25638771057128906 0.795037329196929932 0.948934972286224365
0.617090761661529541 -1.12159264087677002 0.79022669792175293
-0.941048800945281982 -0.999957501888275146 0.791683793067932129
-0.83040386438369751 -2.07046198844909668 0.640126407146453857
0.805181324481964111 -3.15881538391113281 0.863914132118225098
1.69111418724060059 2.00041842460632324 1.06337833404541016
0.531014621257781982 -0.484283775091171265 0.605111181735992432
-1.05963635444641113 0.391671538352966309 0.617461681365966797
-1.36051535606384277 -2.5568397045135498 1.15180277824401855
0.0662454888224601746 1.85258829593658447 0.294436633586883545
-1.12137162685394287 1.80356264114379883 0.515703856945037842
0.665305852890014648 0.141460299491882324 0.445437312126159668
0.633916139602661133 0.157375827431678772 0.425848543643951416
-1.40401363372802734 -2.66101479530334473 1.56718599796295166
2.86966633796691895 2.4853508472442627 0.650021970272064209
1.36168956756591797 2.106658935546875 1.12841558456420898
1.21301770210266113 -2.32741451263427734 0.959605157375335693
-0.629370629787445068 1.45024645328521729 0.312878429889678955
-1.51814365386962891 0.0252944231033325195 0.707066118717193604
3.38527655601501465 1.68351781368255615 1.08277046680450439
-1.04665458202362061 1.40515995025634766 0.377146005630493164
1.5336761474609375 2.0848228931427002 1.04406774044036865
-0.254325419664382935 1.94931697845458984 0.479836165904998779
-0.521581351757049561 -3.26451301574707031 0.91744840145111084
2.87552690505981445 0.923795938491821289 0.875536978244781494
-0.900211691856384277 -0.737631499767303467 0.525248467922210693
0.77909553050994873 -1.08882629871368408 0.850562691688537598
-1.09890973567962646 -2.84422922134399414 0.606864273548126221
-1.23317193984985352 -0.754817605018615723 0.742928683757781982
-0.540039360523223877 0.359459370374679565 0.726128876209259033
-1.00284266471862793 2.08315229415893555 0.905094742774963379
0.578149139881134033 -0.103117130696773529 0.41890755295753479
2.93669295310974121 2.55490756034851074 0.557970523834228516
0.687234878540039062 -0.484769761562347412 0.652779936790466309
-0.89020836353302002 -1.78873312473297119 0.618605315685272217
0.838586151599884033 -1.21768414974212646 0.811640560626983643
3.23071193695068359 1.71100592613220215 1.05957770347595215
0.749437153339385986 -3.18876504898071289 0.856172442436218262
0.532107770442962646 0.0653732568025588989 0.390104770660400391
3.30714035034179688 1.36162090301513672 0.957479000091552734
1.10053634643554688 -2.68858885765075684 0.961772322654724121
-0.87281268835067749 -3.0571904182434082 0.613996624946594238
-1.6713947057723999 1.84175562858581543 0.677951216697692871
0.180766835808753967 -3.16253829002380371 0.77967303991317749
1.17921686172485352 2.16711640357971191 1.01324188709259033
3.31051158905029297 2.10754776000976562 0.79361116886138916
-0.934890270233154297 -2.23770952224731445 0.342316746711730957
-0.88976365327835083 -0.710695564746856689 0.47752082347869873
1.16014492511749268 -2.51157951354980469 0.963322937488555908
-0.907560646533966064 1.21249020099639893 0.334598422050476074
-0.169997155666351318 1.78170287609100342 0.294729053974151611
-0.908499002456665039 -1.34898293018341064 0.565139412879943848
0.693278372287750244 -0.895659148693084717 0.767332971096038818
0.817925453186035156 0.264300763607025146 0.355251163244247437
-0.788621068000793457 1.84402012825012207 0.529511511325836182
2.13098740577697754 2.15745210647583008 0.86994701623916626
0.74089127779006958 2.22573184967041016 1.50160539150238037
3.15307450294494629 2.38139176368713379 0.778940975666046143
0.568610548973083496 0.172177895903587341 0.51139676570892334
-1.34228384494781494 -1.05382859706878662 0.908760309219360352
2.03145217895507812 2.12579679489135742 0.876063287258148193
0.573359429836273193 -0.157558634877204895 0.377107501029968262
-0.815582156181335449 1.53289401531219482 0.329684674739837646
-0.525410234928131104 1.97004663944244385 0.351044356822967529
-1.56762135028839111 -0.228029027581214905 0.905331611633300781
0.666835308074951172 0.128000825643539429 0.475856542587280273
-0.953781723976135254 -2.47398138046264648 0.722923755645751953
-1.16970062255859375 1.24691247940063477 0.317088156938552856
-1.26818752288818359 0.806089580059051514 0.804907143115997314
-0.46837770938873291 -3.19747638702392578 1.11501550674438477
-1.20970237255096436 -1.25483477115631104 0.722781181335449219
1.15798616409301758 -2.14427947998046875 1.02693915367126465
-1.02644574642181396 -0.367350995540618896 0.635036766529083252
3.06869125366210938 2.42017745971679688 0.687495648860931396
0.0212130732834339142 1.79535412788391113 0.266625523567199707
0.666422128677368164 0.133713573217391968 0.452442407608032227
-0.935857295989990234 1.60140526294708252 0.38190615177154541
-0.725490331649780273 -3.05297231674194336 0.594437599182128906
-0.797495663166046143 -2.08761835098266602 1.15292418003082275
1.09740364551544189 -2.8597724437713623 0.798906028270721436
0.540397703647613525 -0.846908688545227051 0.695907652378082275
0.612875103950500488 -1.10536444187164307 0.793457686901092529
0.805305659770965576 -3.17677116394042969 0.833442389965057373
-1.03325009346008301 1.07724130153656006 0.341863274574279785
0.793347537517547607 0.138314709067344666 0.892581939697265625
0.707247376441955566 0.173371806740760803 0.476017385721206665
-0.820900797843933105 -1.82607007026672363 0.789074540138244629
3.41456508636474609 1.51863539218902588 0.975675106048583984
0.830024480819702148 -1.22196304798126221 0.885843336582183838
-1.77358758449554443 1.9077146053314209 0.753349959850311279
2.99326872825622559 2.42679977416992188 0.720151007175445557
0.815474510192871094 -1.14558696746826172 0.924181759357452393
-1.38482308387756348 -2.57353615760803223 0.493379652500152588
3.00289273262023926 2.43304228782653809 0.808421969413757324
-0.631879746913909912 1.63372421264648438 0.456195473670959473
-1.16498327255249023 -2.6618964672088623 0.568031787872314453
-1.60664701461791992 -0.191785693168640137 0.726846575736999512
1.46376979351043701 2.0846703052520752 1.00867366790771484
1.46485424041748047 2.13514018058776855 0.903804302215576172
-0.828939676284790039 -2.84041023254394531 0.714558660984039307
-0.361010938882827759 0.451866298913955688 0.683433592319488525
2.10340571403503418 2.13550853729248047 0.913646101951599121
-1.1557166576385498 -3.05991244316101074 0.606565237045288086
3.33949565887451172 1.43204975128173828 0.971529245376586914
-1.33537828922271729 1.6975555419921875 0.545005261898040771
-0.172480344772338867 1.75492370128631592 0.286255210638046265
0.670449256896972656 -0.381526291370391846 0.729116261005401611
1.18353843688964844 -2.25510668754577637 1.01216781139373779
1.5315093994140625 2.08969283103942871 1.00649189949035645
0.695379495620727539 0.226044416427612305 0.420913606882095337
-1.358711838722229 -0.71696937084197998 0.822068989276885986
-0.446245938539505005 -3.24735212326049805 0.938290059566497803
-0.817274928092956543 -2.10453557968139648 0.464659810066223145
-0.879350125789642334 1.22477626800537109 0.339658677577972412
0.666406631469726562 0.157667815685272217 0.374627679586410522
0.954549610614776611 -3.11991572380065918 0.84536290168762207
-0.772588849067687988 1.54261136054992676 0.328911662101745605
-0.881887972354888916 -0.563802838325500488 0.538764536380767822
1.1481550931930542 -2.66570949554443359 0.838788986206054688
1.2051997184753418 -2.40003085136413574 0.961199104785919189
3.43457555770874023 1.85480451583862305 1.09968268871307373
0.311582207679748535 -3.15062785148620605 0.754190683364868164
-0.639275252819061279 2.1713559627532959 0.333393573760986328
-0.833973944187164307 -2.30889320373535156 0.987861692905426025
3.05635619163513184 0.999119937419891357 0.792585134506225586
3.48002266883850098 1.64085280895233154 0.90475165843963623
0.324009954929351807 -3.1743931770324707 0.758862555027008057
0.576210200786590576 -0.312583178281784058 0.521321713924407959
-1.29257082939147949 0.291578531265258789 0.824350595474243164
-1.0396198034286499 1.15190422534942627 0.33576241135597229
-1.15874969959259033 -1.13271379470825195 0.781431496143341064
