ply
format ascii 1.0
element vertex 256
comment vertices
property float x
property float y
property float z
end_header
-0.887377023696899414 -2.2335202693939209 0.655543684959411621
0.0280500128865242004 4.07800626754760742 1.08666670322418213
1.52826249599456787 0.343076765537261963 1.43048977851867676
-1.55593740940093994 1.27885186672210693 1.16433370113372803
0.913193821907043457 -2.28483843803405762 1.23567628860473633
1.70435583591461182 2.26428937911987305 1.09901702404022217
-1.53357875347137451 0.255610466003417969 1.77397716045379639
-1.60695099830627441 2.48393487930297852 1.52643346786499023
1.24232280254364014 -0.572690308094024658 0.732221543788909912
1.79316282272338867 2.49974513053894043 1.52516055107116699
-1.35018730163574219 -2.09496378898620605 1.42837834358215332
-0.938732504844665527 3.48773431777954102 0.451716214418411255
-0.148780032992362976 1.16396212577819824 0.976734697818756104
-1.53470265865325928 -0.633127093315124512 1.22087323665618896
0.643620669841766357 -2.55732131004333496 1.01059448719024658
1.53362500667572021 0.559136092662811279 1.3085935115814209
1.31772327423095703 3.94271326065063477 0.439093708992004395
-0.142026945948600769 0.159339949488639832 1.63451159000396729
1.5162738561630249 -1.08495187759399414 1.34253847599029541
-0.0111662335693836212 0.690108180046081543 0.53825533390045166
-1.56033790111541748 1.23311340808868408 1.31210410594940186
0.278791427612304688 2.73358607292175293 0.771634459495544434
1.51978480815887451 1.53857803344726562 1.39246737957000732
-0.36661723256111145 -2.64610576629638672 1.17057383060455322
0.0293135344982147217 -0.710796594619750977 0.562011420726776123
-1.45936477184295654 1.93214643001556396 1.11369204521179199
0.0796463936567306519 3.72592401504516602 0.701499223709106445
-1.79824733734130859 2.97882175445556641 0.653694510459899902
0.779871225357055664 1.46901595592498779 0.996483981609344482
-1.35731756687164307 -1.78960311412811279 1.01897728443145752
-1.50496435165405273 -0.914863646030426025 1.12653040885925293
1.81279611587524414 2.42467093467712402 1.34562313556671143
-1.55686962604522705 0.155470043420791626 1.29845929145812988
-0.127498656511306763 1.26179242134094238 0.750693738460540771
1.36520147323608398 -1.67662012577056885 1.36963474750518799
-1.12213563919067383 0.455745905637741089 1.007499098777771
1.52904200553894043 -0.397344112396240234 1.39853239059448242
1.08215224742889404 0.466577291488647461 0.867417514324188232
0.0381505563855171204 0.898178994655609131 0.7947540283203125
1.56173038482666016 1.26834166049957275 1.57104599475860596
-0.11088927835226059 0.205433353781700134 1.85174226760864258
-1.4046776294708252 -1.27681994438171387 0.933337390422821045
0.0285407230257987976 3.47909998893737793 0.690759181976318359
0.729098379611968994 -1.38517773151397705 0.76171565055847168
1.47428214550018311 -1.54009568691253662 1.40396130084991455
-0.510755479335784912 2.47137641906738281 0.972694516181945801
-0.817666888236999512 -2.5823512077331543 1.08833599090576172
1.88839852809906006 3.31946992874145508 1.08787286281585693
0.160468876361846924 -2.55575227737426758 1.63842785358428955
1.12277305126190186 3.26282048225402832 0.383795589208602905
-0.18140430748462677 -2.6652991771697998 1.09734451770782471
1.53148782253265381 1.42369866371154785 1.4746100902557373
0.487895965576171875 -0.0441923290491104126 0.697260618209838867
0.887828350067138672 -2.24431490898132324 1.11988067626953125
1.51581823825836182 0.700207412242889404 1.26238429546356201
-1.53840065002441406 0.803972005844116211 1.37680172920227051
1.50880885124206543 -0.598294436931610107 1.38559556007385254
0.0164335370063781738 1.0276719331741333 0.714003801345825195
-1.48189568519592285 1.86876857280731201 1.36615371704101562
-1.54282748699188232 0.723585247993469238 1.53190422058105469
-0.142022445797920227 1.11831724643707275 0.708298623561859131
0.0198084190487861633 1.03698015213012695 0.791220724582672119
-0.391997367143630981 -2.65915441513061523 1.2543950080871582
1.48440659046173096 -0.0885798484086990356 1.37607467174530029
-0.579149723052978516 1.20345258712768555 0.997512698173522949
-0.00560639798641204834 -1.60171294212341309 0.786586880683898926
1.59304451942443848 1.83385312557220459 1.50246608257293701
-1.6221001148223877 3.81193399429321289 0.709149003028869629
-0.0378529578447341919 3.36490774154663086 0.784329712390899658
-1.57402932643890381 2.34575939178466797 0.772326827049255371
-0.034786418080329895 0.452009052038192749 1.23687148094177246
-1.64304149150848389 2.53338146209716797 1.18224942684173584
1.4851614236831665 0.0431821644306182861 1.12085402011871338
0.214005321264266968 -2.60998249053955078 1.21690380573272705
1.34200203418731689 -1.73807108402252197 1.25267517566680908
1.08798658847808838 2.5336921215057373 1.04408204555511475
1.56578624248504639 -1.04775321483612061 1.42720293998718262
-1.56031596660614014 0.125289469957351685 1.33511483669281006
1.75496125221252441 2.11575198173522949 1.36111342906951904
-1.55757284164428711 1.51785242557525635 1.43912816047668457
1.1326134204864502 -2.07672619819641113 1.11769890785217285
-0.595093607902526855 -2.62326240539550781 1.11009931564331055
1.50466823577880859 1.06531834602355957 0.897895336151123047
-1.09535765647888184 -0.322107553482055664 0.991828739643096924
-1.46749281883239746 1.88168060779571533 1.08737611770629883
-1.36073756217956543 -1.56520748138427734 1.08715724945068359
-1.52026963233947754 -0.421681225299835205 1.20692026615142822
0.582129716873168945 -0.717582583427429199 0.197154417634010315
-1.4672313928604126 -1.10075962543487549 1.02335155010223389
1.7881319522857666 2.23491644859313965 1.3535228967666626
-0.479969769716262817 0.139535963535308838 0.91187894344329834
0.158206909894943237 0.742188394069671631 0.678264141082763672
-1.57225131988525391 -0.018256358802318573 1.26904761791229248
0.178312510251998901 -2.65129971504211426 1.03174829483032227
-1.03108763694763184 -2.58762192726135254 1.18420040607452393
0.760284900665283203 4.14524412155151367 0.941493988037109375
-0.374290913343429565 3.78659701347351074 0.855765700340270996
-1.33660781383514404 -1.93173038959503174 1.10001289844512939
-1.49458110332489014 1.84244024753570557 1.26250898838043213
1.4612734317779541 1.75194025039672852 0.929246604442596436
-1.5700918436050415 0.599435031414031982 1.2493436336517334
-0.0168549790978431702 1.32106685638427734 0.77411264181137085
1.24390184879302979 -1.322318434715271 1.06699800491333008
1.77377843856811523 2.44841718673706055 1.2053375244140625
1.54168820381164551 1.01870870590209961 1.37193560600280762
-0.182081103324890137 1.10271644592285156 0.806943714618682861
0.484431743621826172 3.28411865234375 1.04375505447387695
-1.57280111312866211 0.713255524635314941 1.24501216411590576
1.5106121301651001 0.1262006014585495 1.46125459671020508
-0.147864446043968201 1.13477051258087158 0.710695385932922363
1.52925646305084229 1.23694527149200439 1.07746458053588867
1.4417874813079834 -0.433708995580673218 1.06631875038146973
-0.542848825454711914 1.7365880012512207 0.902870535850524902
1.7661738395690918 2.42262554168701172 1.28844404220581055
-0.191295444965362549 0.110768631100654602 1.57983565330505371
1.02505052089691162 -0.0569005943834781647 0.486563414335250854
-1.41489982604980469 -1.50556862354278564 1.51912426948547363
1.46185111999511719 -1.43564534187316895 1.30364477634429932
-0.704686284065246582 -1.390655517578125 0.822717964649200439
0.0800132453441619873 3.47856616973876953 0.767109215259552002
-1.24406182765960693 -2.1043546199798584 1.19990074634552002
1.04209244251251221 -2.12528824806213379 1.20740640163421631
1.60774815082550049 3.53315305709838867 0.791557669639587402
1.5970989465713501 0.929558277130126953 1.63724434375762939
0.348481953144073486 1.97864305973052979 0.807326614856719971
-0.192793428897857666 0.837170600891113281 0.56348717212677002
-1.52061295509338379 2.29199600219726562 1.16632843017578125
0.0356164425611495972 1.2421497106552124 0.553011655807495117
-1.18726122379302979 -2.08437943458557129 1.08788728713989258
0.310378223657608032 0.614396035671234131 0.724822819232940674
1.54015326499938965 -1.21050512790679932 1.29227447509765625
-1.47529697418212891 -1.12346875667572021 1.05734801292419434
1.50546026229858398 -0.86239248514175415 1.42925369739532471
-0.0804556682705879211 0.56241530179977417 1.0929267406463623
1.66126787662506104 3.05087399482727051 0.903908371925354004
-0.419831305742263794 -2.76724910736083984 0.501388728618621826
0.53458714485168457 0.353798478841781616 1.03316104412078857
1.09537720680236816 3.68795228004455566 0.5399436354637146
0.540900170803070068 0.790851056575775146 0.888927221298217773
-0.207155525684356689 4.04642248153686523 1.01639127731323242
1.50549638271331787 -0.627333283424377441 1.30733132362365723
-0.174016863107681274 1.20273733139038086 0.784336090087890625
-0.36045423150062561 0.643641769886016846 0.38862726092338562
-1.55792343616485596 3.1065831184387207 0.906289517879486084
-1.57243227958679199 0.317738324403762817 1.39249646663665771
0.388308882713317871 -2.61121106147766113 1.27080106735229492
0.356741011142730713 -1.08535325527191162 0.310999661684036255
-0.188235104084014893 0.16405777633190155 1.67307388782501221
-1.55950284004211426 1.39510822296142578 1.33089148998260498
-0.57410198450088501 -2.65977215766906738 1.11562168598175049
-1.5706322193145752 -0.0303014777600765228 1.21356844902038574
0.292786747217178345 -2.56180596351623535 0.57101738452911377
-0.42000618577003479 3.3140416145324707 0.65235823392868042
0.114346660673618317 1.36333596706390381 0.757031738758087158
-0.0193811804056167603 3.48382139205932617 0.655174851417541504
-0.0737321078777313232 -2.65079641342163086 1.20878541469573975
-1.56689727306365967 1.56392085552215576 1.33767104148864746
1.5456702709197998 1.4613654613494873 1.39312589168548584
-0.342143505811691284 -2.66212081909179688 1.17507946491241455
-0.152033105492591858 1.22632861137390137 0.979779422283172607
-1.49844598770141602 -0.9046783447265625 0.92888951301574707
0.155811503529548645 2.7951500415802002 0.758218824863433838
1.17903327941894531 -1.9654618501663208 1.18946611881256104
-1.55594277381896973 0.620490014553070068 1.30083334445953369
1.40211665630340576 0.653487920761108398 0.919957816600799561
1.57871174812316895 1.02703332901000977 1.47498726844787598
1.25771057605743408 -1.93550443649291992 1.17718195915222168
1.09129464626312256 -0.930769562721252441 0.524979114532470703
0.0140373557806015015 3.92675352096557617 0.808530032634735107
1.56630039215087891 1.39873015880584717 1.58360970020294189
-1.05939960479736328 -2.44105195999145508 0.943989574909210205
1.02288055419921875 -2.16031742095947266 1.16861486434936523
1.50818586349487305 -1.40525782108306885 1.34285938739776611
1.10893583297729492 3.04193520545959473 0.739649176597595215
-1.52339768409729004 1.05419909954071045 1.41058623790740967
1.47094011306762695 -0.0984402447938919067 1.3530573844909668
-1.54841470718383789 -0.0624910071492195129 1.32137322425842285
1.7623976469039917 2.24418401718139648 1.38059628009796143
1.38273096084594727 0.0329242125153541565 0.593645572662353516
1.56253385543823242 1.80868816375732422 1.51088809967041016
-0.0407139435410499573 0.391499996185302734 1.55414235591888428
0.652862966060638428 -2.47677350044250488 1.1333305835723877
1.52129042148590088 0.346204668283462524 1.32684981822967529
0.116831697523593903 1.17042648792266846 0.675736725330352783
-1.60970616340637207 2.44565320014953613 0.987278282642364502
0.389936208724975586 -0.412765622138977051 0.569423496723175049
1.54068219661712646 1.0515139102935791 1.28179597854614258
0.393695354461669922 -1.76295936107635498 0.925060749053955078
-0.00960754603147506714 0.917864978313446045 0.630953788757324219
-1.49566781520843506 1.94016540050506592 1.04494571685791016
1.10501301288604736 2.09150099754333496 0.914483964443206787
-0.146667003631591797 1.10144507884979248 0.750413358211517334
-0.136723369359970093 0.226174399256706238 1.58257758617401123
-1.56593954563140869 1.11685609817504883 1.2582552433013916
1.53927206993103027 -1.23809897899627686 1.31061780452728271
1.5098189115524292 -0.413716793060302734 1.47068691253662109
0.837916433811187744 -2.02287006378173828 0.980790793895721436
-0.666698753833770752 2.08621931076049805 0.930509984493255615
-1.38886260986328125 -1.55184698104858398 1.01752305030822754
1.6435168981552124 2.37149357795715332 0.91665947437286377
-0.430205762386322021 -1.93737781047821045 0.749500870704650879
1.53768277168273926 1.40482115745544434 0.816070973873138428
-1.20285797119140625 -2.24312567710876465 1.24579262733459473
-0.544450223445892334 3.47143650054931641 0.853394865989685059
-1.10975193977355957 3.02271842956542969 0.968704819679260254
1.49437820911407471 0.0976528525352478027 1.40658652782440186
0.113707154989242554 -2.63632941246032715 1.2289741039276123
-1.37208378314971924 1.18595314025878906 1.04571866989135742
-1.50520670413970947 2.09120416641235352 1.1835252046585083
-0.00775549560785293579 3.38640022277832031 0.749800562858581543
-1.56207096576690674 0.903977453708648682 1.36387145519256592
-1.57552766799926758 2.24485087394714355 1.47452390193939209
-0.61885756254196167 -2.64564228057861328 1.10500025749206543
1.452781081199646 -1.34959816932678223 1.26793146133422852
1.76417064666748047 2.69701623916625977 0.708605766296386719
0.127565532922744751 1.4046778678894043 0.586799502372741699
1.57552766799926758 1.76796650886535645 1.44428396224975586
-1.56603991985321045 0.336654841899871826 1.42068564891815186
1.77519166469573975 3.68503427505493164 0.440855562686920166
1.33370769023895264 -0.909373044967651367 1.11596441268920898
-1.51048636436462402 -0.828280627727508545 1.21765482425689697
-0.449586093425750732 1.58941376209259033 0.802680730819702148
-1.45388352870941162 -1.38109803199768066 1.16416597366333008
1.57918000221252441 1.58492016792297363 1.61202013492584229
-1.65735459327697754 3.49154043197631836 0.805916845798492432
0.000357236713171005249 -2.67931079864501953 1.17795765399932861
-1.57992708683013916 0.329527735710144043 1.29140198230743408
1.55577731132507324 0.561930596828460693 1.62231063842773438
-0.181020408868789673 1.08994901180267334 0.830161213874816895
0.384346038103103638 3.18327593803405762 0.823655605316162109
1.60234963893890381 1.89868521690368652 1.47185587882995605
-1.58833467960357666 0.422073185443878174 1.79807126522064209
-1.53538978099822998 0.507004261016845703 1.30334687232971191
-0.48991471529006958 -2.64862871170043945 1.09558761119842529
0.983658015727996826 -1.59834051132202148 1.11547338962554932
-0.130614027380943298 -1.06510353088378906 0.525885403156280518
-1.23218917846679688 -2.11876702308654785 1.17176699638366699
-1.58247339725494385 1.68258798122406006 1.24536359310150146
0.664925813674926758 -2.47000837326049805 1.17048346996307373
-0.0535113662481307983 3.97051310539245605 0.908121705055236816
1.42369508743286133 2.58114933967590332 0.741879701614379883
-1.55430972576141357 -0.577685356140136719 1.26445364952087402
-1.51559484004974365 1.83195984363555908 1.4301295280456543
1.53556990623474121 -0.635897040367126465 1.27638363838195801
0.619209170341491699 3.69116067886352539 0.984648823738098145
-0.127704858779907227 1.05631661415100098 0.681088447570800781
-0.757566571235656738 0.896248817443847656 0.911304712295532227
-1.56303417682647705 1.48610162734985352 1.30241286754608154
-1.25838971138000488 3.60470986366271973 0.512671589851379395
0.200858414173126221 1.15499222278594971 0.729793012142181396
-0.378458619117736816 1.85194909572601318 0.861910760402679443
1.51400768756866455 0.924864649772644043 1.31280875205993652
-0.87169647216796875 -2.57594633102416992 0.988388597965240479
-1.66899240016937256 2.49641752243041992 1.1537320613861084
-0.174767941236495972 1.03313040733337402 0.588378489017486572
0.724198281764984131 1.12572669982910156 1.10936069488525391
