ply
format ascii 1.0
element vertex 256
comment vertices
property float x
property float y
property float z
end_header
-1.577392578125 -3.02106976509094238 1.0878978967666626
3.42521095275878906 1.09204566478729248 0.693610846996307373
-1.31005632877349854 3.16001749038696289 1.47896063327789307
2.12986373901367188 -2.10809206962585449 0.876430749893188477
-0.113639861345291138 0.715772628784179688 0.349558115005493164
-2.75762605667114258 0.0501625947654247284 1.22035765647888184
0.331697583198547363 3.06483864784240723 0.252417922019958496
1.66529178619384766 1.77889835834503174 1.50967550277709961
-2.22459149360656738 2.17241477966308594 0.387689560651779175
-2.42559313774108887 -1.08844602108001709 0.555407285690307617
0.0688203722238540649 -1.90872287750244141 0.69085395336151123
2.82343721389770508 0.606223940849304199 0.389004141092300415
3.12462997436523438 -0.255461990833282471 0.905127644538879395
0.292113363742828369 -3.27749752998352051 1.20898795127868652
2.42990756034851074 2.23694109916687012 0.66549384593963623
-1.75874519348144531 1.68473994731903076 1.45205974578857422
-2.78461933135986328 -1.84983766078948975 1.53216946125030518
-2.06823992729187012 0.596215009689331055 0.675641894340515137
0.565645396709442139 2.83041477203369141 1.64568614959716797
-0.887318849563598633 3.25547647476196289 0.845123529434204102
0.0268650352954864502 2.22603154182434082 0.286041051149368286
1.9002765417098999 -1.01476836204528809 0.456508874893188477
-1.58409178256988525 -2.66381359100341797 0.707750260829925537
3.5594024658203125 0.47352328896522522 1.00873827934265137
1.26949119567871094 1.23654425144195557 0.270837873220443726
-0.762423992156982422 -0.603861808776855469 0.393583804368972778
-0.424383580684661865 -2.94032573699951172 0.565778434276580811
3.23223018646240234 0.246816769242286682 0.490585774183273315
2.52854204177856445 2.16251063346862793 1.00611519813537598
1.06531953811645508 2.54163599014282227 0.814796030521392822
-2.57734990119934082 -2.16660976409912109 1.24195218086242676
3.39457297325134277 -0.576390087604522705 1.13220429420471191
2.87841033935546875 -0.933368146419525146 0.538922548294067383
-0.386868685483932495 3.30620455741882324 1.16457915306091309
2.82943272590637207 1.55247592926025391 0.467739760875701904
-2.62956976890563965 -0.954722285270690918 1.01262128353118896
-2.29088664054870605 1.43832719326019287 0.653852939605712891
0.0556634515523910522 -2.20334029197692871 0.965283572673797607
1.4223332405090332 -2.17896461486816406 0.626843810081481934
-2.33771800994873047 -2.79987573623657227 1.8002772331237793
-1.06652355194091797 1.66763472557067871 0.283903539180755615
-1.80980014801025391 2.52565503120422363 0.804058313369750977
-0.456089705228805542 -3.23022341728210449 1.41086912155151367
1.72097969055175781 -2.17527008056640625 0.84046703577041626
0.548537373542785645 -0.546996235847473145 0.264118969440460205
-2.54287266731262207 0.0749523788690567017 1.15403127670288086
-0.531802713871002197 -1.61114776134490967 0.474281996488571167
1.70164120197296143 2.3235316276550293 1.06889200210571289
1.35280156135559082 2.42084622383117676 0.457180589437484741
-1.52631580829620361 2.62703537940979004 0.43088686466217041
2.77062535285949707 1.45863687992095947 0.467210322618484497
-2.22607159614562988 1.99856948852539062 0.800511658191680908
-2.52052617073059082 0.940180182456970215 1.33892941474914551
0.0608376264572143555 2.90612363815307617 0.361918389797210693
3.0394279956817627 -1.05520367622375488 0.85720592737197876
-1.06156814098358154 0.290934562683105469 0.197001352906227112
3.12056326866149902 0.585679888725280762 0.813250482082366943
-1.30131959915161133 3.08215427398681641 1.10182392597198486
0.270132303237915039 2.92894577980041504 0.790700078010559082
-1.54367423057556152 2.30668735504150391 1.51296603679656982
2.32285475730895996 -1.15162432193756104 0.547408938407897949
0.868537783622741699 2.49001860618591309 1.32609462738037109
0.680429995059967041 1.49200081825256348 0.386524468660354614
-1.57329154014587402 -3.22564578056335449 1.99714541435241699
-2.51384282112121582 -0.261311650276184082 0.802802503108978271
3.39316082000732422 0.0769245922565460205 0.486281454563140869
0.0234871953725814819 -2.69791173934936523 0.554737210273742676
-2.22431707382202148 1.50808393955230713 0.350593388080596924
3.21955537796020508 1.36708652973175049 1.03078675270080566
3.27067899703979492 -0.136825710535049438 0.989605426788330078
-1.33539748191833496 -2.88538169860839844 1.15003061294555664
-2.45258831977844238 -2.2423851490020752 0.463197380304336548
3.11655735969543457 -1.39682340621948242 1.23775923252105713
3.25633525848388672 0.732760906219482422 0.402814716100692749
-1.28661048412322998 -1.03582763671875 0.375870376825332642
2.61693263053894043 1.70102667808532715 0.727047860622406006
1.05871152877807617 2.35321760177612305 0.850803077220916748
-1.94423389434814453 -2.83796548843383789 1.00822567939758301
1.91693198680877686 -0.613030552864074707 0.53499293327331543
-2.74785184860229492 -0.827990531921386719 1.34287118911743164
1.41693675518035889 -1.23652923107147217 0.492372483015060425
-2.67221879959106445 -2.55900120735168457 1.30164980888366699
0.454430878162384033 2.22865772247314453 0.232971563935279846
-0.693318784236907959 3.28350520133972168 1.3316338062286377
-0.246670946478843689 -2.51236891746520996 0.29266279935836792
3.79824662208557129 0.635009288787841797 0.614846706390380859
2.89375209808349609 -0.23295457661151886 0.579923391342163086
-0.34032672643661499 1.41013514995574951 0.344809979200363159
2.03417420387268066 -1.33959150314331055 0.591788649559020996
0.0717713236808776855 -0.952704071998596191 0.491293072700500488
0.558435201644897461 2.70750737190246582 1.35511767864227295
2.1321558952331543 0.871573269367218018 0.264200925827026367
-0.119546443223953247 -3.21509575843811035 1.19684863090515137
-1.46335494518280029 -0.206177830696105957 0.398490846157073975
-0.276340484619140625 3.21117210388183594 0.700024247169494629
1.47700262069702148 2.22267961502075195 1.29961538314819336
-2.68738341331481934 -1.68819987773895264 1.17555403709411621
2.0276329517364502 1.79884517192840576 1.47843170166015625
-0.354072213172912598 0.0485433638095855713 0.383831441402435303
-0.581203699111938477 -3.07630348205566406 1.14358747005462646
-2.62777423858642578 -1.45587968826293945 0.939651608467102051
3.04916191101074219 -0.260500282049179077 0.613573968410491943
-2.100830078125 1.68167579174041748 1.10906350612640381
-2.57965898513793945 0.467728883028030396 1.18118822574615479
-0.863142490386962891 3.24990987777709961 1.18530857563018799
1.97441768646240234 1.79717838764190674 0.415285646915435791
3.12540888786315918 0.0664721354842185974 0.916648030281066895
-2.19148921966552734 -3.05556321144104004 1.26553702354431152
2.5677940845489502 -1.21416091918945312 0.680145025253295898
-2.50593447685241699 0.703897833824157715 0.931157112121582031
-1.20752835273742676 1.01862168312072754 0.307461321353912354
3.12712311744689941 -0.547278165817260742 1.01061177253723145
3.32757019996643066 1.56260228157043457 0.949765443801879883
-2.39062643051147461 -2.69958949089050293 1.08209991455078125
-2.65237617492675781 -0.317482143640518188 1.08019232749938965
-2.16120767593383789 1.76607882976531982 0.565585434436798096
-1.26265347003936768 3.05624556541442871 0.777401208877563477
-2.52490735054016113 -0.838461041450500488 1.0220787525177002
3.08327245712280273 -0.0336141586303710938 0.563017725944519043
-0.896988332271575928 -2.81097245216369629 0.49480825662612915
-2.49850654602050781 -2.30475831031799316 1.79636979103088379
0.00308819115161895752 3.3254997730255127 0.333465158939361572
-2.11914324760437012 -1.75168251991271973 0.365037202835083008
2.66172099113464355 1.7964024543762207 0.771218597888946533
-1.88116717338562012 2.16098856925964355 0.434629768133163452
1.9306865930557251 -1.31902980804443359 0.577540218830108643
-1.82823753356933594 2.1344912052154541 1.24525928497314453
-1.53627622127532959 2.85596370697021484 1.0372854471206665
0.10391998291015625 -2.15223050117492676 0.81413578987121582
-0.64385831356048584 2.11952328681945801 0.325505346059799194
0.868209362030029297 2.16918253898620605 0.396781712770462036
0.124052315950393677 -3.05185604095458984 0.992123126983642578
3.3942413330078125 0.134763434529304504 0.507953882217407227
-1.9488532543182373 2.15773200988769531 1.0441594123840332
0.242261022329330444 2.80569839477539062 0.555283427238464355
2.53733277320861816 2.0601341724395752 0.983805656433105469
2.07560372352600098 -2.04813313484191895 0.856257796287536621
-2.48165750503540039 -2.48295283317565918 0.958841145038604736
3.64629149436950684 1.17837011814117432 0.639688074588775635
-1.7659306526184082 1.87783539295196533 0.361329555511474609
-1.50995254516601562 2.72438669204711914 1.41828131675720215
-1.15530645847320557 -3.14412045478820801 1.34176671504974365
0.950649380683898926 -1.89808547496795654 0.898753643035888672
3.38626742362976074 0.582957923412322998 0.565366983413696289
-0.538923263549804688 3.29858970642089844 0.801260113716125488
2.98907852172851562 1.57251405715942383 1.29083669185638428
3.92740678787231445 0.945353984832763672 0.570560276508331299
1.38024544715881348 -0.456548571586608887 0.326285362243652344
-2.52081751823425293 0.159526437520980835 1.01328873634338379
-0.686285138130187988 0.996363162994384766 0.239179700613021851
2.58837080001831055 -1.10530328750610352 0.632192492485046387
-1.59866499900817871 0.302932858467102051 0.524884462356567383
2.56681513786315918 1.68968403339385986 0.464507073163986206
2.24241161346435547 1.84279894828796387 0.586677432060241699
1.22858071327209473 1.76944005489349365 0.228988483548164368
2.25223135948181152 -1.43092966079711914 0.754866302013397217
1.61321473121643066 -2.3211510181427002 0.683699667453765869
0.164777755737304688 2.84449052810668945 0.272702455520629883
0.13981221616268158 3.21260881423950195 1.20552599430084229
1.49511504173278809 2.30692386627197266 1.06995415687561035
2.24833774566650391 -1.28450405597686768 0.337836414575576782
0.732977986335754395 2.49367451667785645 0.404891371726989746
-2.56195473670959473 -0.487923175096511841 0.91372370719909668
-0.109773188829421997 -2.81385302543640137 0.422566741704940796
-0.901465773582458496 3.21948075294494629 1.20457220077514648
-0.861686170101165771 -2.94511961936950684 0.771212935447692871
-0.0283957421779632568 -2.03132152557373047 0.694879531860351562
-2.51624345779418945 -1.67106962203979492 0.553427696228027344
0.0631481334567070007 3.09092092514038086 0.373853862285614014
-2.04216384887695312 -2.98251891136169434 1.06264400482177734
3.46652865409851074 0.940244376659393311 0.929691553115844727
1.99284720420837402 -0.603842437267303467 0.550039052963256836
3.15930628776550293 -0.102430716156959534 1.15677595138549805
-1.04392361640930176 -2.0286412239074707 0.698600828647613525
3.15788984298706055 0.255023419857025146 0.631754577159881592
-2.44826817512512207 0.942456722259521484 0.83716505765914917
-1.99386346340179443 1.36331689357757568 1.36733090877532959
-2.18542790412902832 2.1914665699005127 0.489377498626708984
1.49626791477203369 2.41936397552490234 0.737405896186828613
-2.20858192443847656 -2.64148640632629395 0.833995699882507324
0.830160379409790039 -1.0440363883972168 0.345779180526733398
1.94284141063690186 1.99409365653991699 1.23735809326171875
-0.59264904260635376 -2.88881325721740723 0.332839488983154297
-2.27042174339294434 1.58941388130187988 0.470420122146606445
3.28137636184692383 0.432547599077224731 0.391180336475372314
2.44526982307434082 -1.25905966758728027 0.4209880530834198
2.97343969345092773 -0.803064107894897461 0.646810829639434814
3.43345332145690918 0.992475688457489014 1.22881925106048584
-2.24087095260620117 1.13568198680877686 1.05848169326782227
-0.359760463237762451 2.70934677124023438 0.501113355159759521
3.16034054756164551 1.09223031997680664 0.823857784271240234
3.44204378128051758 -0.288162678480148315 0.551149368286132812
-2.05982327461242676 -2.84120273590087891 1.9369359016418457
2.8305058479309082 1.03077995777130127 0.333862572908401489
-2.73753237724304199 -1.41219580173492432 1.17886090278625488
-1.6700822114944458 -3.09228634834289551 1.67423558235168457
3.11218428611755371 -0.325244992971420288 0.58238595724105835
-2.29778432846069336 -1.39760732650756836 0.421436220407485962
-0.0215798132121562958 -2.29393482208251953 0.500055849552154541
-1.68069994449615479 -2.76621270179748535 1.02842593193054199
-1.76468551158905029 -2.97864294052124023 1.12593603134155273
3.25739002227783203 -0.23863634467124939 0.966180086135864258
-1.47015464305877686 1.51362991333007812 0.391900181770324707
0.258830249309539795 2.90731549263000488 0.400814831256866455
-2.58568263053894043 0.488834887742996216 1.3519974946975708
-1.08228158950805664 -0.174781382083892822 0.261192470788955688
-0.564723968505859375 0.480105280876159668 0.264976412057876587
-2.04925441741943359 -0.817938923835754395 0.679415464401245117
-0.298770099878311157 3.19985246658325195 0.773792028427124023
-0.119094513356685638 -3.22511792182922363 1.23408269882202148
2.02208781242370605 1.32140195369720459 0.42823067307472229
3.18069601058959961 -0.872587263584136963 1.13065457344055176
0.605144679546356201 2.48314070701599121 1.47376656532287598
-2.42754745483398438 -2.0026090145111084 0.944193542003631592
0.499082207679748535 2.75551724433898926 1.184295654296875
3.07404351234436035 -0.104522183537483215 0.481217771768569946
-0.24129822850227356 -2.78986191749572754 0.557008504867553711
-2.06104564666748047 1.82787346839904785 0.75007164478302002
-0.439953595399856567 -1.08728301525115967 0.375170052051544189
3.21850490570068359 0.36162567138671875 0.429310530424118042
-2.5220944881439209 0.79149925708770752 1.03852128982543945
-0.854346811771392822 3.47272014617919922 0.769221782684326172
1.7050628662109375 2.03308653831481934 1.30068612098693848
1.42490184307098389 2.2314140796661377 0.877495348453521729
-1.96128463745117188 2.32925748825073242 0.659316182136535645
0.200737863779067993 -2.7635653018951416 0.759121417999267578
-0.0328680723905563354 3.24213743209838867 0.921815812587738037
-2.36722874641418457 -2.84644365310668945 1.25168585777282715
3.00217819213867188 1.3505394458770752 0.382094770669937134
3.28127050399780273 -0.34728318452835083 1.11287379264831543
2.66122198104858398 1.6986464262008667 0.74198615550994873
-1.51623344421386719 2.77911949157714844 1.46122837066650391
2.91826581954956055 -1.25043845176696777 0.874308466911315918
0.83824843168258667 2.37753081321716309 1.46174275875091553
1.66383695602416992 -1.47222030162811279 0.644453644752502441
-1.69078826904296875 2.59610962867736816 0.60049128532409668
3.1647946834564209 -0.724671006202697754 0.552200853824615479
0.90420079231262207 1.25649237632751465 0.240332022309303284
-1.56319308280944824 2.10917282104492188 1.47732412815093994
-2.4258878231048584 -0.791657209396362305 0.947942852973937988
3.19708657264709473 0.236454308032989502 0.467630505561828613
0.412215918302536011 2.34078884124755859 0.430808603763580322
1.94056415557861328 -1.0009918212890625 0.442423731088638306
-2.59193849563598633 -1.43619453907012939 1.0503537654876709
-0.942971706390380859 3.13373517990112305 1.10818576812744141
0.219365566968917847 -2.57030415534973145 0.844457447528839111
-0.648332834243774414 3.25327324867248535 1.22795140743255615
-2.38692593574523926 -3.00404667854309082 2.08985185623168945
-1.10218977928161621 -0.634805202484130859 0.436962932348251343
-2.74975037574768066 -1.96288645267486572 1.51799702644348145
2.06988072395324707 -1.1366724967956543 0.55094677209854126
3.12159061431884766 -0.567687332630157471 0.485521107912063599
2.33018159866333008 1.89793765544891357 0.633169710636138916
-2.4762413501739502 1.58361208438873291 0.49778708815574646
3.18080711364746094 0.110796883702278137 0.743257999420166016
3.35740852355957031 0.339552164077758789 0.490817844867706299
