ply
format ascii 1.0
element vertex 147
comment vertices
property float x
property float y
property float z
end_header
3.66731500625610352 2.05790519714355469 0.411681264638900757
-3.04751777648925781 1.99750804901123047 0.172413855791091919
1.19836580753326416 -0.607193708419799805 0.43540617823600769
1.83677089214324951 1.08753871917724609 1.77785587310791016
-0.578584551811218262 1.44612812995910645 0.574528098106384277
-2.84067487716674805 1.61023521423339844 1.94968986511230469
1.47357439994812012 -0.792853057384490967 1.74699115753173828
3.35394835472106934 1.29613280296325684 1.98981583118438721
-1.39745354652404785 -0.39886242151260376 0.43502536416053772
0.728835225105285645 0.827238619327545166 0.504736721515655518
0.406030893325805664 -0.089864782989025116 1.76135492324829102
-2.03026413917541504 0.569882214069366455 2.18179631233215332
0.665691196918487549 -0.4472694993019104 1.45457231998443604
1.83144223690032959 0.15875108540058136 2.03915977478027344
-1.47637152671813965 -0.674581289291381836 2.16310262680053711
1.53450393676757812 0.109966978430747986 0.701410949230194092
1.61893844604492188 -0.499720335006713867 0.992950201034545898
-0.10962250828742981 -0.426605820655822754 1.30629181861877441
-0.441155463457107544 0.21471598744392395 0.869315028190612793
-1.82625305652618408 -0.019403163343667984 1.07880675792694092
2.60663557052612305 1.45364522933959961 1.87575209140777588
2.28927969932556152 1.63232064247131348 0.693906307220458984
-3.74648475646972656 1.65893244743347168 1.93440556526184082
1.71254193782806396 -0.482347458600997925 2.01882362365722656
1.68406927585601807 0.389153867959976196 0.884602665901184082
1.10217916965484619 1.58349049091339111 0.361340433359146118
0.639670848846435547 -0.477057129144668579 1.4230964183807373
-2.21441507339477539 0.572789311408996582 1.09984612464904785
-1.24821305274963379 -0.649522960186004639 0.62422335147857666
1.08427655696868896 -0.115420624613761902 2.04889798164367676
1.36964845657348633 0.637657046318054199 1.91952729225158691
-1.7540900707244873 -0.176070854067802429 2.16775298118591309
-2.25221157073974609 1.18808043003082275 2.09909868240356445
2.15793728828430176 1.19949185848236084 1.70516741275787354
-2.7660670280456543 1.72852540016174316 0.71882784366607666
-2.18797779083251953 -0.187873244285583496 1.6812208890914917
0.751248061656951904 0.230605080723762512 0.876230061054229736
1.35308325290679932 -0.839915335178375244 1.824043869972229
1.25055503845214844 1.13461124897003174 0.519728541374206543
-0.0949477404356002808 1.0150148868560791 0.2357340008020401
0.168974995613098145 -0.403699696063995361 1.74113690853118896
1.70327401161193848 -0.401380717754364014 2.1588594913482666
-0.973011374473571777 0.541506767272949219 0.762190818786621094
3.06582164764404297 1.3723834753036499 0.889523506164550781
1.84042894840240479 0.744855701923370361 1.94813418388366699
1.71208012104034424 0.480676949024200439 1.05853927135467529
-2.13196873664855957 0.289615750312805176 1.49126207828521729
0.211154282093048096 0.211477369070053101 0.912276208400726318
1.49392497539520264 -0.813166558742523193 1.75346171855926514
-0.721235036849975586 -0.351266324520111084 0.611753582954406738
2.09996485710144043 1.16023540496826172 1.88299477100372314
1.56346654891967773 0.504367589950561523 0.671324491500854492
-2.48487496376037598 1.33293664455413818 1.96810543537139893
-0.403146088123321533 -0.41004478931427002 1.02074956893920898
3.00086283683776855 1.14994180202484131 1.82069242000579834
-1.15345573425292969 -0.454291820526123047 0.254012882709503174
-1.82269549369812012 0.171348199248313904 1.1085360050201416
0.978245675563812256 0.180657863616943359 1.81239867210388184
1.89398527145385742 0.17579786479473114 1.7654421329498291
0.642287850379943848 -0.22082170844078064 1.78178763389587402
0.0356954149901866913 -0.438272565603256226 1.1504676342010498
-1.67310416698455811 0.680624723434448242 0.795961380004882812
-1.89889979362487793 0.173207998275756836 2.06954860687255859
2.88480973243713379 2.15213871002197266 0.990751445293426514
-1.72636795043945312 -0.40334010124206543 0.991700649261474609
-1.32242536544799805 -0.736742854118347168 1.90161502361297607
-2.17545104026794434 0.356126278638839722 1.13933467864990234
-3.25166535377502441 1.61998486518859863 1.97023534774780273
0.65554344654083252 -0.442490369081497192 0.532358527183532715
-2.00307226181030273 0.331773936748504639 2.11028027534484863
2.09651708602905273 1.00568175315856934 0.514141321182250977
0.626187622547149658 1.29384994506835938 0.238959208130836487
1.86890590190887451 1.01640212535858154 1.79938364028930664
1.97960782051086426 1.2347877025604248 0.404421031475067139
-2.40988802909851074 1.01595199108123779 1.87491250038146973
-0.350873470306396484 0.91522902250289917 0.676791965961456299
-0.180997103452682495 -0.272556006908416748 1.70670855045318604
1.29778790473937988 -0.834741830825805664 1.67489433288574219
1.33279025554656982 -0.838672637939453125 1.83985209465026855
2.07381653785705566 1.47621619701385498 1.80196714401245117
1.20248270034790039 0.821353495121002197 0.709769845008850098
0.703817486763000488 0.313846707344055176 0.958207488059997559
1.59662461280822754 0.458688020706176758 0.621419906616210938
1.3569490909576416 1.59576690196990967 0.574682652950286865
2.03463459014892578 0.148903459310531616 1.87605977058410645
-2.46429681777954102 1.49364387989044189 1.85714256763458252
-1.45703279972076416 -0.785076737403869629 2.0022737979888916
2.01043272018432617 0.0417321473360061646 1.89912605285644531
-2.13394284248352051 0.594819009304046631 1.01152265071868896
1.77534401416778564 0.280253171920776367 1.84654057025909424
-1.64051520824432373 -0.522982180118560791 1.35680186748504639
1.1701197624206543 1.20626890659332275 0.339751571416854858
1.59378719329833984 0.456161916255950928 0.669191300868988037
-1.81922054290771484 -0.194556653499603271 2.17116189002990723
-1.34273028373718262 -0.446635156869888306 0.510892987251281738
0.114880591630935669 0.735469520092010498 0.590189754962921143
1.06064629554748535 -0.615221321582794189 1.42051172256469727
1.82601165771484375 0.477270841598510742 1.18430113792419434
0.38037872314453125 -0.449831157922744751 1.36684107780456543
1.36659407615661621 -0.671491861343383789 0.533444523811340332
1.65117454528808594 0.934596121311187744 1.85952723026275635
1.31774318218231201 -0.881946265697479248 1.77392733097076416
0.753718972206115723 -0.173598110675811768 1.81602644920349121
-2.0788722038269043 0.461642235517501831 1.91352963447570801
1.60059034824371338 0.476856201887130737 0.733641982078552246
0.0466507785022258759 -0.451528668403625488 1.15403974056243896
-1.5831453800201416 -0.331344664096832275 1.56712853908538818
-1.56863021850585938 -0.895155787467956543 1.7421717643737793
-0.202751666307449341 -0.444450914859771729 1.44101381301879883
-2.66702818870544434 2.04025626182556152 0.325690209865570068
1.54816770553588867 0.22458590567111969 0.757027804851531982
-0.719089627265930176 -0.414206802845001221 0.97840350866317749
-2.31440544128417969 1.66000068187713623 0.503001987934112549
0.183120548725128174 -0.336144089698791504 1.68312633037567139
1.52923929691314697 -0.855156421661376953 1.93709230422973633
-1.58500969409942627 -0.738707184791564941 1.1012648344039917
-2.0809333324432373 0.712301552295684814 0.623575687408447266
1.76614296436309814 0.553696632385253906 0.493523895740509033
1.7806708812713623 0.411174595355987549 1.05692434310913086
1.88360142707824707 0.747684180736541748 1.86934292316436768
2.25310206413269043 1.16609072685241699 0.634631991386413574
-1.47031116485595703 -0.735211014747619629 2.13247060775756836
1.33749544620513916 1.20706534385681152 0.586128830909729004
-0.79421079158782959 0.475048601627349854 0.646786332130432129
1.9503331184387207 1.02149426937103271 1.88573586940765381
-1.0017859935760498 0.863609194755554199 0.673044145107269287
-0.443052947521209717 -0.38362470269203186 1.49751949310302734
1.99935817718505859 0.0853853225708007812 2.01445531845092773
-0.264527648687362671 1.29424464702606201 0.485345393419265747
1.35513007640838623 -0.802363455295562744 1.77229666709899902
-1.4408111572265625 -0.0666247978806495667 2.00538134574890137
1.64222180843353271 -0.420601427555084229 1.92332112789154053
1.64454269409179688 -0.0744750499725341797 0.848723411560058594
-1.94394457340240479 0.247059404850006104 1.21896624565124512
0.374021202325820923 -0.349922388792037964 0.656026959419250488
-0.286769211292266846 0.730121731758117676 0.630122900009155273
-2.19568800926208496 1.06410479545593262 2.0268399715423584
1.75466394424438477 0.505503416061401367 0.93243253231048584
-1.53281009197235107 -0.851020693778991699 1.14546322822570801
1.98446059226989746 1.01201534271240234 2.11827731132507324
-2.00228476524353027 0.482569992542266846 2.18636250495910645
1.96648812294006348 -0.422031223773956299 1.2988739013671875
1.69397151470184326 0.475937336683273315 0.800051987171173096
2.18347001075744629 1.39732241630554199 2.04430031776428223
-1.36931502819061279 -0.766662895679473877 2.05577230453491211
1.18913912773132324 -0.357671141624450684 0.282784342765808105
-2.20386767387390137 0.351442873477935791 1.19881308078765869
