ply
format ascii 1.0
element vertex 95
comment vertices
property float x
property float y
property float z
end_header
0.913193821907043457 -2.28483843803405762 1.23567628860473633
1.70435583591461182 2.26428937911987305 1.09901702404022217
1.79316282272338867 2.49974513053894043 1.52516055107116699
-0.148780032992362976 1.16396212577819824 0.976734697818756104
0.643620669841766357 -2.55732131004333496 1.01059448719024658
-1.56033790111541748 1.23311340808868408 1.31210410594940186
-0.36661723256111145 -2.64610576629638672 1.17057383060455322
0.0796463936567306519 3.72592401504516602 0.701499223709106445
-1.35731756687164307 -1.78960311412811279 1.01897728443145752
1.81279611587524414 2.42467093467712402 1.34562313556671143
-0.127498656511306763 1.26179242134094238 0.750693738460540771
1.36520147323608398 -1.67662012577056885 1.36963474750518799
0.0381505563855171204 0.898178994655609131 0.7947540283203125
-0.11088927835226059 0.205433353781700134 1.85174226760864258
0.0285407230257987976 3.47909998893737793 0.690759181976318359
1.47428214550018311 -1.54009568691253662 1.40396130084991455
-0.817666888236999512 -2.5823512077331543 1.08833599090576172
-0.18140430748462677 -2.6652991771697998 1.09734451770782471
0.887828350067138672 -2.24431490898132324 1.11988067626953125
0.0164335370063781738 1.0276719331741333 0.714003801345825195
-0.142022445797920227 1.11831724643707275 0.708298623561859131
0.0198084190487861633 1.03698015213012695 0.791220724582672119
-0.391997367143630981 -2.65915441513061523 1.2543950080871582
1.59304451942443848 1.83385312557220459 1.50246608257293701
-0.0378529578447341919 3.36490774154663086 0.784329712390899658
-0.034786418080329895 0.452009052038192749 1.23687148094177246
0.214005321264266968 -2.60998249053955078 1.21690380573272705
1.34200203418731689 -1.73807108402252197 1.25267517566680908
1.75496125221252441 2.11575198173522949 1.36111342906951904
1.1326134204864502 -2.07672619819641113 1.11769890785217285
-0.595093607902526855 -2.62326240539550781 1.11009931564331055
-1.36073756217956543 -1.56520748138427734 1.08715724945068359
1.7881319522857666 2.23491644859313965 1.3535228967666626
0.158206909894943237 0.742188394069671631 0.678264141082763672
0.178312510251998901 -2.65129971504211426 1.03174829483032227
-1.33660781383514404 -1.93173038959503174 1.10001289844512939
-0.0168549790978431702 1.32106685638427734 0.77411264181137085
1.77377843856811523 2.44841718673706055 1.2053375244140625
-0.182081103324890137 1.10271644592285156 0.806943714618682861
-0.147864446043968201 1.13477051258087158 0.710695385932922363
1.7661738395690918 2.42262554168701172 1.28844404220581055
1.46185111999511719 -1.43564534187316895 1.30364477634429932
0.0800132453441619873 3.47856616973876953 0.767109215259552002
-1.24406182765960693 -2.1043546199798584 1.19990074634552002
1.04209244251251221 -2.12528824806213379 1.20740640163421631
-0.192793428897857666 0.837170600891113281 0.56348717212677002
0.0356164425611495972 1.2421497106552124 0.553011655807495117
-1.18726122379302979 -2.08437943458557129 1.08788728713989258
1.54015326499938965 -1.21050512790679932 1.29227447509765625
-0.0804556682705879211 0.56241530179977417 1.0929267406463623
-0.174016863107681274 1.20273733139038086 0.784336090087890625
0.388308882713317871 -2.61121106147766113 1.27080106735229492
-1.55950284004211426 1.39510822296142578 1.33089148998260498
-0.57410198450088501 -2.65977215766906738 1.11562168598175049
0.114346660673618317 1.36333596706390381 0.757031738758087158
-0.0193811804056167603 3.48382139205932617 0.655174851417541504
-0.0737321078777313232 -2.65079641342163086 1.20878541469573975
-0.342143505811691284 -2.66212081909179688 1.17507946491241455
-0.152033105492591858 1.22632861137390137 0.979779422283172607
1.17903327941894531 -1.9654618501663208 1.18946611881256104
1.25771057605743408 -1.93550443649291992 1.17718195915222168
0.0140373557806015015 3.92675352096557617 0.808530032634735107
1.02288055419921875 -2.16031742095947266 1.16861486434936523
1.50818586349487305 -1.40525782108306885 1.34285938739776611
1.7623976469039917 2.24418401718139648 1.38059628009796143
-0.0407139435410499573 0.391499996185302734 1.55414235591888428
0.652862966060638428 -2.47677350044250488 1.1333305835723877
0.116831697523593903 1.17042648792266846 0.675736725330352783
-1.60970616340637207 2.44565320014953613 0.987278282642364502
-0.00960754603147506714 0.917864978313446045 0.630953788757324219
-0.146667003631591797 1.10144507884979248 0.750413358211517334
-0.136723369359970093 0.226174399256706238 1.58257758617401123
-1.56593954563140869 1.11685609817504883 1.2582552433013916
1.53927206993103027 -1.23809897899627686 1.31061780452728271
-1.38886260986328125 -1.55184698104858398 1.01752305030822754
1.6435168981552124 2.37149357795715332 0.91665947437286377
-1.20285797119140625 -2.24312567710876465 1.24579262733459473
0.113707154989242554 -2.63632941246032715 1.2289741039276123
-0.00775549560785293579 3.38640022277832031 0.749800562858581543
-1.56207096576690674 0.903977453708648682 1.36387145519256592
-0.61885756254196167 -2.64564228057861328 1.10500025749206543
1.452781081199646 -1.34959816932678223 1.26793146133422852
0.127565532922744751 1.4046778678894043 0.586799502372741699
-1.45388352870941162 -1.38109803199768066 1.16416597366333008
0.000357236713171005249 -2.67931079864501953 1.17795765399932861
-0.181020408868789673 1.08994901180267334 0.830161213874816895
-0.48991471529006958 -2.64862871170043945 1.09558761119842529
-1.23218917846679688 -2.11876702308654785 1.17176699638366699
0.664925813674926758 -2.47000837326049805 1.17048346996307373
-1.55430972576141357 -0.577685356140136719 1.26445364952087402
-1.51559484004974365 1.83195984363555908 1.4301295280456543
-0.127704858779907227 1.05631661415100098 0.681088447570800781
0.200858414173126221 1.15499222278594971 0.729793012142181396
-0.87169647216796875 -2.57594633102416992 0.988388597965240479
-0.174767941236495972 1.03313040733337402 0.588378489017486572
