ply
format ascii 1.0
element vertex 256
comment vertices
property float x
property float y
property float z
end_header
1.79461610317230225 0.827762305736541748 0.656070530414581299
-1.46788632869720459 -2.85981583595275879 1.85320651531219482
-2.16569709777832031 1.86163914203643799 2.40554952621459961
1.13660311698913574 -2.57318663597106934 1.04899919033050537
-1.59060442447662354 -0.66185075044631958 0.596856415271759033
0.72858738899230957 2.17457747459411621 1.7532724142074585
3.39986371994018555 2.58741641044616699 0.980622172355651855
-0.657083094120025635 1.98449409008026123 0.331700682640075684
-1.11198902130126953 -2.83737087249755859 0.508329629898071289
-1.59591865539550781 -0.840990662574768066 2.28316187858581543
0.903250575065612793 -0.882014751434326172 1.01748454570770264
-0.261928439140319824 0.358110785484313965 0.933842480182647705
0.120159409940242767 -3.13542628288269043 0.996587276458740234
3.02532744407653809 0.996981620788574219 0.918761849403381348
0.548016846179962158 -0.6681022047996521 0.651941597461700439
1.11131906509399414 2.15639758110046387 1.2220613956451416
-1.83291435241699219 1.10094761848449707 1.3160545825958252
-0.753924429416656494 -2.12277603149414062 1.80622100830078125
-0.797362327575683594 1.94947969913482666 1.4281308650970459
2.42029190063476562 2.20375561714172363 0.748847424983978271
0.890592038631439209 0.561103105545043945 1.28314554691314697
0.55941462516784668 1.03418612480163574 0.82031714916229248
1.73257279396057129 2.08913779258728027 1.06654751300811768
1.19373595714569092 -2.31226420402526855 0.93396461009979248
0.702236711978912354 -0.400673210620880127 0.477465629577636719
-0.945707023143768311 1.08245766162872314 0.290921241044998169
-1.89747285842895508 -0.53467172384262085 1.32177519798278809
3.11318397521972656 1.15544664859771729 0.836478531360626221
-2.03110027313232422 2.09352231025695801 1.42697536945343018
0.0144808031618595123 -3.19665932655334473 0.900299429893493652
-0.861343920230865479 -3.08855676651000977 1.53751862049102783
-1.04690062999725342 2.01160144805908203 2.52280187606811523
-0.917101621627807617 -1.74943244457244873 0.54402315616607666
-0.295849233865737915 0.193002969026565552 0.873236656188964844
-1.46713805198669434 -1.90124142169952393 1.92299318313598633
-0.673604130744934082 1.62405061721801758 0.485413312911987305
-1.60121297836303711 -1.12797701358795166 1.4404909610748291
3.47336411476135254 1.79223346710205078 0.966895461082458496
-1.08350968360900879 2.09778833389282227 0.806873917579650879
0.653923213481903076 0.126701265573501587 0.592894613742828369
2.25638771057128906 0.795037329196929932 0.948934972286224365
0.617090761661529541 -1.12159264087677002 0.79022669792175293
-0.941048800945281982 -0.999957501888275146 0.791683793067932129
0.0275961235165596008 2.11457061767578125 1.67118847370147705
-0.83040386438369751 -2.07046198844909668 0.640126407146453857
0.805181324481964111 -3.15881538391113281 0.863914132118225098
1.69111418724060059 2.00041842460632324 1.06337833404541016
0.531014621257781982 -0.484283775091171265 0.605111181735992432
0.62471461296081543 -1.83870899677276611 0.901665568351745605
-1.05963635444641113 0.391671538352966309 0.617461681365966797
-1.36051535606384277 -2.5568397045135498 1.15180277824401855
0.0662454888224601746 1.85258829593658447 0.294436633586883545
-1.12137162685394287 1.80356264114379883 0.515703856945037842
0.665305852890014648 0.141460299491882324 0.445437312126159668
-1.02347683906555176 1.67682135105133057 1.72314679622650146
-0.253165632486343384 2.00678157806396484 2.143280029296875
0.633916139602661133 0.157375827431678772 0.425848543643951416
-1.69416594505310059 -0.861456513404846191 2.09821987152099609
-0.806876063346862793 -2.27740859985351562 1.68975114822387695
-1.40401363372802734 -2.66101479530334473 1.56718599796295166
2.86966633796691895 2.4853508472442627 0.650021970272064209
1.36168956756591797 2.106658935546875 1.12841558456420898
1.21301770210266113 -2.32741451263427734 0.959605157375335693
2.81035614013671875 1.61870288848876953 0.986389577388763428
-0.629370629787445068 1.45024645328521729 0.312878429889678955
-1.51814365386962891 0.0252944231033325195 0.707066118717193604
3.38527655601501465 1.68351781368255615 1.08277046680450439
-1.04665458202362061 1.40515995025634766 0.377146005630493164
1.5336761474609375 2.0848228931427002 1.04406774044036865
-0.254325419664382935 1.94931697845458984 0.479836165904998779
-0.521581351757049561 -3.26451301574707031 0.91744840145111084
1.29246652126312256 1.52870118618011475 0.709454238414764404
2.87552690505981445 0.923795938491821289 0.875536978244781494
-0.900211691856384277 -0.737631499767303467 0.525248467922210693
0.77909553050994873 -1.08882629871368408 0.850562691688537598
-1.09890973567962646 -2.84422922134399414 0.606864273548126221
0.338049113750457764 1.82841992378234863 1.65212953090667725
-1.23317193984985352 -0.754817605018615723 0.742928683757781982
-0.540039360523223877 0.359459370374679565 0.726128876209259033
-0.584455788135528564 -1.69797110557556152 0.320148050785064697
-0.680843234062194824 -2.20313787460327148 1.3202202320098877
-1.00284266471862793 2.08315229415893555 0.905094742774963379
0.578149139881134033 -0.103117130696773529 0.41890755295753479
2.93669295310974121 2.55490756034851074 0.557970523834228516
0.687234878540039062 -0.484769761562347412 0.652779936790466309
-0.89020836353302002 -1.78873312473297119 0.618605315685272217
-0.556061387062072754 -2.46816802024841309 0.704219937324523926
0.838586151599884033 -1.21768414974212646 0.811640560626983643
-1.9662940502166748 1.73787212371826172 1.90464568138122559
-1.52557837963104248 0.187309026718139648 1.35206568241119385
-0.314483344554901123 0.854910671710968018 0.570115983486175537
3.23071193695068359 1.71100592613220215 1.05957770347595215
0.749437153339385986 -3.18876504898071289 0.856172442436218262
0.532107770442962646 0.0653732568025588989 0.390104770660400391
3.30714035034179688 1.36162090301513672 0.957479000091552734
-1.17330336570739746 1.95973062515258789 2.10342025756835938
1.10053634643554688 -2.68858885765075684 0.961772322654724121
-0.87281268835067749 -3.0571904182434082 0.613996624946594238
-1.6713947057723999 1.84175562858581543 0.677951216697692871
0.180766835808753967 -3.16253829002380371 0.77967303991317749
-0.531359374523162842 1.37760424613952637 1.1663978099822998
1.17921686172485352 2.16711640357971191 1.01324188709259033
-1.43247485160827637 1.99597132205963135 2.26461482048034668
-1.42777657508850098 -2.34125590324401855 0.52497410774230957
-1.03335225582122803 1.98543691635131836 1.79055273532867432
-1.5167311429977417 -2.64016532897949219 1.9413071870803833
3.31051158905029297 2.10754776000976562 0.79361116886138916
-0.934890270233154297 -2.23770952224731445 0.342316746711730957
0.536639988422393799 0.236019521951675415 1.43609786033630371
-0.88976365327835083 -0.710695564746856689 0.47752082347869873
1.16014492511749268 -2.51157951354980469 0.963322937488555908
-0.907560646533966064 1.21249020099639893 0.334598422050476074
-0.169997155666351318 1.78170287609100342 0.294729053974151611
-0.908499002456665039 -1.34898293018341064 0.565139412879943848
-0.032953556627035141 1.93719017505645752 1.49158668518066406
2.66762447357177734 0.75953221321105957 0.638382971286773682
0.693278372287750244 -0.895659148693084717 0.767332971096038818
-0.979872524738311768 -3.04860711097717285 1.62442469596862793
0.817925453186035156 0.264300763607025146 0.355251163244247437
-0.788621068000793457 1.84402012825012207 0.529511511325836182
2.13098740577697754 2.15745210647583008 0.86994701623916626
0.74089127779006958 2.22573184967041016 1.50160539150238037
3.15307450294494629 2.38139176368713379 0.778940975666046143
0.568610548973083496 0.172177895903587341 0.51139676570892334
-1.34228384494781494 -1.05382859706878662 0.908760309219360352
0.801755249500274658 2.38681173324584961 1.38433349132537842
-1.69508719444274902 -0.685125470161437988 2.20414161682128906
0.115020066499710083 2.05856013298034668 1.47800981998443604
2.03145217895507812 2.12579679489135742 0.876063287258148193
2.53984618186950684 0.847214460372924805 1.08067917823791504
-1.74197077751159668 -0.817767798900604248 1.94955599308013916
1.43756210803985596 0.871159672737121582 0.242997348308563232
0.573359429836273193 -0.157558634877204895 0.377107501029968262
-1.17690515518188477 -2.75046944618225098 1.22259199619293213
-0.815582156181335449 1.53289401531219482 0.329684674739837646
0.686272621154785156 -2.58615970611572266 1.05291736125946045
-0.525410234928131104 1.97004663944244385 0.351044356822967529
-1.56762135028839111 -0.228029027581214905 0.905331611633300781
0.666835308074951172 0.128000825643539429 0.475856542587280273
0.189106732606887817 2.0597529411315918 2.39514613151550293
-0.953781723976135254 -2.47398138046264648 0.722923755645751953
-0.322556883096694946 2.0080268383026123 1.39088964462280273
2.06997251510620117 0.667546391487121582 0.936451911926269531
-1.16970062255859375 1.24691247940063477 0.317088156938552856
-1.86308431625366211 1.2530207633972168 1.40475130081176758
0.971110343933105469 -0.404962688684463501 1.21021044254302979
-1.26818752288818359 0.806089580059051514 0.804907143115997314
-0.46837770938873291 -3.19747638702392578 1.11501550674438477
-1.20970237255096436 -1.25483477115631104 0.722781181335449219
-0.875479042530059814 0.490957260131835938 0.53502124547958374
-0.73668748140335083 1.898781418800354 1.44996607303619385
-1.51796269416809082 1.85566830635070801 2.25792169570922852
-1.90401554107666016 -0.535226643085479736 1.10867941379547119
0.627856433391571045 2.29091548919677734 0.435796439647674561
1.15798616409301758 -2.14427947998046875 1.02693915367126465
-1.02644574642181396 -0.367350995540618896 0.635036766529083252
3.06869125366210938 2.42017745971679688 0.687495648860931396
0.986294031143188477 0.672567546367645264 1.05436527729034424
0.0212130732834339142 1.79535412788391113 0.266625523567199707
1.88471710681915283 1.69316351413726807 0.591213643550872803
-1.73225736618041992 -0.994727134704589844 2.13389801979064941
0.666422128677368164 0.133713573217391968 0.452442407608032227
-0.935857295989990234 1.60140526294708252 0.38190615177154541
-0.725490331649780273 -3.05297231674194336 0.594437599182128906
0.0977141931653022766 2.07569742202758789 0.788222014904022217
-0.797495663166046143 -2.08761835098266602 1.15292418003082275
0.346321225166320801 -2.50909686088562012 1.00592529773712158
-1.50473546981811523 -2.60652661323547363 1.79079937934875488
-0.564660906791687012 2.01684451103210449 2.21326494216918945
1.04685449600219727 0.533260822296142578 0.324705302715301514
1.09740364551544189 -2.8597724437713623 0.798906028270721436
0.540397703647613525 -0.846908688545227051 0.695907652378082275
0.612875103950500488 -1.10536444187164307 0.793457686901092529
0.805305659770965576 -3.17677116394042969 0.833442389965057373
-1.57301938533782959 1.9351661205291748 1.30665981769561768
-1.03325009346008301 1.07724130153656006 0.341863274574279785
0.793347537517547607 0.138314709067344666 0.892581939697265625
0.707247376441955566 0.173371806740760803 0.476017385721206665
-0.820900797843933105 -1.82607007026672363 0.789074540138244629
2.49616408348083496 2.02403044700622559 1.03304624557495117
3.41456508636474609 1.51863539218902588 0.975675106048583984
0.830024480819702148 -1.22196304798126221 0.885843336582183838
-1.77358758449554443 1.9077146053314209 0.753349959850311279
2.99326872825622559 2.42679977416992188 0.720151007175445557
2.11156892776489258 0.723747491836547852 0.98818051815032959
-0.938543558120727539 0.593178331851959229 0.355758637189865112
0.184787705540657043 -0.24561445415019989 0.689218819141387939
-0.890044331550598145 -2.45136666297912598 1.12770092487335205
0.815474510192871094 -1.14558696746826172 0.924181759357452393
-0.571262896060943604 2.03702497482299805 2.47200655937194824
-1.38482308387756348 -2.57353615760803223 0.493379652500152588
3.00289273262023926 2.43304228782653809 0.808421969413757324
-1.13119494915008545 -3.01357555389404297 1.45808720588684082
-0.631879746913909912 1.63372421264648438 0.456195473670959473
-1.16498327255249023 -2.6618964672088623 0.568031787872314453
-1.60664701461791992 -0.191785693168640137 0.726846575736999512
-0.753615200519561768 -2.04852008819580078 1.71996176242828369
1.46376979351043701 2.0846703052520752 1.00867366790771484
1.46485424041748047 2.13514018058776855 0.903804302215576172
0.304487943649291992 2.08796310424804688 1.86762166023254395
-0.828939676284790039 -2.84041023254394531 0.714558660984039307
-0.361010938882827759 0.451866298913955688 0.683433592319488525
2.10340571403503418 2.13550853729248047 0.913646101951599121
-1.1557166576385498 -3.05991244316101074 0.606565237045288086
3.33949565887451172 1.43204975128173828 0.971529245376586914
-1.33537828922271729 1.6975555419921875 0.545005261898040771
1.51419627666473389 1.05624270439147949 0.596647918224334717
-0.957961797714233398 -2.28509378433227539 1.76487195491790771
0.797188699245452881 1.88335418701171875 0.52850717306137085
-0.172480344772338867 1.75492370128631592 0.286255210638046265
-1.75001728534698486 -1.04295825958251953 2.03927755355834961
0.670449256896972656 -0.381526291370391846 0.729116261005401611
1.18353843688964844 -2.25510668754577637 1.01216781139373779
1.92898797988891602 0.624924600124359131 1.10886919498443604
1.5315093994140625 2.08969283103942871 1.00649189949035645
-1.7462773323059082 -0.327169507741928101 1.41560578346252441
0.695379495620727539 0.226044416427612305 0.420913606882095337
-1.01504325866699219 -2.34388828277587891 1.65663266181945801
-1.358711838722229 -0.71696937084197998 0.822068989276885986
-0.446245938539505005 -3.24735212326049805 0.938290059566497803
-0.817274928092956543 -2.10453557968139648 0.464659810066223145
-0.879350125789642334 1.22477626800537109 0.339658677577972412
-1.53337216377258301 1.8518294095993042 1.90267443656921387
-1.4717332124710083 -1.88181662559509277 2.08515310287475586
2.56434512138366699 1.0601804256439209 0.655294299125671387
0.666406631469726562 0.157667815685272217 0.374627679586410522
0.447574585676193237 1.62359046936035156 0.51006472110748291
0.954549610614776611 -3.11991572380065918 0.84536290168762207
0.861846923828125 0.447819352149963379 1.0963742733001709
-0.772588849067687988 1.54261136054992676 0.328911662101745605
1.01172542572021484 -1.68736612796783447 0.992131054401397705
-0.610671103000640869 -3.0280754566192627 1.13474023342132568
2.9373779296875 1.43246912956237793 0.86026310920715332
-1.47730731964111328 -2.59060931205749512 1.71035647392272949
0.204931482672691345 -1.88880026340484619 0.76544034481048584
-0.881887972354888916 -0.563802838325500488 0.538764536380767822
1.1481550931930542 -2.66570949554443359 0.838788986206054688
1.2051997184753418 -2.40003085136413574 0.961199104785919189
-0.920513570308685303 2.03165411949157715 1.58299434185028076
3.43457555770874023 1.85480451583862305 1.09968268871307373
0.311582207679748535 -3.15062785148620605 0.754190683364868164
-0.970377624034881592 1.85764992237091064 1.74952423572540283
-0.381399989128112793 1.39500284194946289 0.447585254907608032
-0.639275252819061279 2.1713559627532959 0.333393573760986328
0.107916861772537231 1.9118722677230835 1.4338066577911377
-0.833973944187164307 -2.30889320373535156 0.987861692905426025
-0.364785909652709961 -1.11475682258605957 0.690185606479644775
3.05635619163513184 0.999119937419891357 0.792585134506225586
3.48002266883850098 1.64085280895233154 0.90475165843963623
0.324009954929351807 -3.1743931770324707 0.758862555027008057
0.576210200786590576 -0.312583178281784058 0.521321713924407959
1.84088563919067383 1.89710569381713867 0.736566424369812012
-1.29257082939147949 0.291578531265258789 0.824350595474243164
2.59313035011291504 0.857776880264282227 1.0641486644744873
-1.0396198034286499 1.15190422534942627 0.33576241135597229
-1.15874969959259033 -1.13271379470825195 0.781431496143341064
