ply
format ascii 1.0
element vertex 256
comment vertices
property float x
property float y
property float z
end_header
-0.974976539611816406 -0.311907708644866943 1.89492297172546387
3.62668061256408691 2.05110788345336914 0.446534246206283569
-3.06169486045837402 1.95379698276519775 0.174227610230445862
1.20260047912597656 -0.583639323711395264 0.406029611825942993
1.77227628231048584 1.07160651683807373 1.7358253002166748
-0.583052337169647217 1.4044036865234375 0.507294058799743652
-2.83657622337341309 1.64182043075561523 1.82347321510314941
1.45452690124511719 -0.814363718032836914 1.73697733879089355
-1.57453417778015137 -0.683787822723388672 0.874532461166381836
1.54375100135803223 0.649461507797241211 0.332952767610549927
3.40357184410095215 1.25705218315124512 1.89593005180358887
2.0099947452545166 0.0312916114926338196 1.5689995288848877
-2.16937375068664551 0.438178062438964844 1.5820080041885376
-0.341419965028762817 -0.406791895627975464 1.15723109245300293
-1.47118270397186279 -0.374254047870635986 0.390613913536071777
-2.05580663681030273 1.7087324857711792 0.521330296993255615
0.688912868499755859 0.81631702184677124 0.430665135383605957
0.441701531410217285 -0.114064455032348633 1.66953086853027344
2.03439950942993164 0.638532578945159912 1.0316624641418457
-1.9913184642791748 0.484587788581848145 2.02747774124145508
0.764720320701599121 -0.527499675750732422 1.48990356922149658
1.80646419525146484 0.14085899293422699 1.9472198486328125
-1.57709658145904541 -0.737890720367431641 2.13473773002624512
-1.48333680629730225 -1.18385601043701172 1.62377965450286865
-2.08113884925842285 0.868951022624969482 1.99131524562835693
1.52656877040863037 0.161949560046195984 0.505960464477539062
1.61088740825653076 -0.509343504905700684 0.892072200775146484
-0.132763504981994629 -0.572542071342468262 1.36683559417724609
-0.416888713836669922 0.223641201853752136 0.764595866203308105
-2.02501630783081055 0.337918877601623535 0.748415112495422363
-1.79893624782562256 -0.00371605157852172852 0.902650952339172363
2.61466217041015625 1.46842861175537109 1.72494184970855713
2.32040715217590332 1.6470494270324707 0.678337931632995605
1.82156467437744141 0.569041252136230469 2.13494539260864258
-3.71006941795349121 1.61101269721984863 1.83317708969116211
0.257620871067047119 -0.610781431198120117 0.835746049880981445
1.7588658332824707 -0.555304586887359619 1.91331398487091064
-1.68946194648742676 0.778420031070709229 0.556457281112670898
-1.88456559181213379 -0.0977428406476974487 2.11419558525085449
1.61499357223510742 0.350585401058197021 0.73656386137008667
-0.511407256126403809 -0.517425358295440674 1.23434436321258545
1.07153582572937012 1.58076763153076172 0.341071248054504395
0.680559515953063965 -0.595110297203063965 1.49849832057952881
-2.33604168891906738 0.639046072959899902 0.934024989604949951
-1.33338415622711182 -0.732468783855438232 0.571073830127716064
1.09555792808532715 -0.173452854156494141 1.97974205017089844
-1.11053323745727539 -0.756986856460571289 1.72063374519348145
1.33066260814666748 0.582866013050079346 1.81627357006072998
-1.80826425552368164 0.746269643306732178 0.485669553279876709
0.504491269588470459 -0.473218530416488647 1.15719866752624512
-1.70740091800689697 -0.267865926027297974 2.08878993988037109
-2.09678483009338379 1.17868924140930176 2.03831028938293457
2.20977902412414551 1.16255402565002441 1.65173196792602539
1.41186213493347168 -0.890786230564117432 0.56915968656539917
-2.72124338150024414 1.74601614475250244 0.626860380172729492
-2.1271202564239502 -0.236852735280990601 1.54658997058868408
0.79887843132019043 0.209880858659744263 0.769298732280731201
-1.88958358764648438 0.317339926958084106 2.19104170799255371
1.30858361721038818 -0.912519693374633789 1.78059089183807373
2.11745238304138184 -0.178064227104187012 1.86996030807495117
1.5754086971282959 -0.295759499073028564 0.890233457088470459
1.29645395278930664 1.12930941581726074 0.434776097536087036
-0.158240243792533875 1.00789725780487061 0.234568387269973755
0.191308051347732544 -0.418891757726669312 1.6460801362991333
0.429520994424819946 -0.439988881349563599 1.17698848247528076
1.72376859188079834 -0.470742076635360718 2.07946300506591797
1.94539761543273926 0.511612176895141602 1.10703277587890625
-1.5824052095413208 -0.515869617462158203 0.910550713539123535
-0.990250229835510254 0.512025237083435059 0.674667716026306152
2.03499937057495117 0.732806682586669922 0.535572409629821777
-0.466124534606933594 -0.582017004489898682 1.58474278450012207
3.08172750473022461 1.3191753625869751 0.830587327480316162
-1.28215336799621582 -0.623264074325561523 1.74243640899658203
1.82742214202880859 0.697784781455993652 1.84886610507965088
1.54718708992004395 -0.0981799960136413574 0.516874134540557861
1.62765622138977051 0.411227524280548096 0.946321189403533936
1.99325847625732422 -0.362797796726226807 1.66128659248352051
1.32525575160980225 -1.01244699954986572 0.485074520111083984
-2.1674342155456543 0.230279982089996338 1.27531301975250244
1.51648402214050293 -0.667746365070343018 1.9118417501449585
0.211183995008468628 0.188824713230133057 0.835345804691314697
-2.30511260032653809 0.423338949680328369 1.76183867454528809
-1.93796455860137939 0.462269425392150879 0.938097238540649414
1.47724628448486328 -0.843211650848388672 1.7393798828125
0.962686419486999512 -0.589824199676513672 0.630208969116210938
-1.7307732105255127 0.44183659553527832 0.627830266952514648
-0.714764893054962158 -0.373732209205627441 0.77831500768661499
2.08268642425537109 1.16015112400054932 1.81529593467712402
-2.21972179412841797 1.33596348762512207 0.580651342868804932
1.54278385639190674 0.525070071220397949 0.494085967540740967
-2.49054193496704102 1.3239978551864624 1.94055271148681641
-0.434598386287689209 -0.49550136923789978 1.05547904968261719
3.02673530578613281 1.09405529499053955 1.73717308044433594
-1.91851723194122314 0.872255682945251465 0.459563910961151123
-1.08823716640472412 -0.496512472629547119 0.376588314771652222
-1.48464715480804443 -0.469149351119995117 1.88390135765075684
-1.76899373531341553 0.1496705561876297 0.942358911037445068
-1.4727630615234375 -0.0337275266647338867 0.595752298831939697
0.983363747596740723 0.164812192320823669 1.7402193546295166
-0.374900788068771362 -0.623524904251098633 1.60919845104217529
1.85075163841247559 -0.00820542126893997192 0.99375152587890625
1.76836800575256348 0.103569969534873962 1.69948029518127441
0.678480565547943115 -0.247669920325279236 1.67535614967346191
2.06555509567260742 0.375612318515777588 1.6908644437789917
0.0136386752128601074 -0.545674622058868408 1.18276655673980713
-1.47837138175964355 0.685627341270446777 0.680011212825775146
-1.5013960599899292 -0.827493429183959961 1.37098491191864014
-1.82558679580688477 0.127154216170310974 1.90128827095031738
1.75856959819793701 -0.179825380444526672 1.89046740531921387
2.89709687232971191 2.10614013671875 0.921620726585388184
-1.7873084545135498 -0.42418476939201355 0.850078165531158447
-1.88270950317382812 -0.27369612455368042 2.00753235816955566
-0.689040899276733398 -0.441764861345291138 1.23396515846252441
-1.75543665885925293 0.483623772859573364 0.541561245918273926
-0.284995079040527344 -0.474525123834609985 0.717581570148468018
-1.7031477689743042 -0.155778884887695312 0.5522727370262146
-1.5280001163482666 -0.757598221302032471 0.928161740303039551
1.80738592147827148 0.608888804912567139 0.90991508960723877
-1.33577120304107666 -0.787503182888031006 1.85712122917175293
-2.22402405738830566 0.380438446998596191 0.916450202465057373
-3.21348857879638672 1.61728751659393311 1.87226366996765137
-1.58846950531005859 0.0944206863641738892 2.00458359718322754
0.49930882453918457 -0.648964047431945801 1.2835533618927002
-1.94912326335906982 0.0721831619739532471 2.2202610969543457
0.647596478462219238 -0.491873592138290405 0.697170615196228027
-1.89835238456726074 -0.175121098756790161 1.77417373657226562
-1.95455849170684814 0.288298189640045166 1.95783305168151855
2.14107203483581543 0.985173702239990234 0.61788332462310791
0.568362712860107422 1.27695369720458984 0.202950417995452881
1.78534722328186035 1.00663042068481445 1.75747215747833252
1.99181091785430908 1.2396773099899292 0.4700469970703125
-2.45554852485656738 0.949252843856811523 1.76912033557891846
-0.357567161321640015 0.843990325927734375 0.589992105960845947
0.582105815410614014 -0.534579575061798096 1.20940518379211426
1.09026646614074707 -1.09681808948516846 0.69131171703338623
0.204903304576873779 -0.57865220308303833 1.24351692199707031
1.24509406089782715 0.390278279781341553 0.515567004680633545
-2.06456756591796875 0.604738891124725342 2.10153579711914062
-0.184712618589401245 -0.237104892730712891 1.56824588775634766
1.22884976863861084 -0.921864926815032959 1.61178922653198242
1.28015279769897461 -0.916709065437316895 1.8085486888885498
1.37537896633148193 0.116117790341377258 1.92687392234802246
2.0861811637878418 1.51277697086334229 1.73864293098449707
-1.73320531845092773 -0.221073150634765625 1.98196220397949219
-0.904137313365936279 -0.568368017673492432 1.7157970666885376
-2.13400745391845703 0.45529782772064209 0.980987131595611572
1.25670599937438965 0.769344925880432129 0.558871626853942871
0.687500834465026855 0.310929834842681885 0.897909641265869141
-1.44228386878967285 -0.811510443687438965 0.850689351558685303
1.59756267070770264 0.464767992496490479 0.458182543516159058
1.79524791240692139 -0.320363104343414307 1.03533124923706055
1.37604916095733643 1.56795525550842285 0.549236655235290527
2.11137008666992188 0.0827243924140930176 1.79754924774169922
-2.39504718780517578 1.52480065822601318 1.79939818382263184
-1.50705182552337646 -0.833948671817779541 1.9650348424911499
2.04404735565185547 -0.0499450862407684326 1.81644940376281738
1.56703293323516846 -0.270348280668258667 0.51810377836227417
1.19629943370819092 -0.535017132759094238 1.71412467956542969
-2.20550155639648438 0.65425419807434082 0.819005370140075684
1.41705548763275146 -0.699273526668548584 0.685039818286895752
1.60887682437896729 -0.680613100528717041 1.84193885326385498
1.67582643032073975 0.535040676593780518 1.88894176483154297
1.78942859172821045 0.213369831442832947 1.76637732982635498
-1.57065033912658691 -0.520094215869903564 1.29261159896850586
1.12370026111602783 1.19964480400085449 0.320413827896118164
0.549093484878540039 -0.498743057250976562 1.38434398174285889
1.56108534336090088 0.471207380294799805 0.521494925022125244
-1.82131695747375488 -0.293550997972488403 2.09017133712768555
-1.96505284309387207 0.0306749194860458374 2.08909273147583008
-1.46501278877258301 1.12865793704986572 0.51208043098449707
-1.33909010887145996 -0.398726493120193481 1.97765994071960449
-1.36923980712890625 -0.443861633539199829 0.49502265453338623
1.52917814254760742 -0.228113219141960144 1.88152062892913818
0.114415451884269714 0.683274745941162109 0.514119744300842285
0.392083287239074707 -0.400820076465606689 1.15043354034423828
1.1657792329788208 -0.616691648960113525 1.3533557653427124
1.88365030288696289 0.392979085445404053 1.07336413860321045
1.39536309242248535 -0.458143711090087891 1.84102463722229004
0.274367541074752808 -0.496617138385772705 1.44531452655792236
1.76426196098327637 -0.363381087779998779 1.74714195728302002
-1.96829354763031006 0.822973668575286865 1.96748089790344238
1.35437512397766113 -0.675145387649536133 0.47064131498336792
-1.53845810890197754 -0.967222809791564941 1.45899975299835205
1.58141934871673584 0.931047439575195312 1.78619885444641113
1.28759896755218506 -1.00270664691925049 1.73895061016082764
1.81027901172637939 0.480578362941741943 1.67388510704040527
0.775142550468444824 -0.224912405014038086 1.71488142013549805
1.23959910869598389 -0.067960888147354126 0.457297295331954956
-1.27307999134063721 0.112702712416648865 0.733777165412902832
-2.0676882266998291 0.420337975025177002 1.73668599128723145
1.57909166812896729 0.508802354335784912 0.543932974338531494
-1.95189547538757324 -0.0138884782791137695 0.97480541467666626
1.79629814624786377 0.583553552627563477 1.72556281089782715
0.0292356014251708984 -0.595492780208587646 1.15557026863098145
-1.5108867883682251 -0.37774696946144104 1.49011468887329102
-1.82703495025634766 0.0947433710098266602 2.26649141311645508
-1.6023021936416626 -0.878673732280731201 1.68126118183135986
-0.254176288843154907 -0.553056478500366211 1.46406447887420654
-2.67408370971679688 2.01505899429321289 0.336297899484634399
1.55018913745880127 0.22627827525138855 0.515570580959320068
-0.762122154235839844 -0.477989137172698975 1.05210542678833008
-2.29790425300598145 1.65755951404571533 0.526550590991973877
1.74757027626037598 -0.141565650701522827 1.7720792293548584
1.71776497364044189 0.591499805450439453 0.978834033012390137
0.201918751001358032 -0.299205213785171509 1.57223701477050781
1.52870810031890869 -0.929596304893493652 1.92115163803100586
-1.69384133815765381 -0.808169424533843994 1.09643566608428955
-1.91772961616516113 -0.0373891778290271759 1.93984544277191162
-2.20982503890991211 0.710608184337615967 0.578758299350738525
1.82915306091308594 0.610442280769348145 0.353267967700958252
1.83478987216949463 0.336192429065704346 0.959946870803833008
1.88706862926483154 0.705774962902069092 1.77519965171813965
2.35072803497314453 1.17305123805999756 0.709860801696777344
-1.7945868968963623 0.931789100170135498 0.384611338376998901
-1.5710524320602417 -0.752323448657989502 2.08499264717102051
-1.7213740348815918 -0.628386497497558594 2.11728000640869141
-0.219950348138809204 -0.605582535266876221 1.19887888431549072
1.45289933681488037 1.22501099109649658 0.495301008224487305
-0.771990358829498291 0.429677069187164307 0.534001350402832031
0.531854033470153809 -0.449713975191116333 1.19961285591125488
1.8859095573425293 1.0137789249420166 1.81429064273834229
-0.964474678039550781 0.809966564178466797 0.609083890914916992
0.866820454597473145 -0.715029418468475342 1.32081818580627441
-0.497353136539459229 -0.322066247463226318 1.54427576065063477
2.03995776176452637 0.0389229655265808105 1.94853019714355469
-0.212616831064224243 -0.452650159597396851 1.27660775184631348
-0.251134306192398071 1.28133106231689453 0.436295658349990845
1.30322372913360596 -0.826736211776733398 1.76132285594940186
-1.4189223051071167 -0.109315201640129089 1.93822121620178223
-1.88501536846160889 0.769191265106201172 2.1948237419128418
1.59385991096496582 -0.427825897932052612 1.84145140647888184
1.59032130241394043 -0.0159599035978317261 0.677518844604492188
-1.92218673229217529 0.253340572118759155 1.03570973873138428
-0.231823980808258057 -0.408222109079360962 1.19552385807037354
0.422782838344573975 -0.314034849405288696 0.776963651180267334
-0.292910933494567871 0.673531472682952881 0.559629976749420166
-2.13333630561828613 1.04017806053161621 1.92159152030944824
-1.65927886962890625 -0.179213628172874451 0.543014645576477051
1.78792619705200195 0.548622310161590576 0.784742653369903564
-1.62146329879760742 -0.86941981315612793 1.16459250450134277
2.04403901100158691 0.965263247489929199 2.03281569480895996
-1.94478440284729004 0.407919228076934814 2.03707528114318848
1.88253545761108398 -0.499637305736541748 1.30368852615356445
-2.14341425895690918 0.0486246496438980103 1.60346031188964844
1.60584378242492676 0.492661774158477783 0.65592879056930542
2.14289259910583496 1.4307016134262085 1.9510645866394043
-1.41351532936096191 -0.785611152648925781 2.01542854309082031
1.65130531787872314 -0.249089032411575317 0.891127705574035645
-2.2249605655670166 0.162030667066574097 1.71734893321990967
-1.03711938858032227 -0.259845256805419922 0.744079232215881348
2.04511165618896484 -0.347203969955444336 1.8293764591217041
-0.568167209625244141 -0.575339138507843018 1.66422557830810547
0.490162849426269531 -0.490179479122161865 1.68217802047729492
1.13956737518310547 -0.36409914493560791 0.434670060873031616
-2.2676398754119873 0.353655397891998291 0.978368759155273438
-2.07776522636413574 0.207544624805450439 0.993569314479827881
