ply
format ascii 1.0
element vertex 256
comment vertices
property float x
property float y
property float z
end_header
-2.60345101356506348 -1.51462268829345703 0.589620411396026611
3.36068415641784668 1.4330141544342041 0.744798183441162109
-1.03581678867340088 3.25584864616394043 1.30533742904663086
2.29418778419494629 -2.12469053268432617 0.749282121658325195
0.96352076530456543 1.38413417339324951 0.329203039407730103
-2.52344703674316406 1.48246574401855469 0.421557486057281494
-0.920723497867584229 -3.27578401565551758 1.64397835731506348
3.12971591949462891 -0.544454038143157959 0.477248162031173706
0.341587662696838379 -0.997026562690734863 0.293131351470947266
0.116789177060127258 3.14340114593505859 0.349818021059036255
-2.6698143482208252 0.268752872943878174 1.25703215599060059
2.18840837478637695 1.93141758441925049 1.34973978996276855
-2.67881512641906738 -2.60232305526733398 1.54368400573730469
-1.00697827339172363 -3.0298314094543457 0.34568178653717041
2.25415372848510742 -0.389062583446502686 0.476136088371276855
-0.864708006381988525 0.635040581226348877 0.298597455024719238
-1.3670727014541626 3.36566543579101562 0.698284804821014404
0.460835546255111694 2.48997330665588379 1.601959228515625
-2.03969097137451172 1.83432936668395996 1.4122852087020874
2.75901961326599121 1.46743392944335938 0.569832980632781982
3.34343862533569336 0.714027643203735352 1.04898595809936523
3.06287717819213867 -1.36928415298461914 1.03739559650421143
-0.342458724975585938 2.33433032035827637 0.21210777759552002
-0.067101113498210907 -2.36545825004577637 0.751688003540039062
-2.67843008041381836 0.0704299360513687134 0.922420263290405273
-2.84549760818481445 -1.20992147922515869 1.42613005638122559
-1.79343616962432861 -2.88324069976806641 0.697066664695739746
1.70127582550048828 2.22587871551513672 0.748929381370544434
3.60419344902038574 1.0882568359375 0.556978404521942139
-1.02326750755310059 -1.4689713716506958 0.531394779682159424
1.22389507293701172 -1.95803415775299072 0.536135256290435791
1.29794025421142578 2.36258244514465332 0.839330315589904785
3.38249826431274414 -0.440055996179580688 1.03782951831817627
1.37624049186706543 -0.058211594820022583 0.308389574289321899
-0.664546012878417969 3.21532607078552246 1.13520395755767822
-2.29938840866088867 2.10167551040649414 0.9170798659324646
2.49981260299682617 -1.0401843786239624 0.589578211307525635
-1.34577953815460205 -0.448380738496780396 0.410569220781326294
0.0802976638078689575 -2.86466598510742188 0.525844097137451172
-2.38158059120178223 -2.27110815048217773 0.379585921764373779
-2.70435047149658203 -0.41461142897605896 1.00091671943664551
3.23662996292114258 0.172573968768119812 0.416874527931213379
-2.62697672843933105 0.78080517053604126 1.21090912818908691
0.195610702037811279 3.1622767448425293 1.11565470695495605
3.24507260322570801 1.79818832874298096 0.967787444591522217
-1.92801952362060547 2.48081874847412109 0.804578125476837158
2.00925970077514648 -1.00052440166473389 0.562645912170410156
-2.53888869285583496 1.35747790336608887 1.38823139667510986
-1.71522998809814453 -3.16612505912780762 1.6629105806350708
2.04196882247924805 0.952862024307250977 0.309482663869857788
-1.11192727088928223 1.58751630783081055 0.294876694679260254
-1.13163268566131592 -3.19666600227355957 1.10161757469177246
-2.66083216667175293 -2.19025182723999023 0.945995688438415527
1.6725003719329834 2.43705224990844727 0.950833678245544434
-0.102712586522102356 -2.16726255416870117 0.477012574672698975
0.473696082830429077 2.36226606369018555 0.339151978492736816
-1.64467787742614746 2.54144191741943359 1.57816267013549805
3.2861640453338623 0.398233771324157715 0.757531642913818359
3.36981964111328125 1.55156958103179932 0.534113824367523193
-2.04075241088867188 2.30192852020263672 0.335916757583618164
-0.471792280673980713 2.79224562644958496 1.62453103065490723
-0.502089619636535645 -0.226252436637878418 0.281128972768783569
1.50191295146942139 -2.11756277084350586 0.743340134620666504
-0.363414168357849121 3.13618278503417969 0.613651573657989502
-1.43803858757019043 -2.92150187492370605 0.328186273574829102
2.3379664421081543 1.53142058849334717 0.612629592418670654
-1.31780946254730225 3.08737087249755859 1.03709959983825684
3.08077406883239746 -0.918601036071777344 0.591947555541992188
3.08935213088989258 0.98607182502746582 0.826416492462158203
0.168368488550186157 2.59413599967956543 0.357948988676071167
1.299277663230896 -0.879414677619934082 0.35565263032913208
-1.5954587459564209 0.908770561218261719 0.436073988676071167
1.5561748743057251 2.02409005165100098 1.46906542778015137
3.61850976943969727 -0.694049596786499023 0.522563040256500244
3.1867372989654541 2.23502683639526367 0.888066530227661133
-0.331467092037200928 -3.26398992538452148 1.14560103416442871
-2.45179224014282227 -0.712532758712768555 0.896948873996734619
2.90754008293151855 -2.01555252075195312 0.930020570755004883
2.52059102058410645 1.50495648384094238 0.848868608474731445
1.88696444034576416 -1.88993203639984131 0.63952106237411499
-0.445228070020675659 3.24740481376647949 1.19675445556640625
1.95259606838226318 1.80918526649475098 0.359008818864822388
1.40628898143768311 2.46471667289733887 0.946024417877197266
-2.72595572471618652 -1.51612162590026855 1.0736008882522583
-2.90600180625915527 -1.96385157108306885 1.53836154937744141
-2.80572938919067383 -0.453359067440032959 1.2096095085144043
-2.18444466590881348 -1.53122591972351074 0.583077967166900635
-2.4408729076385498 2.00917673110961914 0.454242706298828125
1.43502306938171387 0.662335395812988281 0.342733591794967651
-2.69523501396179199 0.879405081272125244 0.864453434944152832
3.13794803619384766 0.756647348403930664 0.444974541664123535
-2.32652854919433594 -3.13969254493713379 0.982495427131652832
3.14077162742614746 -0.536388635635375977 0.869942665100097656
3.69223642349243164 1.04262018203735352 0.593354701995849609
-2.32331466674804688 -2.59872865676879883 0.59153515100479126
3.43283343315124512 -0.374249458312988281 0.531426846981048584
0.466782450675964355 1.73417222499847412 0.266994774341583252
3.4913785457611084 -0.116768226027488708 0.842964410781860352
-1.77312207221984863 -3.11536240577697754 0.993673801422119141
-0.663104772567749023 -2.4837794303894043 0.288524508476257324
0.252987861633300781 2.86301159858703613 0.740364551544189453
-2.37121963500976562 1.71346151828765869 1.08839750289916992
0.511802017688751221 2.6285097599029541 1.3765566349029541
-1.60411810874938965 -2.95213747024536133 0.768704712390899658
3.09380388259887695 -1.01098155975341797 1.25106632709503174
-1.6423259973526001 2.59884428977966309 1.51356470584869385
-0.223934054374694824 -1.45935261249542236 0.478401482105255127
-1.06948566436767578 3.13709712028503418 1.12029051780700684
2.23760056495666504 -1.23125505447387695 0.59769827127456665
-2.70480036735534668 0.156757116317749023 1.10351288318634033
0.546207547187805176 2.57475590705871582 0.457328975200653076
-1.53904509544372559 2.94957947731018066 1.555877685546875
-0.344685256481170654 -2.75433540344238281 0.346130996942520142
0.458961188793182373 -1.78724992275238037 0.758151412010192871
2.35572624206542969 -1.14248859882354736 0.559889495372772217
0.18728870153427124 -2.25850582122802734 0.652596592903137207
-1.41190552711486816 0.260086119174957275 0.435491502285003662
-0.597746133804321289 1.1932525634765625 0.282721638679504395
-2.02990269660949707 2.19962811470031738 1.0714493989944458
-2.31756854057312012 -2.17537569999694824 0.636643767356872559
-0.940033555030822754 -0.797145366668701172 0.262640684843063354
-0.467234373092651367 3.07652521133422852 0.399742960929870605
-0.778376936912536621 2.71473312377929688 0.352240562438964844
3.53133106231689453 0.166997045278549194 0.503841400146484375
1.94843363761901855 -0.672698438167572021 0.488745391368865967
-2.66058492660522461 0.814459443092346191 1.27115726470947266
-2.6125953197479248 0.0491974055767059326 1.08155131340026855
-2.38089156150817871 1.64738869667053223 0.640460193157196045
2.61725211143493652 1.36639130115509033 0.569584190845489502
3.42503595352172852 -0.233978927135467529 0.422069311141967773
-0.48990166187286377 -3.18447542190551758 0.730132400989532471
1.90121757984161377 -1.47544491291046143 0.682576239109039307
-1.20840620994567871 2.75283288955688477 1.72695505619049072
0.586578369140625 -0.510053336620330811 0.277580320835113525
3.17483830451965332 -0.905484616756439209 0.79985499382019043
-0.252709150314331055 0.328134417533874512 0.367369264364242554
-2.61841154098510742 -0.77492445707321167 1.16470026969909668
2.45402216911315918 1.80003046989440918 0.524383962154388428
0.0782033950090408325 -2.70494842529296875 0.633631467819213867
-0.0245889350771903992 3.18950963020324707 1.16194093227386475
3.29036974906921387 0.332608997821807861 0.353541821241378784
3.85052609443664551 0.948634862899780273 0.573595702648162842
2.45717072486877441 2.13241052627563477 1.05202651023864746
-0.943976104259490967 3.23548674583435059 1.304848313331604
2.91022658348083496 1.82040190696716309 0.744853615760803223
-2.21886277198791504 -1.03457319736480713 0.441555798053741455
-1.69096815586090088 2.56804442405700684 0.77313995361328125
2.72657370567321777 -0.364868342876434326 0.556299448013305664
-2.20843768119812012 1.60089600086212158 0.452369570732116699
2.02322268486022949 0.430243939161300659 0.295591205358505249
1.481606125831604 2.40421462059020996 1.38311159610748291
0.0413431674242019653 2.58827519416809082 0.24497358500957489
-2.74991512298583984 -0.867731332778930664 1.14593124389648438
1.64141929149627686 2.17806363105773926 1.18929874897003174
-0.0356333553791046143 2.91979813575744629 1.54546070098876953
-1.8606647253036499 -2.78398323059082031 0.421593070030212402
-1.66696345806121826 -3.17994093894958496 1.36211776733398438
3.17828226089477539 0.484220623970031738 0.64890444278717041
3.0079653263092041 -0.822025537490844727 0.497277170419692993
3.43168950080871582 0.993624389171600342 0.9540213942527771
-1.30983936786651611 3.16630673408508301 1.24280071258544922
-0.847814977169036865 3.30303716659545898 0.942164242267608643
-1.84046852588653564 -2.95792293548583984 1.11164999008178711
3.24751734733581543 -0.324927419424057007 0.771101176738739014
1.64978575706481934 -1.42376017570495605 0.568180620670318604
-2.08901667594909668 1.52514505386352539 1.56833410263061523
-2.19220185279846191 2.21188259124755859 0.546756207942962646
1.593505859375 -2.21791577339172363 0.562625527381896973
-1.17442286014556885 1.02715623378753662 0.139376640319824219
2.21055984497070312 1.86660206317901611 0.475674629211425781
1.31849360466003418 2.32085776329040527 0.383207261562347412
2.74703550338745117 -1.11664509773254395 0.588835060596466064
3.00635647773742676 1.77611446380615234 0.990346968173980713
0.0515048056840896606 2.74458956718444824 0.397674649953842163
-1.8993077278137207 -0.0273246467113494873 0.499802291393280029
-0.740508556365966797 2.10158777236938477 0.229472130537033081
-2.6831200122833252 -2.39057707786560059 1.19126033782958984
-2.54768967628479004 1.56694126129150391 0.511132001876831055
-1.79878616333007812 2.12549734115600586 0.320859581232070923
3.46219348907470703 0.0909008979797363281 0.460537314414978027
-2.60905003547668457 -1.73932039737701416 0.496942043304443359
-1.74882757663726807 -3.06368279457092285 0.669446468353271484
1.66279995441436768 -1.03174769878387451 0.362888336181640625
3.44354748725891113 0.818403363227844238 0.819214165210723877
-0.899095773696899414 -3.26164364814758301 1.35148179531097412
0.50625157356262207 2.87591934204101562 1.23340964317321777
0.424815058708190918 2.70656967163085938 1.35911262035369873
3.17212629318237305 -0.835363149642944336 0.863405823707580566
-1.47483992576599121 -1.93587231636047363 0.677172660827636719
1.84239888191223145 -0.979615986347198486 0.475495338439941406
2.85478425025939941 1.52480638027191162 0.64944148063659668
2.87781381607055664 0.373346865177154541 0.343318015336990356
-0.157387852668762207 2.8999476432800293 0.356857985258102417
-2.48111724853515625 -1.28446662425994873 0.595969974994659424
2.49547314643859863 1.84883344173431396 0.846735775470733643
1.53924989700317383 1.08019757270812988 0.324303299188613892
-0.413540154695510864 -2.6791996955871582 0.394529223442077637
-2.08586812019348145 1.71637976169586182 1.23726844787597656
-0.992768645286560059 -3.10371637344360352 0.805086970329284668
-1.22647511959075928 -1.17388641834259033 0.448677003383636475
-0.946959435939788818 0.0957064926624298096 0.280175745487213135
-2.64934992790222168 -0.389305382966995239 1.0481339693069458
0.982792556285858154 1.98097527027130127 0.46447715163230896
3.29057407379150391 1.24898719787597656 0.561730146408081055
-2.61353302001953125 -1.73307180404663086 0.920737564563751221
2.14313673973083496 -1.31246185302734375 0.482934087514877319
-2.79267406463623047 -1.81524372100830078 1.29111504554748535
1.50947415828704834 2.27728700637817383 0.703903615474700928
-1.67304778099060059 2.05525112152099609 1.49523186683654785
1.20140624046325684 2.39284348487854004 0.755153059959411621
1.42331957817077637 2.31351327896118164 1.1204979419708252
-2.19249320030212402 -3.05265378952026367 1.70671141147613525
-0.874217987060546875 2.79424309730529785 0.838783502578735352
2.97349286079406738 -0.214265435934066772 0.522374153137207031
2.71403360366821289 -0.640555143356323242 0.575533151626586914
2.8193507194519043 -1.16404366493225098 0.846376597881317139
3.26724672317504883 -0.518955767154693604 0.89127194881439209
-1.39976763725280762 -3.13224172592163086 0.678456783294677734
0.188125088810920715 -2.29477882385253906 0.44551655650138855
0.143688097596168518 2.11837148666381836 0.196117043495178223
-2.20797228813171387 -2.01218056678771973 0.619714200496673584
-1.55576217174530029 -3.28206372261047363 1.85255813598632812
-1.86307835578918457 -3.18377017974853516 1.08100485801696777
0.0210058987140655518 -1.61884498596191406 0.586107492446899414
-2.65010786056518555 -1.10122787952423096 1.14814794063568115
-2.37619614601135254 -2.52052450180053711 0.922316551208496094
0.332767665386199951 2.49923872947692871 0.409736603498458862
-2.33080577850341797 2.00282740592956543 0.353026330471038818
-1.9949030876159668 2.1263575553894043 1.28051424026489258
1.60210371017456055 -2.38897061347961426 0.50128251314163208
-1.92491555213928223 0.558262765407562256 0.575369536876678467
0.205377459526062012 2.8738398551940918 0.475297272205352783
-1.63032126426696777 2.79581761360168457 1.54098379611968994
-1.50746870040893555 2.77263426780700684 1.14517319202423096
3.22074341773986816 0.717178046703338623 0.337008267641067505
-2.7525634765625 -0.195966526865959167 1.19517612457275391
-2.60260128974914551 0.587087392807006836 1.04325222969055176
3.28916192054748535 0.452594786882400513 0.580267786979675293
2.42234420776367188 -2.208648681640625 1.13604342937469482
-2.26525187492370605 2.25321555137634277 0.588703393936157227
2.09747195243835449 -2.0265653133392334 0.653002142906188965
0.722935676574707031 -0.866525411605834961 0.38192632794380188
3.16015148162841797 -0.6833953857421875 0.558710098266601562
-2.14128828048706055 -2.8922431468963623 0.705876410007476807
3.63866448402404785 -0.420727998018264771 0.489165186882019043
0.584646642208099365 2.50367379188537598 1.46167337894439697
0.356327265501022339 2.83762145042419434 0.541484475135803223
-0.118043676018714905 -3.1389009952545166 0.851979613304138184
3.15263938903808594 1.27111124992370605 0.508831381797790527
-1.01536011695861816 -2.90926265716552734 0.31752312183380127
-0.735810935497283936 3.06282758712768555 1.56472039222717285
3.05707883834838867 -0.646106481552124023 1.0472412109375
2.37007236480712891 0.575673282146453857 0.25684550404548645
-0.174174726009368896 2.82094955444335938 0.359635263681411743
-1.00455081462860107 -0.340362846851348877 0.242116391658782959
2.01603984832763672 1.35986542701721191 0.24043738842010498
